<svg width="14" height="14" viewBox="0 0 14 14" fill="none" xmlns="http://www.w3.org/2000/svg">
<path d="M0 8.14602V5.85398H2.41593L4.64602 6.25664L4.80088 5.85398L2.94248 4.58407L1.23894 2.84956L2.84956 1.23894L4.58407 2.94248L5.85398 4.80089L6.25664 4.64602L5.85398 2.41593V0H8.14602V2.41593L7.74336 4.64602L8.14602 4.80089L9.41593 2.94248L11.1504 1.23894L12.7611 2.84956L11.0575 4.58407L9.19911 5.85398L9.35398 6.25664L11.5841 5.85398H14V8.14602H11.5841L9.35398 7.74336L9.19911 8.14602L11.0575 9.41593L12.7611 11.1504L11.1504 12.7611L9.41593 11.0575L8.14602 9.19911L7.74336 9.35398L8.14602 11.5841V14H5.85398V11.5841L6.25664 9.35398L5.85398 9.19911L4.58407 11.0575L2.84956 12.7611L1.23894 11.1504L2.94248 9.41593L4.80088 8.14602L4.64602 7.74336L2.41593 8.14602H0Z" fill="#616161"/>
</svg>
