<svg width="149" height="102" viewBox="0 0 149 102" fill="none" xmlns="http://www.w3.org/2000/svg">
<path d="M1.34771 17.2437L6.52955 17.0939C9.91214 16.9962 11.6615 15.2169 11.5637 11.8343L11.4951 9.45932C11.3974 6.07673 9.54821 4.40144 6.16562 4.49918L0.983783 4.64891L1.04409 6.73604L2.6994 6.68821L2.94271 15.1087L1.2874 15.1565L1.34771 17.2437ZM5.31564 14.9681L5.07649 6.69155L6.26399 6.65724C8.1712 6.60213 9.06499 7.62074 9.11802 9.45597L9.19081 11.9749C9.24384 13.8102 8.41035 14.8787 6.50315 14.9338L5.31564 14.9681Z" fill="#B6519D"/>
<path d="M18.5921 16.9975C21.7588 16.906 23.7219 15.0485 23.6283 11.8099L23.541 8.78711C23.4474 5.54846 21.3803 3.80744 18.2136 3.89895C15.0469 3.99045 13.0837 5.84793 13.1773 9.08657L13.2647 12.1093C13.3583 15.348 15.4254 17.089 18.5921 16.9975ZM18.5307 14.8744C16.7675 14.9253 15.6917 13.8399 15.6418 12.1127L15.5503 8.94598C15.5003 7.2187 16.5117 6.07301 18.2749 6.02206C20.0382 5.97111 21.114 7.05649 21.1639 8.78377L21.2554 11.9504C21.3053 13.6777 20.294 14.8234 18.5307 14.8744Z" fill="#B6519D"/>
<path d="M29.3437 16.4347L31.7907 16.364L32.3944 13.5734L36.8925 13.4434L37.6563 16.1945L40.1033 16.1238L36.4287 3.62472L32.2904 3.74429L29.3437 16.4347ZM32.8887 11.3622L34.2408 5.18256L34.5647 5.1732L36.2713 11.2645L32.8887 11.3622Z" fill="#B6519D"/>
<path d="M45.9684 15.9543L54.101 15.7193L54.0386 13.5602L48.281 13.7266L47.9795 3.29095L45.6045 3.35958L45.9684 15.9543Z" fill="#B6519D"/>
<path d="M60.1821 15.7957C63.3488 15.7042 65.312 13.8467 65.2184 10.6081L65.1311 7.58535C65.0375 4.3467 62.9703 2.60568 59.8037 2.69718C56.637 2.78869 54.6738 4.64616 54.7674 7.88481L54.8547 10.9076C54.9483 14.1462 57.0155 15.8872 60.1821 15.7957ZM60.1208 13.6726C58.3575 13.7236 57.2817 12.6382 57.2318 10.9109L57.1403 7.74422C57.0904 6.01694 58.1017 4.87125 59.865 4.8203C61.6283 4.76935 62.7041 5.85473 62.754 7.58201L62.8455 10.7487C62.8954 12.476 61.8841 13.6217 60.1208 13.6726Z" fill="#B6519D"/>
<path d="M69.8451 15.2644L72.2201 15.1958L71.9186 4.76012L75.5891 4.65407L75.5267 2.49497L65.8107 2.77571L65.8731 4.93481L69.5436 4.82875L69.8451 15.2644Z" fill="#B6519D"/>
<path d="M82.4338 14.9006L86.5361 14.7821L87.8321 3.54398L88.1559 3.53463L90.0986 14.6792L94.2009 14.5606L95.4923 1.91805L93.1353 1.98616L92.2279 12.9609L91.904 12.9703L90.0046 2.07662L85.9023 2.19516L84.6351 13.1803L84.3112 13.1897L82.7716 2.28562L80.4146 2.35373L82.4338 14.9006Z" fill="#B6519D"/>
<path d="M97.5914 14.4627L99.9664 14.394L99.6025 1.79929L97.2274 1.86791L97.5914 14.4627Z" fill="#B6519D"/>
<path d="M105.25 14.2414L107.625 14.1727L107.324 3.73708L110.994 3.63102L110.932 1.47192L101.216 1.75267L101.278 3.91177L104.949 3.80571L105.25 14.2414Z" fill="#B6519D"/>
<path d="M112.913 14.0199L115.288 13.9513L115.137 8.71549L119.815 8.58031L119.966 13.8161L122.341 13.7475L121.977 1.15276L119.602 1.22139L119.752 6.42122L115.074 6.55639L114.924 1.35656L112.549 1.42519L112.913 14.0199Z" fill="#B6519D"/>
<path d="M5.99565 40.3711C8.46062 40.2998 9.93092 38.8348 9.85553 36.2258L9.66317 29.5686L11.1026 29.527L11.0402 27.3679L5.06667 27.5405L5.12906 29.6996L7.28816 29.6372L7.48052 36.2945C7.5138 37.446 6.92077 38.1114 5.85921 38.1421C4.72568 38.1748 4.05872 37.5278 4.02596 36.3943L3.99165 35.2068L1.61664 35.2754L1.65096 36.4629C1.72426 38.9999 3.40473 40.4459 5.99565 40.3711Z" fill="#B6519D"/>
<path d="M18.2189 40.0179C21.3136 39.9284 23.0968 38.0762 23.0136 35.1974L22.7776 27.0288L20.4026 27.0974L20.6407 35.338C20.6854 36.8853 19.8128 37.8469 18.1575 37.8947C16.5022 37.9426 15.5756 37.033 15.5308 35.4856L15.2927 27.2451L12.9177 27.3137L13.1538 35.4823C13.2369 38.3611 15.1242 40.1073 18.2189 40.0179Z" fill="#B6519D"/>
<path d="M29.8218 39.6826C32.7366 39.5984 34.544 37.9615 34.4775 35.6584C34.4109 33.3554 32.6027 32.4713 29.9051 31.973L29.4887 31.895C27.968 31.6148 27.2533 31.1852 27.2262 30.2496C27.1992 29.314 27.8483 28.719 29.2877 28.6774C30.7271 28.6358 31.6254 29.1861 31.667 30.6255L31.6826 31.1653L34.0216 31.0977L34.006 30.5579C33.927 27.8231 31.9263 26.5123 29.2274 26.5903C26.5285 26.6683 24.8228 28.0861 24.8893 30.3892C24.9558 32.6922 26.5107 33.5297 29.1362 34.03L29.5527 34.108C31.1824 34.4211 32.1104 34.7544 32.1405 35.798C32.1697 36.8056 31.3808 37.5487 29.7615 37.5955C28.1421 37.6423 27.1307 36.9152 27.0871 35.4038L27.0725 34.9L24.7335 34.9676L24.748 35.4714C24.8271 38.2062 26.907 39.7668 29.8218 39.6826Z" fill="#B6519D"/>
<path d="M38.8644 39.1692L41.2395 39.1006L40.9379 28.6649L44.6084 28.5589L44.546 26.3998L34.83 26.6805L34.8924 28.8396L38.5629 28.7336L38.8644 39.1692Z" fill="#B6519D"/>
<path d="M50.551 38.8315L52.926 38.7629L52.7747 33.5271L57.8846 33.3794L57.8222 31.2203L52.7123 31.368L52.6245 28.3272L58.1661 28.1671L58.1038 26.008L50.1871 26.2368L50.551 38.8315Z" fill="#B6519D"/>
<path d="M60.1622 38.5538L68.3668 38.3167L68.3044 36.1576L62.4748 36.3261L62.3849 33.2134L67.6027 33.0626L67.5403 30.9035L62.3225 31.0543L62.2357 28.0495L67.9573 27.8842L67.8949 25.7251L59.7983 25.959L60.1622 38.5538Z" fill="#B6519D"/>
<path d="M71.1324 38.2368L75.2347 38.1183L76.5307 26.8801L76.8545 26.8708L78.7972 38.0153L82.8995 37.8968L84.1909 25.2542L81.8339 25.3223L80.9265 36.2971L80.6026 36.3065L78.7032 25.4128L74.6009 25.5313L73.3337 36.5165L73.0098 36.5259L71.4702 25.6218L69.1132 25.6899L71.1324 38.2368Z" fill="#B6519D"/>
<path d="M93.1231 37.6014L95.4981 37.5327L95.1965 27.0971L98.867 26.991L98.8046 24.8319L89.0887 25.1127L89.151 27.2718L92.8215 27.1657L93.1231 37.6014Z" fill="#B6519D"/>
<path d="M105.178 37.5052C108.344 37.4137 110.307 35.5562 110.214 32.3175L110.126 29.2948C110.033 26.0561 107.966 24.3151 104.799 24.4066C101.632 24.4981 99.6692 26.3556 99.7628 29.5943L99.8502 32.617C99.9437 35.8556 102.011 37.5967 105.178 37.5052ZM105.116 35.382C103.353 35.433 102.277 34.3476 102.227 32.6203L102.136 29.4537C102.086 27.7264 103.097 26.5807 104.86 26.5297C106.624 26.4788 107.699 27.5642 107.749 29.2914L107.841 32.4581C107.891 34.1854 106.879 35.3311 105.116 35.382Z" fill="#B6519D"/>
<path d="M117.337 37.1538C120.503 37.0623 122.466 35.2048 122.373 31.9662L122.285 28.9435C122.192 25.7048 120.125 23.9638 116.958 24.0553C113.791 24.1468 111.828 26.0043 111.922 29.2429L112.009 32.2657C112.103 35.5043 114.17 37.2453 117.337 37.1538ZM117.275 35.0307C115.512 35.0817 114.436 33.9963 114.386 32.269L114.295 29.1023C114.245 27.375 115.256 26.2293 117.019 26.1784C118.783 26.1274 119.858 27.2128 119.908 28.9401L120 32.1068C120.05 33.8341 119.038 34.9798 117.275 35.0307Z" fill="#B6519D"/>
<path d="M124.594 36.692L132.727 36.457L132.665 34.2979L126.907 34.4643L126.605 24.0286L124.23 24.0973L124.594 36.692Z" fill="#B6519D"/>
<path d="M138.726 36.5358C141.64 36.4515 143.448 34.8147 143.381 32.5116C143.315 30.2086 141.506 29.3244 138.809 28.8262L138.392 28.7481C136.872 28.468 136.157 28.0384 136.13 27.1028C136.103 26.1672 136.752 25.5722 138.191 25.5306C139.631 25.489 140.529 26.0393 140.571 27.4787L140.586 28.0185L142.925 27.9509L142.91 27.4111C142.831 24.6763 140.83 23.3655 138.131 23.4435C135.432 23.5215 133.727 24.9393 133.793 27.2424C133.86 29.5454 135.414 30.3828 138.04 30.8832L138.456 30.9612C140.086 31.2743 141.014 31.6076 141.044 32.6512C141.073 33.6588 140.285 34.4019 138.665 34.4486C137.046 34.4954 136.034 33.7683 135.991 32.257L135.976 31.7532L133.637 31.8208L133.652 32.3246C133.731 35.0594 135.811 36.62 138.726 36.5358Z" fill="#B6519D"/>
<path d="M145.48 31.9468L147.783 31.8802L147.539 23.4238L145.235 23.4903L145.48 31.9468ZM146.758 36.3037C147.73 36.2756 148.447 35.5526 148.418 34.545C148.389 33.5374 147.631 32.857 146.659 32.8851C145.688 32.9132 144.97 33.6362 145 34.6438C145.029 35.6514 145.787 36.3317 146.758 36.3037Z" fill="#B6519D"/>
<path d="M57 51C59.3052 65.7019 60.3379 82.2037 67.2315 95.7619C68.1512 97.5707 69.2378 99.1155 70 101" stroke="#B6519D" stroke-linecap="round" stroke-linejoin="round"/>
</svg>
