<svg width="218" height="93" viewBox="0 0 218 93" fill="none" xmlns="http://www.w3.org/2000/svg">
<path d="M0.527204 13.0395L1.39093 0.469181L9.2923 1.01209L9.14423 3.16701L3.61327 2.78697L3.40474 5.82182L8.50472 6.17224L8.35665 8.32716L3.25668 7.97674L2.89762 13.2024L0.527204 13.0395Z" fill="#B6519D"/>
<path d="M8.4687 13.5852L12.6366 1.24189L16.7669 1.52568L19.2074 14.3231L16.7651 14.1553L16.2728 11.3429L11.7834 11.0344L10.9109 13.753L8.4687 13.5852ZM12.4906 8.88185L15.8666 9.11382L14.761 2.88537L14.4377 2.86316L12.4906 8.88185Z" fill="#B6519D"/>
<path d="M19.8501 14.3672L24.018 2.02391L28.1483 2.30771L30.5887 15.1051L28.1465 14.9373L27.6541 12.1249L23.1647 11.8165L22.2923 14.535L19.8501 14.3672ZM23.8719 9.66387L27.248 9.89584L26.1423 3.6674L25.8191 3.64519L23.8719 9.66387Z" fill="#B6519D"/>
<path d="M31.2314 15.1493L35.3994 2.80594L39.5296 3.08974L41.9701 15.8871L39.5279 15.7193L39.0355 12.907L34.5461 12.5985L33.6737 15.3171L31.2314 15.1493ZM35.2533 10.4459L38.6293 10.6779L37.5237 4.44943L37.2005 4.42722L35.2533 10.4459Z" fill="#B6519D"/>
<path d="M47.8212 16.5418C46.8515 16.4751 46.0074 16.2427 45.289 15.8445C44.5706 15.4464 44.0242 14.9096 43.6496 14.2344C43.275 13.5591 43.1189 12.7665 43.1815 11.8567L43.216 11.3539L45.5505 11.5143L45.5159 12.0171C45.4641 12.7713 45.6585 13.356 46.0991 13.7712C46.5405 14.1744 47.1622 14.4036 47.9643 14.4587C48.7784 14.5146 49.3941 14.3945 49.8114 14.0984C50.2406 13.8032 50.4725 13.4041 50.5071 12.9013C50.5309 12.5541 50.4485 12.2658 50.2598 12.0363C50.083 11.8077 49.8076 11.6143 49.4336 11.4563C49.0723 11.2872 48.6265 11.1242 48.096 10.9675L47.6891 10.8493C46.8403 10.5985 46.1145 10.3081 45.5117 9.97801C44.9217 9.63676 44.4756 9.21519 44.1733 8.71328C43.8829 8.2122 43.7641 7.57857 43.8167 6.81237C43.8694 6.04618 44.0938 5.40606 44.49 4.892C44.8989 4.3668 45.4425 3.98316 46.1207 3.74108C46.8117 3.48785 47.6061 3.39209 48.504 3.45378C49.4019 3.51548 50.1873 3.72581 50.8603 4.08479C51.546 4.43262 52.0655 4.92538 52.4186 5.56309C52.7845 6.18964 52.9362 6.95785 52.8737 7.86771L52.8367 8.40644L50.5022 8.24603L50.5392 7.7073C50.5721 7.22843 50.5027 6.83875 50.3308 6.53827C50.1718 6.22663 49.9233 5.99304 49.5851 5.8375C49.2478 5.66998 48.8397 5.56977 48.3609 5.53687C47.6425 5.48751 47.1003 5.58858 46.7342 5.84008C46.3809 6.08043 46.1882 6.43405 46.1562 6.90095C46.1348 7.21221 46.1945 7.48094 46.3353 7.70712C46.4881 7.93413 46.7212 8.13057 47.0346 8.29645C47.3479 8.46232 47.7523 8.6164 48.2477 8.75869L48.6546 8.87686C49.5393 9.1301 50.3006 9.42899 50.9385 9.77353C51.5884 10.1189 52.082 10.5497 52.4194 11.0661C52.7568 11.5824 52.8992 12.2237 52.8465 12.9899C52.7939 13.7561 52.5498 14.4189 52.1145 14.9784C51.6919 15.5267 51.1099 15.9438 50.3686 16.2297C49.64 16.5044 48.7909 16.6084 47.8212 16.5418Z" fill="#B6519D"/>
<path d="M56.8709 16.911L57.5866 6.49554L53.9232 6.24383L54.0713 4.08891L63.7684 4.75521L63.6203 6.91013L59.957 6.65842L59.2413 17.0739L56.8709 16.911Z" fill="#B6519D"/>
<path d="M64.5189 17.4365L65.3826 4.86613L73.4636 5.42138L73.3155 7.5763L67.605 7.18392L67.3989 10.1828L72.6066 10.5407L72.4586 12.6956L67.2508 12.3378L67.0374 15.4444L72.8557 15.8442L72.7076 17.9991L64.5189 17.4365Z" fill="#B6519D"/>
<path d="M78.8087 18.671C77.839 18.6043 76.9949 18.3719 76.2765 17.9737C75.5581 17.5755 75.0116 17.0388 74.637 16.3636C74.2624 15.6883 74.1064 14.8957 74.1689 13.9859L74.2035 13.4831L76.538 13.6435L76.5034 14.1463C76.4516 14.9005 76.646 15.4852 77.0866 15.9004C77.528 16.3036 78.1497 16.5327 78.9518 16.5879C79.7659 16.6438 80.3816 16.5237 80.7989 16.2276C81.2281 15.9324 81.46 15.5333 81.4946 15.0305C81.5184 14.6833 81.436 14.395 81.2473 14.1655C81.0705 13.9369 80.7951 13.7435 80.4211 13.5855C80.0598 13.4164 79.614 13.2534 79.0834 13.0967L78.6766 12.9785C77.8278 12.7277 77.102 12.4373 76.4992 12.1072C75.9092 11.7659 75.4631 11.3444 75.1607 10.8425C74.8704 10.3414 74.7516 9.70775 74.8042 8.94156C74.8569 8.17537 75.0813 7.53524 75.4774 7.02119C75.8864 6.49599 76.43 6.11235 77.1082 5.87027C77.7991 5.61704 78.5936 5.52127 79.4915 5.58297C80.3893 5.64466 81.1748 5.855 81.8478 6.21397C82.5335 6.5618 83.053 7.05457 83.4061 7.69227C83.772 8.31883 83.9237 9.08704 83.8612 9.99689L83.8242 10.5356L81.4897 10.3752L81.5267 9.83649C81.5596 9.35762 81.4901 8.96794 81.3183 8.66745C81.1593 8.35582 80.9107 8.12223 80.5726 7.96669C80.2353 7.79917 79.8272 7.69896 79.3483 7.66606C78.63 7.6167 78.0878 7.71777 77.7217 7.96927C77.3684 8.20961 77.1757 8.56324 77.1436 9.03013C77.1223 9.3414 77.182 9.61013 77.3228 9.83631C77.4756 10.0633 77.7087 10.2598 78.022 10.4256C78.3354 10.5915 78.7398 10.7456 79.2352 10.8879L79.6421 11.006C80.5268 11.2593 81.2881 11.5582 81.926 11.9027C82.5758 12.2481 83.0695 12.6789 83.4069 13.1953C83.7443 13.7116 83.8866 14.3529 83.834 15.1191C83.7813 15.8853 83.5373 16.5481 83.102 17.1076C82.6794 17.6559 82.0974 18.073 81.3561 18.3588C80.6275 18.6335 79.7784 18.7376 78.8087 18.671Z" fill="#B6519D"/>
<path d="M87.8584 19.0402L88.574 8.62473L84.9107 8.37302L85.0587 6.2181L94.7559 6.8844L94.6078 9.03932L90.9445 8.7876L90.2288 19.203L87.8584 19.0402Z" fill="#B6519D"/>
<path d="M99.5223 19.8416L100.386 7.27125L102.756 7.43413L101.893 20.0045L99.5223 19.8416Z" fill="#B6519D"/>
<path d="M104.257 20.167L105.121 7.59659L109.628 7.9063L111.372 19.032L111.695 19.0542L112.448 8.10002L114.782 8.26043L113.918 20.8308L109.411 20.5211L107.668 9.3954L107.344 9.37319L106.592 20.3274L104.257 20.167Z" fill="#B6519D"/>
<path d="M123.213 21.4694L123.928 11.054L120.265 10.8022L120.413 8.64732L130.11 9.31362L129.962 11.4685L126.299 11.2168L125.583 21.6323L123.213 21.4694Z" fill="#B6519D"/>
<path d="M135.219 22.547C133.639 22.4384 132.411 21.921 131.537 20.9949C130.663 20.0568 130.282 18.7797 130.393 17.1635L130.6 14.1466C130.711 12.5304 131.263 11.3234 132.256 10.5256C133.25 9.71582 134.537 9.36522 136.117 9.47381C137.698 9.58239 138.925 10.1057 139.798 11.0438C140.673 11.97 141.055 13.2411 140.944 14.8573L140.736 17.8742C140.625 19.4904 140.073 20.7034 139.079 21.5131C138.086 22.311 136.799 22.6556 135.219 22.547ZM135.365 20.428C136.251 20.4889 136.957 20.2788 137.483 19.7977C138.009 19.3166 138.302 18.6451 138.361 17.7832L138.578 14.6226C138.638 13.7606 138.439 13.0554 137.984 12.5069C137.528 11.9584 136.858 11.6537 135.972 11.5928C135.098 11.5328 134.392 11.7429 133.854 12.2231C133.327 12.7042 133.035 13.3757 132.975 14.2376L132.758 17.3982C132.699 18.2601 132.897 18.9654 133.353 19.5139C133.82 20.0632 134.491 20.3679 135.365 20.428Z" fill="#B6519D"/>
<path d="M147.355 23.3808C145.774 23.2722 144.547 22.7549 143.672 21.8288C142.799 20.8907 142.417 19.6135 142.528 17.9973L142.736 14.9804C142.847 13.3642 143.399 12.1572 144.392 11.3594C145.386 10.5497 146.673 10.1991 148.253 10.3076C149.833 10.4162 151.06 10.9396 151.934 11.8777C152.808 12.8038 153.19 14.075 153.079 15.6912L152.872 18.708C152.761 20.3242 152.208 21.5372 151.215 22.347C150.222 23.1448 148.935 23.4894 147.355 23.3808ZM147.5 21.2618C148.386 21.3227 149.092 21.1126 149.618 20.6315C150.145 20.1505 150.437 19.479 150.497 18.617L150.714 15.4564C150.773 14.5945 150.575 13.8892 150.119 13.3407C149.664 12.7922 148.993 12.4875 148.107 12.4267C147.233 12.3666 146.527 12.5767 145.989 13.0569C145.463 13.538 145.17 14.2095 145.111 15.0715L144.894 18.232C144.835 19.094 145.033 19.7992 145.488 20.3477C145.956 20.8971 146.626 21.2018 147.5 21.2618Z" fill="#B6519D"/>
<path d="M159.49 24.2147C157.91 24.1061 156.682 23.5887 155.808 22.6626C154.934 21.7245 154.553 20.4473 154.664 18.8312L154.871 15.8143C154.982 14.1981 155.534 12.9911 156.527 12.1933C157.521 11.3835 158.808 11.0329 160.388 11.1415C161.969 11.2501 163.196 11.7734 164.069 12.7115C164.944 13.6376 165.326 14.9088 165.215 16.525L165.007 19.5419C164.896 21.1581 164.344 22.3711 163.35 23.1808C162.357 23.9786 161.07 24.3232 159.49 24.2147ZM159.636 22.0957C160.522 22.1565 161.228 21.9464 161.754 21.4654C162.28 20.9843 162.573 20.3128 162.632 19.4508L162.849 16.2903C162.908 15.4283 162.71 14.7231 162.255 14.1746C161.799 13.6261 161.129 13.3214 160.243 13.2605C159.369 13.2004 158.663 13.4105 158.125 13.8908C157.598 14.3718 157.306 15.0433 157.246 15.9053L157.029 19.0659C156.97 19.9278 157.168 20.6331 157.624 21.1816C158.091 21.7309 158.762 22.0356 159.636 22.0957Z" fill="#B6519D"/>
<path d="M171.626 25.0485C170.045 24.9399 168.818 24.4226 167.943 23.4964C167.069 22.5583 166.688 21.2812 166.799 19.665L167.006 16.6481C167.118 15.0319 167.67 13.8249 168.663 13.0271C169.656 12.2173 170.944 11.8667 172.524 11.9753C174.104 12.0839 175.331 12.6073 176.205 13.5454C177.079 14.4715 177.461 15.7426 177.35 17.3588L177.143 20.3757C177.032 21.9919 176.479 23.2049 175.485 24.0147C174.492 24.8125 173.206 25.1571 171.626 25.0485ZM171.771 22.9295C172.657 22.9904 173.363 22.7803 173.889 22.2992C174.416 21.8182 174.708 21.1466 174.767 20.2847L174.985 17.1241C175.044 16.2622 174.846 15.5569 174.39 15.0084C173.935 14.4599 173.264 14.1552 172.378 14.0943C171.504 14.0343 170.798 14.2444 170.26 14.7246C169.734 15.2057 169.441 15.8772 169.382 16.7392L169.165 19.8997C169.105 20.7617 169.304 21.4669 169.759 22.0154C170.226 22.5648 170.897 22.8695 171.771 22.9295Z" fill="#B6519D"/>
<path d="M183.761 25.8823C182.181 25.7738 180.953 25.2564 180.079 24.3303C179.205 23.3922 178.824 22.115 178.935 20.4988L179.142 17.482C179.253 15.8658 179.805 14.6588 180.798 13.861C181.792 13.0512 183.079 12.7006 184.659 12.8092C186.24 12.9178 187.467 13.4411 188.34 14.3792C189.215 15.3053 189.597 16.5765 189.486 18.1927L189.278 21.2096C189.167 22.8258 188.615 24.0387 187.621 24.8485C186.628 25.6463 185.341 25.9909 183.761 25.8823ZM183.907 23.7633C184.792 23.8242 185.499 23.6141 186.025 23.1331C186.551 22.652 186.844 21.9805 186.903 21.1185L187.12 17.958C187.179 17.096 186.981 16.3908 186.526 15.8423C186.07 15.2937 185.4 14.989 184.514 14.9282C183.64 14.8681 182.934 15.0782 182.395 15.5585C181.869 16.0395 181.577 16.711 181.517 17.573L181.3 20.7335C181.241 21.5955 181.439 22.3008 181.894 22.8493C182.362 23.3986 183.033 23.7033 183.907 23.7633Z" fill="#B6519D"/>
<path d="M191.93 26.191L191.141 13.5071L193.494 13.6688L193.965 24.671L194.288 24.6932L196.618 13.8835L200.713 14.1648L201.543 25.1917L201.866 25.2139L203.837 14.3795L206.19 14.5412L203.674 26.998L199.58 26.7167L198.731 15.436L198.408 15.4137L196.024 26.4724L191.93 26.191Z" fill="#B6519D"/>
<path d="M207.058 27.2305L207.922 14.6601L212.429 14.9699L214.172 26.0955L214.496 26.1177L215.248 15.1636L217.583 15.324L216.719 27.8943L212.212 27.5846L210.468 16.459L210.145 16.4367L209.392 27.3909L207.058 27.2305Z" fill="#B6519D"/>
<path d="M48.1914 91.5818C54.3617 85.938 61.2723 79.306 65.3818 72.0551C70.454 63.1057 73.4201 52.5113 76.279 42.6877C77.7789 37.5336 78.4997 32.8411 78.9547 27.5889" stroke="#B6519D" stroke-linecap="round" stroke-linejoin="round"/>
</svg>
