<svg width="298" height="39" viewBox="0 0 298 39" fill="none" xmlns="http://www.w3.org/2000/svg">
<path d="M5.66431 35.9497C4.69272 35.9778 3.83005 35.8286 3.07631 35.5023C2.32257 35.1759 1.72643 34.6949 1.28789 34.0593C0.849345 33.4237 0.616904 32.6501 0.590562 31.7385L0.576005 31.2347L2.91503 31.1671L2.92959 31.6709C2.95142 32.4266 3.20179 32.9896 3.68068 33.3599C4.15923 33.7182 4.80034 33.8858 5.604 33.8626C6.41966 33.839 7.02073 33.6596 7.40721 33.3243C7.80568 32.9886 7.99764 32.5689 7.98308 32.0651C7.97303 31.7173 7.86293 31.4383 7.65277 31.2283C7.45461 31.0179 7.16171 30.8523 6.77406 30.7315C6.39805 30.5983 5.93843 30.4795 5.39519 30.3752L4.97876 30.2971C4.10958 30.1302 3.35896 29.9118 2.7269 29.6419C2.10649 29.3597 1.62142 28.9836 1.2717 28.5135C0.933968 28.043 0.754013 27.424 0.73183 26.6563C0.709648 25.8886 0.870683 25.2297 1.21494 24.6795C1.57084 24.117 2.07449 23.6823 2.7259 23.3753C3.38895 23.056 4.17029 22.8834 5.06992 22.8574C5.96954 22.8314 6.77171 22.9643 7.47643 23.2561C8.1928 23.5355 8.75774 23.9754 9.17125 24.5757C9.59642 25.1636 9.82217 25.9134 9.84851 26.825L9.86411 27.3648L7.52508 27.4324L7.50948 26.8926C7.49562 26.4128 7.38857 26.0318 7.18833 25.7494C6.99974 25.4548 6.72961 25.2465 6.37794 25.1246C6.02593 24.9907 5.61002 24.9307 5.13022 24.9445C4.41052 24.9653 3.88073 25.1187 3.54085 25.4046C3.21262 25.6782 3.05526 26.0489 3.06877 26.5167C3.07779 26.8286 3.16338 27.0902 3.32555 27.3016C3.49972 27.5127 3.75082 27.6855 4.07884 27.8201C4.40687 27.9547 4.82433 28.0687 5.33124 28.1621L5.74767 28.2401C6.65284 28.406 7.43962 28.6294 8.10801 28.9102C8.78839 29.1906 9.32161 29.5714 9.70767 30.0525C10.0937 30.5335 10.2978 31.1579 10.32 31.9255C10.3422 32.6932 10.1639 33.3767 9.78502 33.9759C9.41782 34.5627 8.87922 35.0345 8.16922 35.3911C7.47088 35.7354 6.63591 35.9216 5.66431 35.9497Z" fill="#B6519D"/>
<path d="M12.1963 35.5089L11.8324 22.9141L17.0142 22.7644C17.8059 22.7415 18.5063 22.8833 19.1154 23.1899C19.7362 23.4841 20.2228 23.9142 20.5753 24.4802C20.9398 25.0459 21.1334 25.7246 21.1563 26.5163L21.1636 26.7682C21.1861 27.5479 21.026 28.2368 20.6831 28.8349C20.3519 29.4208 19.8851 29.8844 19.2827 30.226C18.692 30.5552 18.0127 30.7309 17.2451 30.753L14.4382 30.8341L14.5713 35.4402L12.1963 35.5089ZM14.3758 28.675L16.9488 28.6007C17.5125 28.5844 17.9638 28.4153 18.3027 28.0934C18.6415 27.7715 18.8032 27.3406 18.7876 26.8008L18.7824 26.6209C18.7668 26.0811 18.5805 25.6603 18.2237 25.3585C17.8668 25.0567 17.4065 24.9139 16.8427 24.9302L14.2698 25.0046L14.3758 28.675Z" fill="#B6519D"/>
<path d="M23.0551 35.1951L22.6911 22.6003L30.7878 22.3664L30.8501 24.5255L25.1285 24.6908L25.2154 27.6956L30.4332 27.5448L30.4956 29.7039L25.2777 29.8547L25.3677 32.9674L31.1973 32.7989L31.2596 34.958L23.0551 35.1951Z" fill="#B6519D"/>
<path d="M32.1541 34.9322L35.1008 22.2418L39.239 22.1222L42.9136 34.6213L40.4666 34.692L39.7028 31.9409L35.2047 32.0709L34.601 34.8615L32.1541 34.9322ZM35.699 29.8597L39.0816 29.7619L37.375 23.6707L37.0511 23.68L35.699 29.8597Z" fill="#B6519D"/>
<path d="M44.4212 34.5777L44.0572 21.983L46.4322 21.9143L46.5768 26.9162L46.9006 26.9069L50.8404 21.787L53.8811 21.6991L48.8067 28.0583L54.425 34.2886L51.2943 34.3791L46.9724 29.3899L46.6485 29.3992L46.7962 34.5091L44.4212 34.5777Z" fill="#B6519D"/>
<path d="M59.9229 34.3819C58.9513 34.41 58.0887 34.2608 57.3349 33.9344C56.5812 33.6081 55.985 33.1271 55.5465 32.4915C55.1079 31.8559 54.8755 31.0823 54.8492 30.1707L54.8346 29.6669L57.1736 29.5993L57.1882 30.1031C57.21 30.8588 57.4604 31.4218 57.9393 31.7921C58.4178 32.1504 59.0589 32.318 59.8626 32.2948C60.6783 32.2712 61.2793 32.0917 61.6658 31.7564C62.0643 31.4208 62.2562 31.0011 62.2417 30.4973C62.2316 30.1494 62.1215 29.8705 61.9114 29.6605C61.7132 29.4501 61.4203 29.2845 61.0327 29.1636C60.6567 29.0305 60.197 28.9117 59.6538 28.8073L59.2374 28.7293C58.3682 28.5624 57.6176 28.3439 56.9855 28.0741C56.3651 27.7919 55.88 27.4157 55.5303 26.9456C55.1926 26.4752 55.0126 25.8561 54.9904 25.0885C54.9683 24.3208 55.1293 23.6619 55.4735 23.1117C55.8294 22.5492 56.3331 22.1144 56.9845 21.8075C57.6476 21.4882 58.4289 21.3156 59.3285 21.2896C60.2281 21.2636 61.0303 21.3965 61.735 21.6882C62.4514 21.9677 63.0163 22.4075 63.4299 23.0078C63.855 23.5958 64.0808 24.3456 64.1071 25.2572L64.1227 25.797L61.7837 25.8646L61.7681 25.3248C61.7542 24.845 61.6472 24.4639 61.4469 24.1816C61.2583 23.8869 60.9882 23.6786 60.6365 23.5567C60.2845 23.4229 59.8686 23.3628 59.3888 23.3767C58.6691 23.3975 58.1393 23.5509 57.7995 23.8368C57.4712 24.1104 57.3139 24.4811 57.3274 24.9489C57.3364 25.2608 57.422 25.5224 57.5842 25.7338C57.7583 25.9449 58.0094 26.1177 58.3374 26.2523C58.6655 26.3869 59.0829 26.5009 59.5898 26.5942L60.0063 26.6723C60.9114 26.8382 61.6982 27.0615 62.3666 27.3424C63.047 27.6228 63.5802 28.0036 63.9663 28.4846C64.3523 28.9657 64.5564 29.59 64.5786 30.3577C64.6008 31.1254 64.4225 31.8088 64.0436 32.408C63.6764 32.9949 63.1378 33.4666 62.4278 33.8233C61.7295 34.1676 60.8945 34.3538 59.9229 34.3819Z" fill="#B6519D"/>
<path d="M71.0233 33.809L70.6594 21.2143L73.0344 21.1457L73.1847 26.3455L77.8627 26.2103L77.7125 21.0105L80.0875 20.9419L80.4514 33.5366L78.0764 33.6052L77.9251 28.3694L73.247 28.5046L73.3983 33.7404L71.0233 33.809Z" fill="#B6519D"/>
<path d="M87.6962 33.5794C86.6646 33.6092 85.7716 33.4489 85.0171 33.0985C84.2744 32.7358 83.695 32.2124 83.2791 31.5281C82.8748 30.8315 82.6588 30.0034 82.631 29.0438L82.395 20.8752L84.77 20.8065L85.0081 29.0471C85.0303 29.8148 85.2637 30.4143 85.7084 30.8456C86.165 31.2766 86.8072 31.4802 87.6348 31.4562C88.4625 31.4323 89.0858 31.1922 89.5048 30.7359C89.9358 30.2793 90.1402 29.6671 90.118 28.8995L89.8799 20.6589L92.2549 20.5903L92.4909 28.7589C92.5187 29.7185 92.3448 30.5578 91.9694 31.277C91.6057 31.9838 91.0575 32.5398 90.3249 32.9452C89.604 33.3382 88.7277 33.5496 87.6962 33.5794Z" fill="#B6519D"/>
<path d="M94.9196 33.1185L94.5557 20.5238L98.9638 20.3964L101.458 31.3089L101.782 31.2996L103.642 20.2612L108.05 20.1339L108.414 32.7286L106.111 32.7952L105.797 21.9457L105.474 21.955L103.628 32.8669L99.7056 32.9802L97.233 22.1932L96.9091 22.2025L97.2226 33.052L94.9196 33.1185Z" fill="#B6519D"/>
<path d="M109.922 32.685L112.869 19.9946L117.007 19.875L120.682 32.3741L118.235 32.4448L117.471 29.6937L112.973 29.8237L112.369 32.6143L109.922 32.685ZM113.467 27.6125L116.85 27.5148L115.143 21.4235L114.819 21.4329L113.467 27.6125Z" fill="#B6519D"/>
<path d="M122.189 32.3306L121.826 19.7358L126.342 19.6053L129.16 30.5085L129.484 30.4991L129.166 19.5237L131.505 19.4561L131.869 32.0508L127.353 32.1813L124.535 21.2782L124.211 21.2876L124.528 32.263L122.189 32.3306Z" fill="#B6519D"/>
<path d="M134.553 34.6204L134.518 33.3969L135.22 33.3766C135.771 33.3607 136.039 33.0768 136.023 32.5251L136.007 31.9493L135.701 31.9581C135.221 31.972 134.815 31.8397 134.483 31.5612C134.163 31.2823 133.996 30.9209 133.983 30.4771C133.97 29.9973 134.114 29.603 134.417 29.2941C134.733 28.9849 135.13 28.8233 135.61 28.8095C136.102 28.7952 136.508 28.9396 136.829 29.2424C137.15 29.5333 137.317 29.9366 137.332 30.4524L137.392 32.5215C137.431 33.865 136.778 34.5561 135.435 34.5949L134.553 34.6204Z" fill="#B6519D"/>
<path d="M143.556 31.7132L143.192 19.1184L145.567 19.0498L145.868 29.4854L151.626 29.3191L151.688 31.4782L143.556 31.7132Z" fill="#B6519D"/>
<path d="M153.307 31.4314L152.943 18.8366L155.318 18.768L155.682 31.3628L153.307 31.4314Z" fill="#B6519D"/>
<path d="M158.051 31.2943L157.688 18.6996L160.063 18.6309L160.207 23.6329L160.531 23.6235L164.471 18.5036L167.511 18.4157L162.437 24.7749L168.055 31.0052L164.925 31.0957L160.603 26.1065L160.279 26.1158L160.426 31.2257L158.051 31.2943Z" fill="#B6519D"/>
<path d="M169.314 30.9689L168.95 18.3741L177.047 18.1402L177.109 20.2993L171.388 20.4646L171.475 23.4693L176.692 23.3186L176.755 25.4777L171.537 25.6284L171.627 28.7411L177.457 28.5727L177.519 30.7318L169.314 30.9689Z" fill="#B6519D"/>
<path d="M186.908 30.4605L186.783 26.1243L182.262 17.9895L184.907 17.913L187.726 23.2338L188.05 23.2245L190.557 17.7498L193.202 17.6734L189.158 26.0557L189.283 30.3919L186.908 30.4605Z" fill="#B6519D"/>
<path d="M199.289 30.3548C197.706 30.4006 196.434 30.0052 195.473 29.1686C194.512 28.32 194.008 27.086 193.962 25.4667L193.874 22.4439C193.828 20.8246 194.259 19.5696 195.17 18.6789C196.08 17.7763 197.327 17.3021 198.911 17.2563C200.494 17.2106 201.766 17.612 202.727 18.4606C203.688 19.2972 204.191 20.5251 204.238 22.1445L204.325 25.1672C204.372 26.7865 203.94 28.0475 203.03 28.9502C202.119 29.8409 200.872 30.3091 199.289 30.3548ZM199.228 28.2317C200.115 28.2061 200.798 27.9283 201.275 27.3983C201.751 26.8683 201.977 26.1714 201.952 25.3078L201.861 22.1411C201.836 21.2775 201.57 20.5949 201.063 20.0933C200.557 19.5917 199.86 19.3538 198.972 19.3794C198.096 19.4047 197.414 19.6825 196.925 20.2129C196.448 20.7429 196.222 21.4397 196.247 22.3033L196.339 25.47C196.364 26.3337 196.63 27.0163 197.136 27.5178C197.655 28.0191 198.352 28.257 199.228 28.2317Z" fill="#B6519D"/>
<path d="M211.412 30.0045C210.381 30.0343 209.488 29.8741 208.733 29.5237C207.99 29.161 207.411 28.6375 206.995 27.9533C206.591 27.2566 206.375 26.4285 206.347 25.4689L206.111 17.3004L208.486 17.2317L208.724 25.4723C208.746 26.24 208.98 26.8395 209.424 27.2708C209.881 27.7018 210.523 27.9053 211.351 27.8814C212.178 27.8575 212.802 27.6174 213.221 27.1611C213.652 26.7045 213.856 26.0923 213.834 25.3246L213.596 17.0841L215.971 17.0154L216.207 25.184C216.235 26.1436 216.061 26.983 215.685 27.7022C215.322 28.409 214.773 28.965 214.041 29.3703C213.32 29.7633 212.444 29.9747 211.412 30.0045Z" fill="#B6519D"/>
<path d="M224.723 29.6199C224.231 29.6341 223.812 29.4902 223.468 29.188C223.134 28.8735 222.96 28.4643 222.946 27.9605C222.931 27.4568 223.082 27.0443 223.396 26.723C223.723 26.3895 224.132 26.2156 224.624 26.2014C225.104 26.1875 225.51 26.3378 225.843 26.6523C226.176 26.9548 226.35 27.358 226.364 27.8618C226.379 28.3656 226.229 28.7841 225.915 29.1173C225.6 29.4385 225.202 29.6061 224.723 29.6199ZM224.549 23.6104C224.057 23.6246 223.639 23.4807 223.294 23.1785C222.961 22.864 222.787 22.4548 222.772 21.9511C222.758 21.4473 222.908 21.0348 223.223 20.7135C223.549 20.38 223.958 20.2061 224.45 20.1919C224.93 20.178 225.336 20.3283 225.67 20.6428C226.003 20.9453 226.176 21.3485 226.191 21.8523C226.205 22.3561 226.055 22.7746 225.741 23.1078C225.426 23.429 225.029 23.5966 224.549 23.6104Z" fill="#B6519D"/>
<path d="M228.203 29.2672L228.143 27.1801L229.798 27.1323L229.555 18.7118L227.9 18.7596L227.839 16.6725L233.021 16.5228C234.712 16.4739 236.008 16.8686 236.909 17.707C237.821 18.533 238.302 19.7916 238.351 21.4829L238.419 23.8579C238.468 25.5492 238.061 26.8395 237.199 27.7288C236.347 28.6057 235.076 29.0686 233.385 29.1175L228.203 29.2672ZM232.171 26.9917L233.359 26.9574C234.318 26.9296 235.013 26.6575 235.442 26.1409C235.871 25.6242 236.073 24.9101 236.046 23.9985L235.974 21.4796C235.947 20.556 235.704 19.8547 235.246 19.3757C234.788 18.8847 234.079 18.6531 233.119 18.6808L231.932 18.7151L232.171 26.9917Z" fill="#B6519D"/>
<path d="M55 2.32008C83.194 2.32008 111.366 2.58136 139.559 2.98013C180.041 3.55273 220.83 4.94033 261.3 2.83345C267.881 2.49082 274.266 1.66004 280.844 1.66004C286.312 1.66004 291.81 1.77508 297.235 1" stroke="#B6519D" stroke-linecap="round" stroke-linejoin="round"/>
</svg>
