<svg width="440" height="330" viewBox="0 0 440 330" fill="none" xmlns="http://www.w3.org/2000/svg">
<g clip-path="url(#clip0)">
<g opacity="0.75">
<mask id="path-1-outside-1" maskUnits="userSpaceOnUse" x="158.18" y="170.285" width="222" height="122" fill="black">
<rect fill="white" x="158.18" y="170.285" width="222" height="122"/>
<path fill-rule="evenodd" clip-rule="evenodd" d="M160.18 174.156C160.18 173.123 161.032 172.285 162.084 172.285H375.314C376.365 172.285 377.217 173.123 377.217 174.156V222.802C377.217 223.836 376.365 224.674 375.314 224.674H193.987C192.882 224.674 191.987 225.569 191.987 226.673V274.126C191.987 275.231 192.882 276.126 193.987 276.126H375.313C376.365 276.126 377.217 276.964 377.217 277.997V288.288C377.217 289.321 376.365 290.159 375.313 290.159H162.084C161.032 290.159 160.18 289.321 160.18 288.288V283.61V277.997V217.19C160.18 217.189 160.18 217.189 160.18 217.189V217.189C160.18 217.189 160.18 217.189 160.18 217.189V174.156Z"/>
</mask>
<path fill-rule="evenodd" clip-rule="evenodd" d="M160.18 174.156C160.18 173.123 161.032 172.285 162.084 172.285H375.314C376.365 172.285 377.217 173.123 377.217 174.156V222.802C377.217 223.836 376.365 224.674 375.314 224.674H193.987C192.882 224.674 191.987 225.569 191.987 226.673V274.126C191.987 275.231 192.882 276.126 193.987 276.126H375.313C376.365 276.126 377.217 276.964 377.217 277.997V288.288C377.217 289.321 376.365 290.159 375.313 290.159H162.084C161.032 290.159 160.18 289.321 160.18 288.288V283.61V277.997V217.19C160.18 217.189 160.18 217.189 160.18 217.189V217.189C160.18 217.189 160.18 217.189 160.18 217.189V174.156Z" fill="white"/>
<path d="M162.084 170.285C159.961 170.285 158.18 171.986 158.18 174.156H162.18C162.18 174.175 162.176 174.198 162.167 174.219C162.158 174.238 162.148 174.251 162.139 174.26C162.122 174.277 162.098 174.285 162.084 174.285V170.285ZM375.314 170.285H162.084V174.285H375.314V170.285ZM379.217 174.156C379.217 171.986 377.437 170.285 375.314 170.285V174.285C375.299 174.285 375.276 174.277 375.258 174.26C375.249 174.251 375.239 174.238 375.231 174.219C375.222 174.198 375.217 174.175 375.217 174.156H379.217ZM379.217 222.802V174.156H375.217V222.802H379.217ZM375.314 226.674C377.437 226.674 379.217 224.973 379.217 222.802H375.217C375.217 222.783 375.222 222.761 375.231 222.74C375.239 222.721 375.249 222.708 375.258 222.699C375.276 222.681 375.299 222.674 375.314 222.674V226.674ZM193.987 226.674H375.314V222.674H193.987V226.674ZM189.987 226.673V274.126H193.987V226.673H189.987ZM375.313 274.126H193.987V278.126H375.313V274.126ZM379.217 277.997C379.217 275.827 377.436 274.126 375.313 274.126V278.126C375.299 278.126 375.276 278.118 375.258 278.101C375.249 278.092 375.239 278.079 375.23 278.06C375.222 278.039 375.217 278.016 375.217 277.997H379.217ZM379.217 288.288V277.997H375.217V288.288H379.217ZM375.313 292.159C377.436 292.159 379.217 290.458 379.217 288.288H375.217C375.217 288.269 375.222 288.246 375.23 288.226C375.239 288.206 375.249 288.193 375.258 288.184C375.276 288.167 375.299 288.159 375.313 288.159V292.159ZM162.084 292.159H375.313V288.159H162.084V292.159ZM158.18 288.288C158.18 290.458 159.96 292.159 162.084 292.159V288.159C162.098 288.159 162.121 288.167 162.139 288.184C162.148 288.193 162.158 288.206 162.166 288.226C162.175 288.246 162.18 288.269 162.18 288.288H158.18ZM158.18 283.61V288.288H162.18V283.61H158.18ZM162.18 283.61V277.997H158.18V283.61H162.18ZM162.18 277.997V217.19H158.18V277.997H162.18ZM158.18 174.156V217.189H162.18V174.156H158.18ZM160.18 219.189C161.271 219.189 162.18 218.307 162.18 217.189H158.18C158.18 216.071 159.089 215.189 160.18 215.189V219.189ZM189.987 274.126C189.987 276.335 191.778 278.126 193.987 278.126V274.126L193.987 274.126H189.987ZM162.18 217.19C162.18 218.293 161.285 219.189 160.18 219.189V215.189C159.074 215.189 158.18 216.086 158.18 217.19H162.18ZM193.987 222.674C191.778 222.674 189.987 224.464 189.987 226.673H193.987L193.987 226.674V222.674Z" fill="white" mask="url(#path-1-outside-1)"/>
<rect x="198.24" y="231.45" width="227.687" height="38.8911" rx="3" fill="white" stroke="white" stroke-width="2"/>
<rect x="206.922" y="178.646" width="164.032" height="39.6145" rx="3" fill="white" stroke="white" stroke-width="2"/>
</g>
<g filter="url(#filter0_d)">
<path fill-rule="evenodd" clip-rule="evenodd" d="M155.891 175.656C155.863 174.623 156.692 173.763 157.743 173.735L370.896 167.997C371.947 167.969 372.822 168.783 372.849 169.816L374.158 218.445C374.186 219.478 373.357 220.338 372.306 220.366L191.045 225.246C189.94 225.275 189.069 226.195 189.099 227.299L190.376 274.735C190.406 275.839 191.325 276.71 192.429 276.68L373.69 271.801C374.742 271.772 375.616 272.587 375.644 273.62L375.921 283.907C375.949 284.94 375.119 285.8 374.068 285.828L160.916 291.566C159.864 291.594 158.99 290.78 158.962 289.747L158.836 285.071C158.836 285.071 158.836 285.071 158.836 285.071V285.071C158.836 285.071 158.836 285.071 158.836 285.071L157.048 218.674C157.048 218.674 157.048 218.674 157.048 218.674V218.674C157.049 218.674 157.049 218.674 157.049 218.674L155.891 175.656Z" fill="#E07233"/>
<path d="M170.427 210.827L169.977 194.129L174.219 194.014L174.669 210.713L170.427 210.827ZM172.046 192.119C171.283 192.139 170.625 191.91 170.073 191.431C169.544 190.951 169.268 190.307 169.246 189.499C169.225 188.691 169.465 188.033 169.968 187.525C170.493 187.017 171.138 186.753 171.901 186.732C172.686 186.711 173.344 186.94 173.873 187.42C174.403 187.9 174.678 188.544 174.7 189.352C174.722 190.16 174.481 190.818 173.978 191.326C173.476 191.833 172.831 192.098 172.046 192.119Z" fill="white"/>
<path d="M182.803 210.494L182.448 197.297L178.206 197.411L178.112 193.91L182.354 193.795L182.27 190.698C182.24 189.553 182.552 188.635 183.207 187.944C183.884 187.229 184.772 186.857 185.872 186.828L190.249 186.71L190.343 190.211L187.448 190.289C186.819 190.306 186.514 190.651 186.532 191.325L186.596 193.681L190.972 193.563L191.067 197.065L186.69 197.182L187.045 210.38L182.803 210.494Z" fill="white"/>
</g>
<rect x="200.828" y="229.344" width="225.457" height="37.4202" rx="2" transform="rotate(0.412169 200.828 229.344)" fill="#009ECE"/>
<g filter="url(#filter1_d)">
<rect x="202.135" y="182.608" width="161.843" height="37.4202" rx="18.7101" transform="rotate(-3.1438 202.135 182.608)" fill="#4E58A7"/>
<path d="M221.59 208.088C220.513 208.147 219.522 207.977 218.616 207.577C217.724 207.176 217.001 206.564 216.446 205.74C215.891 204.916 215.581 203.898 215.514 202.688L215.497 202.374C215.43 201.163 215.628 200.118 216.089 199.238C216.55 198.359 217.202 197.671 218.044 197.175C218.902 196.678 219.868 196.4 220.944 196.341C222.005 196.283 222.927 196.419 223.71 196.751C224.493 197.083 225.134 197.565 225.633 198.197C226.147 198.813 226.501 199.529 226.696 200.342L223.993 201.075C223.908 200.63 223.752 200.234 223.523 199.887C223.294 199.54 222.979 199.272 222.579 199.084C222.194 198.896 221.717 198.817 221.15 198.848C220.582 198.879 220.073 199.035 219.624 199.314C219.188 199.578 218.85 199.964 218.608 200.472C218.38 200.964 218.285 201.561 218.324 202.264L218.336 202.488C218.375 203.19 218.535 203.781 218.816 204.26C219.111 204.724 219.49 205.07 219.952 205.3C220.429 205.513 220.951 205.605 221.519 205.574C222.371 205.527 223.002 205.275 223.411 204.818C223.835 204.345 224.087 203.746 224.167 203.022L226.938 203.522C226.787 204.325 226.491 205.068 226.048 205.752C225.62 206.42 225.036 206.962 224.294 207.377C223.552 207.793 222.651 208.03 221.59 208.088Z" fill="white"/>
<path d="M234.344 207.388C233.238 207.448 232.232 207.279 231.326 206.879C230.419 206.479 229.689 205.867 229.134 205.043C228.579 204.219 228.268 203.209 228.203 202.013L228.183 201.655C228.117 200.459 228.315 199.421 228.777 198.542C229.238 197.662 229.897 196.973 230.754 196.477C231.611 195.98 232.593 195.701 233.699 195.64C234.805 195.58 235.811 195.749 236.718 196.149C237.624 196.549 238.355 197.161 238.91 197.985C239.465 198.809 239.775 199.819 239.841 201.014L239.86 201.373C239.926 202.569 239.728 203.607 239.267 204.486C238.805 205.366 238.146 206.054 237.289 206.551C236.432 207.048 235.45 207.327 234.344 207.388ZM234.206 204.877C235.073 204.829 235.775 204.513 236.313 203.929C236.85 203.33 237.089 202.507 237.032 201.461L237.02 201.237C236.962 200.191 236.634 199.407 236.036 198.885C235.452 198.347 234.719 198.103 233.837 198.151C232.97 198.199 232.268 198.522 231.732 199.121C231.194 199.705 230.954 200.521 231.011 201.567L231.024 201.791C231.081 202.837 231.409 203.629 232.009 204.165C232.607 204.687 233.339 204.924 234.206 204.877Z" fill="white"/>
<path d="M246.816 206.703C245.934 206.751 245.092 206.58 244.292 206.189C243.505 205.783 242.856 205.166 242.346 204.34C241.836 203.513 241.548 202.495 241.481 201.284L241.461 200.925C241.395 199.715 241.57 198.671 241.987 197.794C242.403 196.916 242.981 196.24 243.719 195.765C244.457 195.274 245.274 195.005 246.17 194.955C246.843 194.918 247.408 194.97 247.865 195.11C248.337 195.234 248.721 195.407 249.018 195.631C249.315 195.854 249.546 196.097 249.71 196.357L250.114 196.335L249.792 190.484L252.617 190.329L253.479 206.022L250.699 206.174L250.625 204.829L250.222 204.852C249.991 205.284 249.616 205.687 249.096 206.06C248.592 206.433 247.832 206.647 246.816 206.703ZM247.532 204.19C248.399 204.142 249.109 203.826 249.661 203.241C250.213 202.641 250.459 201.803 250.4 200.727L250.388 200.503C250.329 199.427 249.992 198.628 249.379 198.107C248.78 197.57 248.04 197.326 247.158 197.375C246.291 197.422 245.582 197.746 245.03 198.346C244.477 198.931 244.231 199.761 244.29 200.838L244.302 201.062C244.361 202.138 244.698 202.944 245.312 203.48C245.925 204.001 246.665 204.237 247.532 204.19Z" fill="white"/>
<path d="M256.162 205.874L255.552 194.755L258.376 194.6L258.987 205.719L256.162 205.874ZM256.893 193.377C256.385 193.405 255.942 193.264 255.565 192.955C255.203 192.645 255.008 192.221 254.978 191.683C254.949 191.145 255.097 190.702 255.422 190.355C255.763 190.006 256.187 189.818 256.696 189.79C257.219 189.761 257.661 189.902 258.023 190.212C258.385 190.522 258.58 190.946 258.61 191.484C258.64 192.022 258.492 192.465 258.166 192.812C257.84 193.16 257.416 193.348 256.893 193.377Z" fill="white"/>
<path d="M261.669 205.572L261.058 194.452L263.838 194.3L263.918 195.757L264.322 195.735C264.48 195.336 264.796 194.952 265.27 194.581C265.744 194.195 266.481 193.975 267.482 193.92C268.349 193.872 269.115 194.032 269.78 194.401C270.459 194.753 270.997 195.271 271.394 195.953C271.791 196.621 272.014 197.418 272.065 198.345L272.43 204.981L269.605 205.136L269.253 198.724C269.207 197.887 268.963 197.271 268.522 196.876C268.095 196.479 267.501 196.302 266.739 196.344C265.872 196.392 265.215 196.72 264.769 197.329C264.322 197.923 264.127 198.736 264.183 199.767L264.494 205.417L261.669 205.572Z" fill="white"/>
<path d="M274.194 199.352L274.174 198.994C274.11 197.828 274.287 196.821 274.706 195.974C275.123 195.112 275.701 194.443 276.439 193.967C277.192 193.476 278.024 193.206 278.936 193.156C279.952 193.1 280.731 193.237 281.274 193.567C281.817 193.897 282.219 194.25 282.479 194.625L282.883 194.603L282.809 193.258L285.589 193.105L286.308 206.197C286.35 206.96 286.159 207.577 285.735 208.05C285.312 208.538 284.727 208.803 283.98 208.844L276.537 209.253L276.401 206.787L282.858 206.432C283.276 206.409 283.473 206.173 283.449 205.725L283.29 202.833L282.886 202.855C282.75 203.102 282.554 203.36 282.299 203.629C282.043 203.883 281.696 204.105 281.256 204.294C280.817 204.483 280.254 204.596 279.566 204.634C278.654 204.684 277.798 204.514 276.997 204.123C276.21 203.716 275.563 203.115 275.054 202.318C274.545 201.507 274.258 200.518 274.194 199.352ZM280.238 202.124C281.104 202.076 281.814 201.76 282.367 201.175C282.919 200.59 283.168 199.796 283.113 198.795L283.101 198.571C283.045 197.555 282.711 196.793 282.098 196.287C281.5 195.766 280.76 195.529 279.878 195.577C279.011 195.625 278.302 195.941 277.749 196.526C277.196 197.096 276.947 197.89 277.003 198.906L277.015 199.13C277.07 200.131 277.404 200.893 278.017 201.414C278.631 201.935 279.371 202.171 280.238 202.124Z" fill="white"/>
<path d="M294.127 203.789L293.516 192.67L296.341 192.515L296.951 203.634L294.127 203.789ZM294.857 191.292C294.349 191.32 293.906 191.179 293.529 190.87C293.168 190.56 292.972 190.136 292.942 189.598C292.913 189.06 293.061 188.617 293.387 188.27C293.727 187.921 294.152 187.733 294.66 187.705C295.183 187.676 295.625 187.817 295.987 188.127C296.349 188.437 296.545 188.861 296.574 189.399C296.604 189.937 296.456 190.38 296.13 190.727C295.804 191.075 295.38 191.263 294.857 191.292Z" fill="white"/>
<path d="M304.268 203.547C302.819 203.627 301.613 203.378 300.652 202.801C299.691 202.224 299.081 201.358 298.823 200.203L301.387 199.388C301.52 199.905 301.714 200.307 301.97 200.593C302.241 200.878 302.559 201.077 302.925 201.192C303.305 201.291 303.712 201.329 304.145 201.305C304.803 201.269 305.283 201.13 305.584 200.889C305.885 200.632 306.026 200.332 306.007 199.989C305.988 199.645 305.824 199.392 305.515 199.229C305.206 199.051 304.719 198.92 304.055 198.837L303.421 198.759C302.635 198.652 301.914 198.489 301.258 198.271C300.6 198.037 300.065 197.699 299.651 197.257C299.237 196.815 299.01 196.228 298.969 195.496C298.909 194.39 299.266 193.523 300.041 192.896C300.815 192.254 301.86 191.897 303.175 191.824C304.415 191.756 305.462 191.976 306.314 192.484C307.167 192.992 307.744 193.687 308.048 194.57L305.469 195.521C305.318 194.96 305.05 194.57 304.663 194.351C304.291 194.132 303.836 194.037 303.298 194.066C302.76 194.096 302.354 194.215 302.081 194.425C301.807 194.62 301.679 194.882 301.697 195.211C301.717 195.57 301.881 195.831 302.19 195.993C302.498 196.141 302.908 196.246 303.421 196.308L304.055 196.386C304.9 196.489 305.666 196.649 306.353 196.867C307.053 197.068 307.61 197.39 308.025 197.832C308.453 198.258 308.688 198.859 308.731 199.637C308.795 200.802 308.419 201.73 307.602 202.419C306.799 203.093 305.688 203.469 304.268 203.547Z" fill="white"/>
<path d="M318.023 202.477L317.541 193.689L314.716 193.844L314.588 191.512L317.413 191.357L317.299 189.295C317.257 188.532 317.448 187.915 317.872 187.442C318.31 186.953 318.895 186.689 319.627 186.648L322.542 186.488L322.67 188.82L320.742 188.926C320.323 188.949 320.126 189.184 320.151 189.633L320.237 191.202L323.152 191.042L323.28 193.373L320.365 193.534L320.848 202.322L318.023 202.477Z" fill="white"/>
<path d="M329.748 202.013C328.881 202.06 328.108 201.908 327.429 201.555C326.764 201.187 326.233 200.662 325.836 199.979C325.439 199.296 325.215 198.499 325.165 197.587L324.8 190.951L327.625 190.796L327.977 197.208C328.023 198.045 328.26 198.661 328.686 199.058C329.128 199.453 329.729 199.63 330.492 199.588C331.358 199.541 332.015 199.22 332.462 198.626C332.909 198.016 333.103 197.196 333.047 196.165L332.737 190.516L335.561 190.36L336.172 201.48L333.392 201.633L333.312 200.175L332.909 200.198C332.75 200.581 332.434 200.966 331.96 201.351C331.487 201.737 330.749 201.958 329.748 202.013Z" fill="white"/>
<path d="M338.867 201.332L338.256 190.212L341.036 190.06L341.116 191.517L341.52 191.495C341.678 191.096 341.994 190.712 342.468 190.341C342.942 189.955 343.679 189.735 344.68 189.68C345.547 189.632 346.313 189.792 346.978 190.161C347.657 190.513 348.195 191.031 348.592 191.713C348.989 192.381 349.212 193.178 349.263 194.105L349.628 200.741L346.803 200.896L346.451 194.484C346.405 193.647 346.161 193.031 345.72 192.636C345.293 192.239 344.699 192.062 343.937 192.104C343.07 192.152 342.413 192.48 341.967 193.089C341.52 193.683 341.325 194.496 341.381 195.527L341.692 201.177L338.867 201.332Z" fill="white"/>
</g>
<path d="M213.513 254.01L213.588 243.594L216.192 243.613L216.183 244.747L216.561 244.75C216.746 244.401 217.049 244.102 217.471 243.853C217.893 243.59 218.447 243.461 219.133 243.466C219.875 243.471 220.469 243.622 220.914 243.92C221.36 244.203 221.701 244.576 221.935 245.04L222.313 245.043C222.555 244.596 222.893 244.228 223.329 243.937C223.765 243.646 224.383 243.503 225.18 243.509C225.824 243.514 226.404 243.658 226.92 243.942C227.451 244.211 227.868 244.627 228.172 245.19C228.49 245.738 228.646 246.432 228.64 247.272L228.591 254.118L225.945 254.099L225.992 247.442C225.996 246.868 225.853 246.44 225.561 246.158C225.269 245.862 224.857 245.712 224.325 245.708C223.723 245.704 223.252 245.896 222.914 246.286C222.589 246.662 222.424 247.207 222.419 247.921L222.375 254.073L219.729 254.054L219.777 247.398C219.781 246.824 219.637 246.396 219.345 246.114C219.053 245.817 218.641 245.667 218.109 245.664C217.507 245.659 217.037 245.852 216.698 246.242C216.373 246.617 216.208 247.162 216.203 247.876L216.159 254.029L213.513 254.01ZM234.248 254.452C233.506 254.447 232.842 254.316 232.256 254.06C231.67 253.79 231.204 253.409 230.857 252.916C230.525 252.41 230.361 251.799 230.366 251.086C230.371 250.372 230.544 249.778 230.883 249.304C231.236 248.817 231.715 248.456 232.319 248.222C232.937 247.975 233.637 247.854 234.421 247.859L237.277 247.88L237.282 247.292C237.285 246.802 237.134 246.402 236.828 246.092C236.522 245.767 236.034 245.603 235.362 245.598C234.704 245.593 234.213 245.744 233.888 246.05C233.564 246.341 233.352 246.725 233.25 247.2L230.82 246.364C230.992 245.833 231.261 245.352 231.628 244.92C232.01 244.475 232.509 244.122 233.127 243.86C233.759 243.585 234.523 243.45 235.419 243.456C236.791 243.466 237.873 243.817 238.667 244.509C239.46 245.2 239.851 246.197 239.842 247.499L239.814 251.384C239.811 251.804 240.006 252.016 240.398 252.018L241.238 252.024L241.222 254.208L239.458 254.196C238.94 254.192 238.514 254.063 238.18 253.808C237.846 253.554 237.68 253.217 237.683 252.797L237.683 252.776L237.284 252.773C237.227 252.941 237.1 253.164 236.902 253.442C236.704 253.707 236.394 253.943 235.972 254.15C235.551 254.357 234.976 254.458 234.248 254.452ZM234.726 252.314C235.468 252.319 236.071 252.12 236.536 251.718C237.015 251.301 237.257 250.75 237.262 250.064L237.263 249.854L234.596 249.835C234.106 249.831 233.721 249.933 233.439 250.141C233.158 250.349 233.015 250.642 233.013 251.02C233.01 251.398 233.155 251.707 233.447 251.948C233.739 252.188 234.166 252.31 234.726 252.314ZM242.737 254.219L242.842 239.519L245.488 239.538L245.43 247.665L245.808 247.668L249.279 243.85L252.723 243.874L247.878 248.88L252.816 254.291L249.415 254.267L245.79 250.104L245.412 250.101L245.383 254.238L242.737 254.219ZM258.278 254.624C257.242 254.617 256.327 254.393 255.532 253.954C254.751 253.5 254.139 252.873 253.697 252.071C253.269 251.256 253.059 250.303 253.067 249.211L253.068 248.959C253.076 247.867 253.3 246.924 253.74 246.129C254.18 245.32 254.793 244.701 255.58 244.273C256.367 243.83 257.279 243.613 258.315 243.62C259.337 243.628 260.224 243.865 260.977 244.332C261.73 244.786 262.313 245.42 262.727 246.235C263.141 247.036 263.345 247.968 263.337 249.032L263.331 249.935L255.75 249.881C255.773 250.595 256.035 251.178 256.535 251.63C257.036 252.081 257.651 252.31 258.379 252.315C259.121 252.32 259.668 252.163 260.02 251.844C260.372 251.524 260.641 251.169 260.826 250.778L262.98 251.928C262.782 252.29 262.492 252.687 262.111 253.119C261.744 253.536 261.251 253.897 260.633 254.2C260.015 254.49 259.23 254.631 258.278 254.624ZM255.785 247.907L260.657 247.942C260.605 247.34 260.364 246.855 259.932 246.488C259.515 246.121 258.963 245.935 258.277 245.93C257.563 245.925 256.995 246.103 256.572 246.464C256.15 246.825 255.887 247.306 255.785 247.907ZM276.402 254.754C275.464 254.747 274.744 254.581 274.242 254.256C273.741 253.93 273.372 253.57 273.137 253.177L272.759 253.174L272.75 254.434L270.146 254.415L270.251 239.716L272.897 239.735L272.858 245.215L273.236 245.218C273.392 244.967 273.596 244.731 273.85 244.508C274.118 244.286 274.462 244.107 274.883 243.97C275.318 243.819 275.85 243.746 276.48 243.75C277.32 243.756 278.096 243.972 278.807 244.397C279.518 244.808 280.088 245.414 280.516 246.215C280.944 247.016 281.154 247.984 281.146 249.118L281.144 249.454C281.136 250.588 280.912 251.552 280.472 252.347C280.032 253.142 279.454 253.747 278.737 254.162C278.02 254.563 277.242 254.76 276.402 254.754ZM275.62 252.438C276.432 252.444 277.113 252.19 277.663 251.676C278.213 251.148 278.491 250.38 278.498 249.372L278.5 249.162C278.507 248.154 278.239 247.389 277.697 246.867C277.169 246.331 276.492 246.06 275.666 246.055C274.854 246.049 274.173 246.31 273.623 246.838C273.074 247.352 272.795 248.113 272.788 249.121L272.786 249.331C272.779 250.339 273.047 251.111 273.589 251.647C274.131 252.169 274.808 252.433 275.62 252.438ZM288.071 254.838C287.035 254.83 286.106 254.613 285.283 254.188C284.46 253.762 283.813 253.148 283.343 252.347C282.872 251.545 282.641 250.585 282.649 249.465L282.652 249.129C282.66 248.009 282.905 247.051 283.386 246.257C283.868 245.462 284.523 244.858 285.352 244.444C286.181 244.03 287.114 243.826 288.15 243.834C289.186 243.841 290.115 244.058 290.938 244.484C291.761 244.91 292.408 245.523 292.878 246.325C293.348 247.126 293.579 248.087 293.571 249.207L293.569 249.543C293.561 250.663 293.316 251.62 292.834 252.415C292.353 253.209 291.697 253.813 290.868 254.228C290.039 254.642 289.107 254.845 288.071 254.838ZM288.088 252.486C288.9 252.491 289.574 252.237 290.109 251.723C290.645 251.195 290.917 250.441 290.924 249.461L290.925 249.251C290.932 248.271 290.671 247.52 290.143 246.998C289.629 246.462 288.959 246.192 288.133 246.186C287.321 246.18 286.647 246.441 286.111 246.969C285.576 247.483 285.304 248.231 285.297 249.211L285.296 249.421C285.289 250.4 285.549 251.158 286.077 251.694C286.606 252.216 287.276 252.48 288.088 252.486ZM298.787 254.914C298.045 254.909 297.381 254.778 296.795 254.522C296.209 254.252 295.743 253.87 295.396 253.378C295.064 252.872 294.9 252.261 294.905 251.547C294.91 250.833 295.082 250.24 295.422 249.766C295.775 249.279 296.254 248.918 296.858 248.684C297.475 248.437 298.176 248.316 298.96 248.321L301.816 248.342L301.82 247.754C301.824 247.264 301.673 246.864 301.367 246.553C301.061 246.229 300.573 246.065 299.901 246.06C299.243 246.055 298.751 246.206 298.427 246.511C298.103 246.803 297.89 247.187 297.789 247.662L295.359 246.825C295.531 246.295 295.8 245.814 296.167 245.382C296.548 244.937 297.048 244.583 297.666 244.322C298.298 244.046 299.062 243.912 299.958 243.918C301.33 243.928 302.412 244.279 303.205 244.971C303.998 245.662 304.39 246.659 304.381 247.961L304.353 251.846C304.35 252.266 304.545 252.477 304.937 252.48L305.777 252.486L305.761 254.67L303.997 254.657C303.479 254.654 303.053 254.525 302.719 254.27C302.385 254.016 302.219 253.679 302.222 253.259L302.222 253.238L301.823 253.235C301.766 253.402 301.638 253.626 301.44 253.904C301.243 254.169 300.933 254.405 300.511 254.612C300.09 254.819 299.515 254.919 298.787 254.914ZM299.264 252.776C300.006 252.781 300.61 252.582 301.075 252.18C301.554 251.763 301.796 251.212 301.801 250.526L301.802 250.316L299.135 250.297C298.645 250.293 298.259 250.395 297.978 250.603C297.696 250.811 297.554 251.104 297.552 251.482C297.549 251.86 297.694 252.169 297.986 252.409C298.278 252.65 298.704 252.772 299.264 252.776ZM307.276 254.681L307.35 244.265L309.954 244.284L309.946 245.46L310.324 245.463C310.481 245.044 310.735 244.737 311.086 244.544C311.452 244.351 311.872 244.256 312.348 244.259L313.608 244.268L313.591 246.62L312.29 246.611C311.618 246.606 311.063 246.784 310.627 247.145C310.19 247.492 309.969 248.036 309.964 248.778L309.922 254.7L307.276 254.681ZM319.01 255.059C318.184 255.053 317.409 254.844 316.684 254.433C315.973 254.008 315.403 253.395 314.975 252.594C314.547 251.793 314.336 250.825 314.345 249.691L314.347 249.355C314.355 248.221 314.579 247.257 315.019 246.462C315.458 245.667 316.037 245.069 316.754 244.669C317.471 244.254 318.249 244.049 319.089 244.055C319.719 244.06 320.243 244.14 320.662 244.297C321.095 244.441 321.444 244.625 321.708 244.851C321.973 245.077 322.174 245.316 322.312 245.569L322.69 245.572L322.729 240.091L325.375 240.11L325.27 254.81L322.666 254.791L322.675 253.531L322.297 253.528C322.057 253.919 321.683 254.273 321.177 254.591C320.684 254.91 319.962 255.066 319.01 255.059ZM319.825 252.755C320.637 252.761 321.318 252.506 321.867 251.992C322.417 251.464 322.696 250.696 322.703 249.688L322.704 249.478C322.712 248.47 322.444 247.705 321.902 247.183C321.374 246.648 320.696 246.377 319.87 246.371C319.058 246.365 318.378 246.626 317.828 247.154C317.278 247.668 317 248.429 316.992 249.437L316.991 249.647C316.984 250.655 317.251 251.427 317.793 251.963C318.336 252.485 319.013 252.749 319.825 252.755ZM327.784 254.828L327.858 244.412L330.504 244.431L330.43 254.847L327.784 254.828ZM329.19 243.203C328.714 243.2 328.309 243.043 327.975 242.733C327.656 242.422 327.497 242.015 327.501 241.511C327.505 241.007 327.669 240.603 327.993 240.297C328.331 239.991 328.738 239.84 329.214 239.844C329.704 239.847 330.109 240.004 330.429 240.314C330.748 240.625 330.907 241.032 330.903 241.536C330.899 242.04 330.735 242.445 330.411 242.75C330.087 243.056 329.68 243.207 329.19 243.203ZM337.686 255.193C336.65 255.185 335.734 254.962 334.939 254.522C334.158 254.068 333.547 253.441 333.105 252.64C332.676 251.825 332.466 250.871 332.474 249.779L332.476 249.527C332.484 248.435 332.707 247.492 333.147 246.697C333.587 245.888 334.2 245.269 334.988 244.841C335.775 244.399 336.686 244.181 337.722 244.189C338.744 244.196 339.632 244.433 340.384 244.901C341.137 245.354 341.72 245.988 342.135 246.803C342.549 247.604 342.752 248.537 342.745 249.601L342.738 250.504L335.157 250.449C335.18 251.164 335.442 251.746 335.943 252.198C336.444 252.65 337.058 252.878 337.786 252.883C338.528 252.889 339.075 252.731 339.427 252.412C339.78 252.092 340.048 251.737 340.233 251.347L342.388 252.496C342.189 252.859 341.899 253.256 341.518 253.687C341.151 254.104 340.659 254.465 340.041 254.768C339.423 255.058 338.637 255.199 337.686 255.193ZM335.193 248.476L340.064 248.51C340.013 247.908 339.771 247.423 339.34 247.056C338.922 246.689 338.371 246.503 337.685 246.498C336.971 246.493 336.402 246.671 335.98 247.032C335.557 247.393 335.295 247.874 335.193 248.476ZM353.877 255.308C352.519 255.299 351.408 254.997 350.545 254.403C349.681 253.808 349.162 252.965 348.988 251.871L351.428 251.259C351.523 251.749 351.681 252.136 351.903 252.417C352.139 252.699 352.424 252.904 352.76 253.032C353.109 253.147 353.486 253.206 353.892 253.208C354.508 253.213 354.964 253.111 355.259 252.903C355.555 252.681 355.704 252.409 355.706 252.087C355.709 251.765 355.57 251.519 355.292 251.349C355.013 251.165 354.566 251.015 353.951 250.899L353.364 250.79C352.637 250.644 351.973 250.451 351.373 250.208C350.772 249.952 350.292 249.606 349.931 249.169C349.57 248.732 349.392 248.171 349.397 247.485C349.405 246.449 349.788 245.661 350.548 245.12C351.308 244.566 352.304 244.293 353.536 244.302C354.698 244.31 355.662 244.576 356.428 245.099C357.195 245.623 357.694 246.306 357.926 247.147L355.463 247.886C355.355 247.353 355.127 246.973 354.779 246.747C354.444 246.52 354.025 246.405 353.521 246.402C353.017 246.398 352.631 246.486 352.364 246.666C352.097 246.832 351.962 247.07 351.96 247.378C351.958 247.713 352.096 247.966 352.375 248.136C352.653 248.292 353.031 248.414 353.506 248.502L354.093 248.611C354.876 248.756 355.582 248.95 356.21 249.193C356.852 249.422 357.354 249.754 357.715 250.191C358.09 250.613 358.275 251.189 358.27 251.917C358.262 253.009 357.857 253.853 357.054 254.449C356.266 255.032 355.207 255.318 353.877 255.308ZM360.146 255.059L360.22 244.644L362.824 244.662L362.816 245.796L363.194 245.799C363.379 245.45 363.682 245.151 364.104 244.902C364.526 244.639 365.08 244.51 365.765 244.515C366.507 244.521 367.101 244.672 367.547 244.969C367.993 245.252 368.334 245.626 368.568 246.089L368.946 246.092C369.187 245.646 369.526 245.277 369.962 244.986C370.398 244.695 371.015 244.553 371.813 244.559C372.457 244.563 373.037 244.707 373.553 244.991C374.083 245.261 374.5 245.677 374.804 246.239C375.122 246.787 375.279 247.481 375.272 248.321L375.224 255.167L372.578 255.148L372.625 248.491C372.629 247.917 372.485 247.489 372.193 247.207C371.901 246.911 371.49 246.761 370.958 246.757C370.356 246.753 369.885 246.946 369.546 247.335C369.222 247.711 369.057 248.256 369.052 248.97L369.008 255.123L366.362 255.104L366.409 248.447C366.413 247.873 366.27 247.445 365.978 247.163C365.686 246.867 365.274 246.717 364.742 246.713C364.14 246.709 363.669 246.901 363.331 247.291C363.006 247.667 362.841 248.211 362.836 248.925L362.792 255.078L360.146 255.059ZM377.649 255.185L377.724 244.769L380.37 244.788L380.295 255.203L377.649 255.185ZM379.055 243.56C378.579 243.557 378.175 243.4 377.841 243.09C377.521 242.779 377.363 242.372 377.367 241.868C377.37 241.364 377.534 240.959 377.858 240.654C378.196 240.348 378.604 240.197 379.08 240.2C379.57 240.204 379.974 240.361 380.294 240.671C380.614 240.981 380.772 241.389 380.768 241.893C380.765 242.397 380.601 242.801 380.277 243.107C379.953 243.413 379.545 243.564 379.055 243.56ZM382.807 255.221L382.912 240.522L385.558 240.541L385.453 255.24L382.807 255.221ZM392.709 255.586C391.673 255.579 390.758 255.355 389.963 254.916C389.182 254.462 388.57 253.835 388.128 253.033C387.7 252.218 387.49 251.265 387.498 250.173L387.499 249.921C387.507 248.829 387.731 247.885 388.171 247.091C388.611 246.282 389.224 245.663 390.011 245.235C390.798 244.792 391.71 244.575 392.746 244.582C393.768 244.59 394.655 244.827 395.408 245.294C396.161 245.748 396.744 246.382 397.158 247.197C397.572 247.998 397.776 248.93 397.768 249.994L397.762 250.897L390.181 250.843C390.204 251.557 390.466 252.14 390.966 252.592C391.467 253.043 392.082 253.272 392.81 253.277C393.552 253.282 394.099 253.125 394.451 252.806C394.803 252.486 395.072 252.131 395.257 251.74L397.411 252.89C397.213 253.252 396.923 253.649 396.542 254.081C396.175 254.498 395.682 254.859 395.064 255.162C394.446 255.452 393.661 255.593 392.709 255.586ZM390.216 248.869L395.088 248.904C395.036 248.302 394.795 247.817 394.363 247.45C393.946 247.083 393.394 246.897 392.708 246.892C391.994 246.887 391.426 247.065 391.003 247.426C390.581 247.787 390.318 248.268 390.216 248.869ZM406.255 255.683C405.681 255.679 405.199 255.494 404.81 255.127C404.434 254.746 404.249 254.262 404.253 253.674C404.257 253.086 404.45 252.611 404.83 252.25C405.225 251.875 405.709 251.689 406.283 251.693C406.843 251.697 407.311 251.89 407.686 252.27C408.062 252.637 408.247 253.114 408.243 253.702C408.239 254.29 408.046 254.772 407.666 255.147C407.285 255.509 406.815 255.687 406.255 255.683ZM406.305 248.669C405.731 248.665 405.249 248.48 404.86 248.113C404.485 247.732 404.299 247.248 404.303 246.66C404.308 246.072 404.5 245.597 404.881 245.236C405.275 244.861 405.76 244.675 406.334 244.68C406.894 244.684 407.361 244.876 407.736 245.257C408.112 245.623 408.297 246.101 408.293 246.689C408.289 247.277 408.097 247.758 407.716 248.134C407.335 248.495 406.865 248.673 406.305 248.669ZM408.905 260.574L408.921 258.306C410.461 258.317 411.612 257.885 412.374 257.008C413.137 256.145 413.524 254.783 413.538 252.921L413.578 247.251C413.592 245.389 413.223 244.022 412.474 243.148C411.724 242.261 410.579 241.812 409.039 241.801L409.055 239.533C410.623 239.544 411.93 239.826 412.976 240.38C414.036 240.934 414.828 241.772 415.352 242.896C415.89 244.02 416.153 245.45 416.141 247.186L416.099 253.024C416.087 254.76 415.803 256.186 415.249 257.302C414.709 258.418 413.905 259.245 412.838 259.783C411.784 260.322 410.473 260.586 408.905 260.574Z" fill="white"/>
<path d="M141.162 -13.3255C141.109 -7.60175 147.009 13.2126 130.758 51.5741C116.333 85.6262 89.2177 87.6658 81.9354 116.327C75.6196 137.488 81.9795 154.64 81.1454 169.276" stroke="#616161" stroke-width="6"/>
<path d="M74.0249 174.814C74.2236 170.953 77.5146 167.984 81.3755 168.183V168.183C85.2364 168.382 88.2051 171.673 88.0064 175.534L87.081 193.51L73.0995 192.79L74.0249 174.814Z" fill="#BDBDBD"/>
<g filter="url(#filter2_d)">
<rect x="20.1699" y="190.065" width="120" height="120" rx="2" transform="rotate(2.94697 20.1699 190.065)" fill="#2C2C2C"/>
<rect x="20.1699" y="190.065" width="120" height="120" rx="2" transform="rotate(2.94697 20.1699 190.065)" fill="url(#paint0_radial)" fill-opacity="0.5" style="mix-blend-mode:soft-light"/>
</g>
<g filter="url(#filter3_d)">
<path d="M72.0275 174.711C72.2831 169.747 76.5143 165.93 81.4783 166.185V166.185C86.4423 166.441 90.2593 170.672 90.0037 175.636L89.2326 190.616L71.2564 189.691L72.0275 174.711Z" fill="#3C3C3C"/>
<path d="M72.0275 174.711C72.2831 169.747 76.5143 165.93 81.4783 166.185V166.185C86.4423 166.441 90.2593 170.672 90.0037 175.636L89.2326 190.616L71.2564 189.691L72.0275 174.711Z" fill="url(#paint1_linear)"/>
</g>
<rect x="33.4316" y="204.767" width="12" height="12" transform="rotate(2.94697 33.4316 204.767)" fill="#444444"/>
<rect x="53.4043" y="205.795" width="12" height="12" transform="rotate(2.94697 53.4043 205.795)" fill="#444444"/>
<rect x="73.377" y="206.822" width="12" height="12" transform="rotate(2.94697 73.377 206.822)" fill="#444444"/>
<rect x="93.3516" y="207.851" width="12" height="12" transform="rotate(2.94697 93.3516 207.851)" fill="#444444"/>
<rect x="113.324" y="208.879" width="12" height="12" transform="rotate(2.94697 113.324 208.879)" fill="#444444"/>
<rect x="32.4023" y="224.74" width="12" height="12" transform="rotate(2.94697 32.4023 224.74)" fill="#444444"/>
<g filter="url(#filter4_d)">
<rect x="52.377" y="225.768" width="12" height="12" transform="rotate(2.94697 52.377 225.768)" fill="#25D366"/>
</g>
<rect x="72.3496" y="226.796" width="12" height="12" transform="rotate(2.94697 72.3496 226.796)" fill="#444444"/>
<g filter="url(#filter5_d)">
<rect x="92.3223" y="227.824" width="12" height="12" transform="rotate(2.94697 92.3223 227.824)" fill="#25D366"/>
</g>
<rect x="112.297" y="228.853" width="12" height="12" transform="rotate(2.94697 112.297 228.853)" fill="#444444"/>
<rect x="31.375" y="244.713" width="12" height="12" transform="rotate(2.94697 31.375 244.713)" fill="#444444"/>
<rect x="51.3477" y="245.741" width="12" height="12" transform="rotate(2.94697 51.3477 245.741)" fill="#444444"/>
<rect x="71.3223" y="246.77" width="12" height="12" transform="rotate(2.94697 71.3223 246.77)" fill="#444444"/>
<rect x="91.2949" y="247.798" width="12" height="12" transform="rotate(2.94697 91.2949 247.798)" fill="#444444"/>
<rect x="111.268" y="248.826" width="12" height="12" transform="rotate(2.94697 111.268 248.826)" fill="#444444"/>
<g filter="url(#filter6_d)">
<rect x="30.3457" y="264.687" width="12" height="12" transform="rotate(2.94697 30.3457 264.687)" fill="#25D366"/>
</g>
<rect x="50.3203" y="265.715" width="12" height="12" transform="rotate(2.94697 50.3203 265.715)" fill="#444444"/>
<rect x="70.293" y="266.743" width="12" height="12" transform="rotate(2.94697 70.293 266.743)" fill="#444444"/>
<rect x="90.2676" y="267.771" width="12" height="12" transform="rotate(2.94697 90.2676 267.771)" fill="#444444"/>
<g filter="url(#filter7_d)">
<rect x="110.24" y="268.8" width="12" height="12" transform="rotate(2.94697 110.24 268.8)" fill="#25D366"/>
</g>
<rect x="29.3184" y="284.66" width="12" height="12" transform="rotate(2.94697 29.3184 284.66)" fill="#444444"/>
<g filter="url(#filter8_d)">
<rect x="49.291" y="285.688" width="12" height="12" transform="rotate(2.94697 49.291 285.688)" fill="#25D366"/>
</g>
<g filter="url(#filter9_d)">
<rect x="69.2656" y="286.717" width="12" height="12" transform="rotate(2.94697 69.2656 286.717)" fill="#25D366"/>
</g>
<g filter="url(#filter10_d)">
<rect x="89.2383" y="287.745" width="12" height="12" transform="rotate(2.94697 89.2383 287.745)" fill="#25D366"/>
</g>
<rect x="109.213" y="288.773" width="12" height="12" transform="rotate(2.94697 109.213 288.773)" fill="#444444"/>
</g>
<defs>
<filter id="filter0_d" x="150.84" y="162.945" width="230.131" height="133.672" filterUnits="userSpaceOnUse" color-interpolation-filters="sRGB">
<feFlood flood-opacity="0" result="BackgroundImageFix"/>
<feColorMatrix in="SourceAlpha" type="matrix" values="0 0 0 0 0 0 0 0 0 0 0 0 0 0 0 0 0 0 127 0"/>
<feOffset/>
<feGaussianBlur stdDeviation="2.5"/>
<feColorMatrix type="matrix" values="0 0 0 0 0 0 0 0 0 0 0 0 0 0 0 0 0 0 0.25 0"/>
<feBlend mode="normal" in2="BackgroundImageFix" result="effect1_dropShadow"/>
<feBlend mode="normal" in="SourceGraphic" in2="effect1_dropShadow" result="shape"/>
</filter>
<filter id="filter1_d" x="197.135" y="168.732" width="173.651" height="56.2397" filterUnits="userSpaceOnUse" color-interpolation-filters="sRGB">
<feFlood flood-opacity="0" result="BackgroundImageFix"/>
<feColorMatrix in="SourceAlpha" type="matrix" values="0 0 0 0 0 0 0 0 0 0 0 0 0 0 0 0 0 0 127 0"/>
<feOffset/>
<feGaussianBlur stdDeviation="2.5"/>
<feColorMatrix type="matrix" values="0 0 0 0 0 0 0 0 0 0 0 0 0 0 0 0 0 0 0.25 0"/>
<feBlend mode="normal" in2="BackgroundImageFix" result="effect1_dropShadow"/>
<feBlend mode="normal" in="SourceGraphic" in2="effect1_dropShadow" result="shape"/>
</filter>
<filter id="filter2_d" x="6" y="182.065" width="142.011" height="142.011" filterUnits="userSpaceOnUse" color-interpolation-filters="sRGB">
<feFlood flood-opacity="0" result="BackgroundImageFix"/>
<feColorMatrix in="SourceAlpha" type="matrix" values="0 0 0 0 0 0 0 0 0 0 0 0 0 0 0 0 0 0 127 0"/>
<feOffset/>
<feGaussianBlur stdDeviation="4"/>
<feColorMatrix type="matrix" values="0 0 0 0 0.172549 0 0 0 0 0.172549 0 0 0 0 0.172549 0 0 0 0.5 0"/>
<feBlend mode="normal" in2="BackgroundImageFix" result="effect1_dropShadow"/>
<feBlend mode="normal" in="SourceGraphic" in2="effect1_dropShadow" result="shape"/>
</filter>
<filter id="filter3_d" x="63.2559" y="157.723" width="35.2101" height="40.8937" filterUnits="userSpaceOnUse" color-interpolation-filters="sRGB">
<feFlood flood-opacity="0" result="BackgroundImageFix"/>
<feColorMatrix in="SourceAlpha" type="matrix" values="0 0 0 0 0 0 0 0 0 0 0 0 0 0 0 0 0 0 127 0"/>
<feOffset/>
<feGaussianBlur stdDeviation="4"/>
<feColorMatrix type="matrix" values="0 0 0 0 0.172549 0 0 0 0 0.172549 0 0 0 0 0.172549 0 0 0 0.5 0"/>
<feBlend mode="normal" in2="BackgroundImageFix" result="effect1_dropShadow"/>
<feBlend mode="normal" in="SourceGraphic" in2="effect1_dropShadow" result="shape"/>
</filter>
<filter id="filter4_d" x="47.7598" y="221.768" width="20.6011" height="20.6011" filterUnits="userSpaceOnUse" color-interpolation-filters="sRGB">
<feFlood flood-opacity="0" result="BackgroundImageFix"/>
<feColorMatrix in="SourceAlpha" type="matrix" values="0 0 0 0 0 0 0 0 0 0 0 0 0 0 0 0 0 0 127 0"/>
<feOffset/>
<feGaussianBlur stdDeviation="2"/>
<feColorMatrix type="matrix" values="0 0 0 0 0.486889 0 0 0 0 0.8375 0 0 0 0 0.436198 0 0 0 1 0"/>
<feBlend mode="normal" in2="BackgroundImageFix" result="effect1_dropShadow"/>
<feBlend mode="normal" in="SourceGraphic" in2="effect1_dropShadow" result="shape"/>
</filter>
<filter id="filter5_d" x="87.7051" y="223.824" width="20.6011" height="20.6011" filterUnits="userSpaceOnUse" color-interpolation-filters="sRGB">
<feFlood flood-opacity="0" result="BackgroundImageFix"/>
<feColorMatrix in="SourceAlpha" type="matrix" values="0 0 0 0 0 0 0 0 0 0 0 0 0 0 0 0 0 0 127 0"/>
<feOffset/>
<feGaussianBlur stdDeviation="2"/>
<feColorMatrix type="matrix" values="0 0 0 0 0.486889 0 0 0 0 0.8375 0 0 0 0 0.436198 0 0 0 1 0"/>
<feBlend mode="normal" in2="BackgroundImageFix" result="effect1_dropShadow"/>
<feBlend mode="normal" in="SourceGraphic" in2="effect1_dropShadow" result="shape"/>
</filter>
<filter id="filter6_d" x="25.7285" y="260.687" width="20.6011" height="20.6011" filterUnits="userSpaceOnUse" color-interpolation-filters="sRGB">
<feFlood flood-opacity="0" result="BackgroundImageFix"/>
<feColorMatrix in="SourceAlpha" type="matrix" values="0 0 0 0 0 0 0 0 0 0 0 0 0 0 0 0 0 0 127 0"/>
<feOffset/>
<feGaussianBlur stdDeviation="2"/>
<feColorMatrix type="matrix" values="0 0 0 0 0.486889 0 0 0 0 0.8375 0 0 0 0 0.436198 0 0 0 1 0"/>
<feBlend mode="normal" in2="BackgroundImageFix" result="effect1_dropShadow"/>
<feBlend mode="normal" in="SourceGraphic" in2="effect1_dropShadow" result="shape"/>
</filter>
<filter id="filter7_d" x="105.623" y="264.8" width="20.6011" height="20.6011" filterUnits="userSpaceOnUse" color-interpolation-filters="sRGB">
<feFlood flood-opacity="0" result="BackgroundImageFix"/>
<feColorMatrix in="SourceAlpha" type="matrix" values="0 0 0 0 0 0 0 0 0 0 0 0 0 0 0 0 0 0 127 0"/>
<feOffset/>
<feGaussianBlur stdDeviation="2"/>
<feColorMatrix type="matrix" values="0 0 0 0 0.486889 0 0 0 0 0.8375 0 0 0 0 0.436198 0 0 0 1 0"/>
<feBlend mode="normal" in2="BackgroundImageFix" result="effect1_dropShadow"/>
<feBlend mode="normal" in="SourceGraphic" in2="effect1_dropShadow" result="shape"/>
</filter>
<filter id="filter8_d" x="44.6738" y="281.688" width="20.6011" height="20.6011" filterUnits="userSpaceOnUse" color-interpolation-filters="sRGB">
<feFlood flood-opacity="0" result="BackgroundImageFix"/>
<feColorMatrix in="SourceAlpha" type="matrix" values="0 0 0 0 0 0 0 0 0 0 0 0 0 0 0 0 0 0 127 0"/>
<feOffset/>
<feGaussianBlur stdDeviation="2"/>
<feColorMatrix type="matrix" values="0 0 0 0 0.486889 0 0 0 0 0.8375 0 0 0 0 0.436198 0 0 0 1 0"/>
<feBlend mode="normal" in2="BackgroundImageFix" result="effect1_dropShadow"/>
<feBlend mode="normal" in="SourceGraphic" in2="effect1_dropShadow" result="shape"/>
</filter>
<filter id="filter9_d" x="64.6484" y="282.717" width="20.6011" height="20.6011" filterUnits="userSpaceOnUse" color-interpolation-filters="sRGB">
<feFlood flood-opacity="0" result="BackgroundImageFix"/>
<feColorMatrix in="SourceAlpha" type="matrix" values="0 0 0 0 0 0 0 0 0 0 0 0 0 0 0 0 0 0 127 0"/>
<feOffset/>
<feGaussianBlur stdDeviation="2"/>
<feColorMatrix type="matrix" values="0 0 0 0 0.486889 0 0 0 0 0.8375 0 0 0 0 0.436198 0 0 0 1 0"/>
<feBlend mode="normal" in2="BackgroundImageFix" result="effect1_dropShadow"/>
<feBlend mode="normal" in="SourceGraphic" in2="effect1_dropShadow" result="shape"/>
</filter>
<filter id="filter10_d" x="84.6211" y="283.745" width="20.6011" height="20.6011" filterUnits="userSpaceOnUse" color-interpolation-filters="sRGB">
<feFlood flood-opacity="0" result="BackgroundImageFix"/>
<feColorMatrix in="SourceAlpha" type="matrix" values="0 0 0 0 0 0 0 0 0 0 0 0 0 0 0 0 0 0 127 0"/>
<feOffset/>
<feGaussianBlur stdDeviation="2"/>
<feColorMatrix type="matrix" values="0 0 0 0 0.486889 0 0 0 0 0.8375 0 0 0 0 0.436198 0 0 0 1 0"/>
<feBlend mode="normal" in2="BackgroundImageFix" result="effect1_dropShadow"/>
<feBlend mode="normal" in="SourceGraphic" in2="effect1_dropShadow" result="shape"/>
</filter>
<radialGradient id="paint0_radial" cx="0" cy="0" r="1" gradientUnits="userSpaceOnUse" gradientTransform="translate(80.1699 250.065) rotate(90) scale(60)">
<stop stop-color="white" stop-opacity="0"/>
<stop offset="1"/>
</radialGradient>
<linearGradient id="paint1_linear" x1="71.8733" y1="177.707" x2="89.8495" y2="178.632" gradientUnits="userSpaceOnUse">
<stop stop-color="#2C2C2C"/>
<stop offset="0.5035" stop-color="#525252"/>
<stop offset="1" stop-color="#2C2C2C"/>
</linearGradient>
<clipPath id="clip0">
<rect width="440" height="330" fill="white"/>
</clipPath>
</defs>
</svg>
