<svg width="299" height="71" viewBox="0 0 299 71" fill="none" xmlns="http://www.w3.org/2000/svg">
<text transform="translate(0 6.87402) rotate(-1.65512)" fill="#B6519D" xml:space="preserve" style="white-space: pre" font-family="Space Grotesk" font-size="18" font-weight="bold" letter-spacing="0em"><tspan x="0" y="38.228">SPEAKS YOUR LANGUAGE</tspan></text>
<path fill-rule="evenodd" clip-rule="evenodd" d="M298.73 9.92935C298.77 10.2027 298.58 10.456 298.306 10.495C293.463 11.1869 288.563 11.175 283.72 11.1632C283.094 11.1616 282.469 11.1601 281.844 11.1601C277.736 11.1601 273.73 11.4835 269.681 11.8104C267.255 12.0062 264.814 12.2033 262.326 12.3328C229.459 14.0439 196.379 13.4514 163.444 12.8615C155.804 12.7246 148.172 12.5879 140.552 12.4801C112.361 12.0814 84.191 11.8201 56 11.8201C55.7239 11.8201 55.5 11.5963 55.5 11.3201C55.5 11.044 55.7239 10.8201 56 10.8201C84.1971 10.8201 112.372 11.0815 140.566 11.4802C148.194 11.5881 155.833 11.7249 163.476 11.8618C196.409 12.4516 229.445 13.0433 262.274 11.3342C264.699 11.2079 267.115 11.0133 269.533 10.8185C273.618 10.4894 277.706 10.1601 281.844 10.1601C282.471 10.1601 283.098 10.1616 283.723 10.1631C288.574 10.1746 293.398 10.186 298.165 9.50509C298.438 9.46604 298.691 9.65599 298.73 9.92935Z" fill="#B6519D"/>
</svg>
