<svg width="186" height="109" viewBox="0 0 186 109" fill="none" xmlns="http://www.w3.org/2000/svg">
<text transform="translate(0 6.27539) rotate(-1.65512)" fill="#B6519D" xml:space="preserve" style="white-space: pre" font-family="Space Grotesk" font-size="18" font-weight="bold" letter-spacing="0em"><tspan x="0" y="17.728">DO A LOT WITH A FEW &#10;</tspan><tspan x="0" y="40.728">SIMPLE COMMANDS</tspan></text>
<path fill-rule="evenodd" clip-rule="evenodd" d="M56.9226 57.5061C57.1954 57.4633 57.4513 57.6498 57.494 57.9226C57.9473 60.8134 58.3496 63.7585 58.7557 66.7313C59.3881 71.3603 60.0296 76.0566 60.8869 80.7195C62.2911 88.3564 64.2618 95.8179 67.6773 102.535C68.0204 103.21 68.3853 103.844 68.7547 104.486C68.8727 104.691 68.9912 104.897 69.1096 105.106C69.5943 105.958 70.0698 106.839 70.4636 107.813C70.5671 108.069 70.4435 108.36 70.1875 108.464C69.9315 108.567 69.6401 108.444 69.5365 108.188C69.1682 107.277 68.7192 106.442 68.2402 105.6C68.1275 105.401 68.0127 105.202 67.8969 105.001C67.5246 104.354 67.1419 103.689 66.7859 102.989C63.3078 96.1479 61.3153 88.5794 59.9034 80.9003C59.0438 76.2248 58.3947 71.476 57.7587 66.8227C57.3529 63.8542 56.9525 60.9246 56.5061 58.0775C56.4633 57.8047 56.6498 57.5489 56.9226 57.5061Z" fill="#B6519D"/>
</svg>
