<svg width="207" height="98" viewBox="0 0 207 98" fill="none" xmlns="http://www.w3.org/2000/svg">
<text transform="translate(1.57617) rotate(3.93068)" fill="#B6519D" xml:space="preserve" style="white-space: pre" font-family="Space Grotesk" font-size="18" font-weight="bold" letter-spacing="0em"><tspan x="0" y="17.728">FROM IDEA TO REALITY</tspan></text>
<text transform="translate(115.576 31) rotate(3.93068)" fill="#B6519D" xml:space="preserve" style="white-space: pre" font-family="Space Grotesk" font-size="18" font-weight="bold" letter-spacing="0em"><tspan x="0" y="17.728">IN NO TIME</tspan></text>
<path fill-rule="evenodd" clip-rule="evenodd" d="M79.999 32.0909C80.2741 32.1147 80.4778 32.3571 80.454 32.6322C79.9971 37.9065 79.2719 42.6331 77.7602 47.8276C77.635 48.2578 77.5096 48.6896 77.3837 49.1229C74.6406 58.5662 71.7008 68.6864 66.818 77.3018C62.6642 84.6309 55.6953 91.3117 49.53 96.9509C49.3263 97.1373 49.01 97.1232 48.8236 96.9194C48.6373 96.7157 48.6514 96.3994 48.8551 96.213C55.0304 90.5646 61.8828 83.9814 65.948 76.8088C70.7714 68.2983 73.6818 58.2807 76.4343 48.8063C76.5565 48.3858 76.6784 47.9663 76.8001 47.5481C78.2883 42.4343 79.0046 37.7761 79.4577 32.5459C79.4815 32.2708 79.7239 32.0671 79.999 32.0909Z" fill="#B6519D"/>
</svg>
