<svg width="252" height="136" viewBox="0 0 252 136" fill="none" xmlns="http://www.w3.org/2000/svg">
<path d="M67.5573 42V19.6H75.3973L79.2693 39.12H79.8453L83.7173 19.6H91.5573V42H87.4613V22.704H86.8853L83.0453 42H76.0693L72.2293 22.704H71.6533V42H67.5573Z" fill="#2C2C2C"/>
<path d="M94.9441 42V26.128H98.9761V42H94.9441ZM96.9601 24.272C96.2347 24.272 95.6161 24.0373 95.1041 23.568C94.6134 23.0986 94.3681 22.48 94.3681 21.712C94.3681 20.944 94.6134 20.3253 95.1041 19.856C95.6161 19.3866 96.2347 19.152 96.9601 19.152C97.7067 19.152 98.3254 19.3866 98.8161 19.856C99.3067 20.3253 99.5521 20.944 99.5521 21.712C99.5521 22.48 99.3067 23.0986 98.8161 23.568C98.3254 24.0373 97.7067 24.272 96.9601 24.272Z" fill="#2C2C2C"/>
<path d="M109.94 42.448C108.404 42.448 107.007 42.128 105.748 41.488C104.511 40.848 103.529 39.92 102.804 38.704C102.079 37.488 101.716 36.016 101.716 34.288V33.84C101.716 32.112 102.079 30.64 102.804 29.424C103.529 28.208 104.511 27.28 105.748 26.64C107.007 26 108.404 25.68 109.94 25.68C111.455 25.68 112.756 25.9466 113.844 26.48C114.932 27.0133 115.807 27.7493 116.468 28.688C117.151 29.6053 117.599 30.6506 117.812 31.824L113.908 32.656C113.823 32.016 113.631 31.44 113.332 30.928C113.033 30.416 112.607 30.0106 112.052 29.712C111.519 29.4133 110.847 29.264 110.036 29.264C109.225 29.264 108.489 29.4453 107.828 29.808C107.188 30.1493 106.676 30.672 106.292 31.376C105.929 32.0586 105.748 32.9013 105.748 33.904V34.224C105.748 35.2266 105.929 36.08 106.292 36.784C106.676 37.4666 107.188 37.9893 107.828 38.352C108.489 38.6933 109.225 38.864 110.036 38.864C111.252 38.864 112.169 38.5546 112.788 37.936C113.428 37.296 113.833 36.464 114.004 35.44L117.908 36.368C117.631 37.4986 117.151 38.5333 116.468 39.472C115.807 40.3893 114.932 41.1146 113.844 41.648C112.756 42.1813 111.455 42.448 109.94 42.448Z" fill="#2C2C2C"/>
<path d="M120.274 42V26.128H124.242V27.92H124.818C125.053 27.28 125.437 26.8106 125.97 26.512C126.525 26.2133 127.165 26.064 127.89 26.064H129.81V29.648H127.826C126.802 29.648 125.959 29.9253 125.298 30.48C124.637 31.0133 124.306 31.8453 124.306 32.976V42H120.274Z" fill="#2C2C2C"/>
<path d="M138.991 42.448C137.412 42.448 135.994 42.128 134.735 41.488C133.476 40.848 132.484 39.92 131.759 38.704C131.034 37.488 130.671 36.0266 130.671 34.32V33.808C130.671 32.1013 131.034 30.64 131.759 29.424C132.484 28.208 133.476 27.28 134.735 26.64C135.994 26 137.412 25.68 138.991 25.68C140.57 25.68 141.988 26 143.247 26.64C144.506 27.28 145.498 28.208 146.223 29.424C146.948 30.64 147.311 32.1013 147.311 33.808V34.32C147.311 36.0266 146.948 37.488 146.223 38.704C145.498 39.92 144.506 40.848 143.247 41.488C141.988 42.128 140.57 42.448 138.991 42.448ZM138.991 38.864C140.228 38.864 141.252 38.4693 142.063 37.68C142.874 36.8693 143.279 35.7173 143.279 34.224V33.904C143.279 32.4106 142.874 31.2693 142.063 30.48C141.274 29.6693 140.25 29.264 138.991 29.264C137.754 29.264 136.73 29.6693 135.919 30.48C135.108 31.2693 134.703 32.4106 134.703 33.904V34.224C134.703 35.7173 135.108 36.8693 135.919 37.68C136.73 38.4693 137.754 38.864 138.991 38.864Z" fill="#2C2C2C"/>
<path d="M149.305 42V38.288H152.249V23.312H149.305V19.6H160.825C162.19 19.6 163.374 19.8346 164.377 20.304C165.401 20.752 166.19 21.4026 166.745 22.256C167.321 23.088 167.609 24.0906 167.609 25.264V25.584C167.609 26.608 167.417 27.4506 167.033 28.112C166.649 28.752 166.19 29.2533 165.657 29.616C165.145 29.9573 164.654 30.2026 164.185 30.352V30.928C164.654 31.056 165.166 31.3013 165.721 31.664C166.275 32.0053 166.745 32.5066 167.129 33.168C167.534 33.8293 167.737 34.6933 167.737 35.76V36.08C167.737 37.3173 167.449 38.384 166.873 39.28C166.297 40.1546 165.497 40.8266 164.473 41.296C163.47 41.7653 162.297 42 160.953 42H149.305ZM156.473 38.16H160.441C161.358 38.16 162.094 37.936 162.649 37.488C163.225 37.04 163.513 36.4 163.513 35.568V35.248C163.513 34.416 163.235 33.776 162.681 33.328C162.126 32.88 161.379 32.656 160.441 32.656H156.473V38.16ZM156.473 28.816H160.377C161.251 28.816 161.966 28.592 162.521 28.144C163.097 27.696 163.385 27.0773 163.385 26.288V25.968C163.385 25.1573 163.107 24.5386 162.553 24.112C161.998 23.664 161.273 23.44 160.377 23.44H156.473V28.816Z" fill="#2C2C2C"/>
<path d="M170.363 42V19.6H174.395V42H170.363Z" fill="#2C2C2C"/>
<path d="M185.455 42.448C183.876 42.448 182.457 42.128 181.199 41.488C179.94 40.848 178.948 39.92 178.223 38.704C177.497 37.488 177.135 36.0266 177.135 34.32V33.808C177.135 32.1013 177.497 30.64 178.223 29.424C178.948 28.208 179.94 27.28 181.199 26.64C182.457 26 183.876 25.68 185.455 25.68C187.033 25.68 188.452 26 189.711 26.64C190.969 27.28 191.961 28.208 192.687 29.424C193.412 30.64 193.775 32.1013 193.775 33.808V34.32C193.775 36.0266 193.412 37.488 192.687 38.704C191.961 39.92 190.969 40.848 189.711 41.488C188.452 42.128 187.033 42.448 185.455 42.448ZM185.455 38.864C186.692 38.864 187.716 38.4693 188.527 37.68C189.337 36.8693 189.743 35.7173 189.743 34.224V33.904C189.743 32.4106 189.337 31.2693 188.527 30.48C187.737 29.6693 186.713 29.264 185.455 29.264C184.217 29.264 183.193 29.6693 182.383 30.48C181.572 31.2693 181.167 32.4106 181.167 33.904V34.224C181.167 35.7173 181.572 36.8693 182.383 37.68C183.193 38.4693 184.217 38.864 185.455 38.864Z" fill="#2C2C2C"/>
<path d="M203.993 42.448C202.457 42.448 201.059 42.128 199.801 41.488C198.563 40.848 197.582 39.92 196.857 38.704C196.131 37.488 195.769 36.016 195.769 34.288V33.84C195.769 32.112 196.131 30.64 196.857 29.424C197.582 28.208 198.563 27.28 199.801 26.64C201.059 26 202.457 25.68 203.993 25.68C205.507 25.68 206.809 25.9466 207.897 26.48C208.985 27.0133 209.859 27.7493 210.521 28.688C211.203 29.6053 211.651 30.6506 211.865 31.824L207.961 32.656C207.875 32.016 207.683 31.44 207.385 30.928C207.086 30.416 206.659 30.0106 206.105 29.712C205.571 29.4133 204.899 29.264 204.089 29.264C203.278 29.264 202.542 29.4453 201.881 29.808C201.241 30.1493 200.729 30.672 200.345 31.376C199.982 32.0586 199.801 32.9013 199.801 33.904V34.224C199.801 35.2266 199.982 36.08 200.345 36.784C200.729 37.4666 201.241 37.9893 201.881 38.352C202.542 38.6933 203.278 38.864 204.089 38.864C205.305 38.864 206.222 38.5546 206.841 37.936C207.481 37.296 207.886 36.464 208.057 35.44L211.961 36.368C211.683 37.4986 211.203 38.5333 210.521 39.472C209.859 40.3893 208.985 41.1146 207.897 41.648C206.809 42.1813 205.507 42.448 203.993 42.448Z" fill="#2C2C2C"/>
<path d="M214.327 42V19.6H218.359V31.984H218.935L224.183 26.128H229.431L222.103 33.808L229.687 42H224.503L218.935 35.696H218.359V42H214.327Z" fill="#2C2C2C"/>
<path d="M237.584 42.448C235.514 42.448 233.818 42 232.496 41.104C231.173 40.208 230.373 38.928 230.096 37.264L233.808 36.304C233.957 37.0506 234.202 37.6373 234.544 38.064C234.906 38.4906 235.344 38.8 235.856 38.992C236.389 39.1626 236.965 39.248 237.584 39.248C238.522 39.248 239.216 39.088 239.664 38.768C240.112 38.4266 240.336 38.0106 240.336 37.52C240.336 37.0293 240.122 36.656 239.696 36.4C239.269 36.1226 238.586 35.8986 237.648 35.728L236.752 35.568C235.642 35.3546 234.629 35.0666 233.712 34.704C232.794 34.32 232.058 33.7973 231.504 33.136C230.949 32.4746 230.672 31.6213 230.672 30.576C230.672 28.9973 231.248 27.792 232.4 26.96C233.552 26.1066 235.066 25.68 236.944 25.68C238.714 25.68 240.186 26.0746 241.36 26.864C242.533 27.6533 243.301 28.688 243.664 29.968L239.92 31.12C239.749 30.3093 239.397 29.7333 238.864 29.392C238.352 29.0506 237.712 28.88 236.944 28.88C236.176 28.88 235.589 29.0186 235.184 29.296C234.778 29.552 234.576 29.9146 234.576 30.384C234.576 30.896 234.789 31.28 235.216 31.536C235.642 31.7706 236.218 31.952 236.944 32.08L237.84 32.24C239.034 32.4533 240.112 32.7413 241.072 33.104C242.053 33.4453 242.821 33.9466 243.376 34.608C243.952 35.248 244.24 36.1226 244.24 37.232C244.24 38.896 243.632 40.1866 242.416 41.104C241.221 42 239.61 42.448 237.584 42.448Z" fill="#2C2C2C"/>
<g filter="url(#filter0_d)">
<path d="M83.2098 112.971C77.8197 120.495 68.3271 128.074 56.0955 129.36C47.8357 130.228 40.3327 128.888 33.6392 126.137C27.8012 123.737 22.6901 119.189 19.304 114.942C15.9179 110.694 12.1484 102.783 11.3234 98.2631C10.4985 93.7436 10.5685 87.4203 11.7662 81.5018C12.7244 76.767 15.134 69.4813 16.2088 66.8326C15.0672 64.1842 12.9314 59.2908 12.1164 56.864C11.0977 53.8305 10.2031 50.9934 9.35238 46.8954C8.46261 42.609 7.83303 39.099 8.06823 34.6775C8.30344 30.256 10.0657 25.0459 11.6301 21.9503C13.1945 18.8547 16.1072 15.2687 18.6876 13.1826C21.268 11.0966 27.3544 7.73521 31.0927 7.3423C34.831 6.94939 35.0746 8.59889 35.649 11.3999C36.7801 10.397 39.5541 8.19781 41.6006 7.4244C44.1587 6.45763 48.309 5.32343 52.2075 5.12305C56.106 4.92267 56.9797 6.57548 57.1795 7.8107C57.3793 9.04592 56.0806 12.6719 55.07 15.7093C54.0594 18.7467 54.3529 22.2053 54.2026 24.1054C54.0524 26.0055 54.1485 30.7918 54.4083 33.2631C54.668 35.7343 54.8996 42.706 54.1398 49.7818C63.6098 49.2862 73.6459 55.5669 78.7304 61.029C83.8149 66.4911 90.2164 77.7231 90.5734 88.468C90.8539 96.912 89.1543 104.672 83.2098 112.971Z" fill="#FAFAFA"/>
</g>
<path d="M49.3177 10.8815C44.9279 11.491 30.5094 16.7684 31.9473 30.4493C32.8513 39.0503 35.3947 49.9244 38.2864 57.0052C34.2976 57.8654 30.9555 58.8604 28.1565 59.9794C29.292 53.8517 29.8099 47.696 29.0663 40.6204C26.3972 15.2265 33.7548 12.6529 30.0075 13.0468C26.2604 13.4406 10.6497 23.6704 13.628 42.243C14.9478 50.4699 19.1791 61.9312 22.0458 67.2125C17.9463 76.391 15.0593 84.7861 15.9865 93.6079C17.9875 112.646 35.104 126.468 54.193 124.461C73.282 122.455 87.1507 105.376 85.1498 86.3386C84.4965 80.1224 77.1375 52.2792 48.0613 55.3352C49.315 47.8252 49.502 37.0474 48.6241 28.6949C47.1398 14.5727 54.2226 10.3643 49.6184 10.8482C49.4745 10.8633 49.4573 10.86 49.3157 10.88L49.3177 10.8815Z" fill="white"/>
<path fill-rule="evenodd" clip-rule="evenodd" d="M49.3829 9.71935C49.4106 9.71699 49.4316 9.71521 49.4722 9.71094C50.0526 9.64994 50.7189 9.62186 51.2796 9.83842C51.6049 9.96408 51.9341 10.1861 52.166 10.549C52.3896 10.899 52.4498 11.2663 52.4534 11.5591C52.4599 12.0837 52.2812 12.6473 52.1231 13.1021C52.0275 13.3771 51.9019 13.7103 51.768 14.0655C51.6717 14.321 51.5711 14.5879 51.4743 14.8527C50.5115 17.4862 49.1717 21.8569 49.8857 28.6505C50.7107 36.5 50.6083 46.4657 49.5651 53.9549C63.6191 52.9975 72.6269 59.2397 78.1782 66.5987C83.885 74.1638 85.9437 82.8945 86.2878 86.1689C88.3577 105.863 74.0332 123.528 54.3128 125.601C34.5924 127.674 16.9081 113.373 14.8381 93.6786C13.8953 84.7081 16.7572 76.234 20.7232 67.2601C17.8177 61.6649 13.7858 50.5805 12.4899 42.4981L12.4899 42.498C10.9369 32.8096 14.2363 25.2706 18.402 20.1294C20.4791 17.5659 22.7766 15.59 24.8115 14.2226C25.8291 13.5388 26.7927 12.9993 27.6429 12.6132C28.4716 12.2369 29.2675 11.9716 29.9324 11.9017C30.1798 11.8757 30.4349 11.8557 30.6702 11.861C30.8829 11.8658 31.2274 11.8915 31.5654 12.0627C31.9889 12.2773 32.2771 12.6542 32.3808 13.1052C32.4634 13.4649 32.4106 13.7972 32.3693 13.9967C32.2982 14.339 32.1435 14.7807 31.9872 15.227C31.9626 15.2972 31.938 15.3675 31.9136 15.4376C31.7171 16.0029 31.4776 16.7117 31.2301 17.6124C30.2456 21.1954 29.0824 28.0091 30.4001 40.5462C31.0684 46.9043 30.7361 52.5305 29.8611 58.0272C31.8679 57.3309 34.103 56.6919 36.5915 56.1112C33.8889 48.945 31.587 38.7981 30.7323 30.6653C29.957 23.2894 33.4858 18.1668 37.6885 14.8779C41.8008 11.6597 46.6458 10.1119 49.0578 9.7596C49.0802 9.75521 49.1027 9.75141 49.1255 9.74819C49.2175 9.73519 49.2789 9.72852 49.3407 9.72301C49.3575 9.72152 49.3708 9.72038 49.3829 9.71935ZM49.5376 12.2635C49.5189 12.267 49.5 12.27 49.481 12.2727C47.4935 12.5487 43.0253 13.9377 39.2616 16.8831C35.5466 19.7903 32.6099 24.1244 33.2693 30.3986C34.1612 38.8845 36.6732 49.6137 39.502 56.5477C39.6443 56.8963 39.6248 57.29 39.4488 57.6229C39.2728 57.9559 38.9584 58.1942 38.5899 58.2737C34.6682 59.12 31.4097 60.0935 28.7021 61.1771C28.2706 61.3498 27.7793 61.2744 27.4197 60.9803C27.0601 60.6863 26.8892 60.2202 26.9736 59.7637C28.0874 53.7405 28.5895 47.7245 27.8631 40.8129C26.5178 28.0133 27.6884 20.8752 28.7701 16.9388C29.038 15.9637 29.2973 15.1969 29.5012 14.6099C29.2738 14.6873 29.0057 14.7927 28.6984 14.9323C27.9951 15.2517 27.1543 15.7186 26.2352 16.3362C24.3967 17.5716 22.2915 19.3785 20.3849 21.7316C16.5834 26.4234 13.5915 33.2521 15.0088 42.0946C16.3006 50.1512 20.4684 61.4511 23.262 66.6037C23.4505 66.9515 23.4666 67.367 23.3054 67.7284C19.2344 76.858 16.4876 84.9674 17.3752 93.4119C19.2981 111.707 35.7273 124.993 54.0465 123.067C72.3657 121.142 85.6736 104.73 83.7507 86.4356C83.443 83.5078 81.5076 75.2467 76.1405 68.132C70.8306 61.093 62.1676 55.1619 48.1933 56.6306C47.7973 56.6723 47.4045 56.5268 47.1315 56.2373C46.8585 55.9477 46.7366 55.5475 46.802 55.1551C48.0285 47.7921 48.2145 37.1552 47.3487 28.9172C46.5817 21.6204 48.0297 16.847 49.0781 13.9795C49.1989 13.649 49.3058 13.366 49.4016 13.1125C49.521 12.7966 49.6231 12.5264 49.7133 12.2671C49.7157 12.2602 49.718 12.2533 49.7204 12.2465C49.6606 12.2526 49.6136 12.2566 49.5853 12.259C49.5777 12.2596 49.5715 12.2602 49.5667 12.2606C49.5581 12.2614 49.5496 12.2621 49.5376 12.2635ZM30.6439 14.41C30.6437 14.4101 30.6389 14.4099 30.6304 14.4087C30.6398 14.4092 30.6441 14.4098 30.6439 14.41ZM29.8753 13.4599C29.876 13.4515 29.8768 13.447 29.877 13.4469C29.8772 13.4467 29.8768 13.4509 29.8753 13.4599Z" fill="#2C2C2C"/>
<path fill-rule="evenodd" clip-rule="evenodd" d="M74.5064 100.541C72.366 103.045 69.727 105.167 66.7157 106.758L66.7157 106.758C63.7037 108.35 60.321 109.411 56.6966 109.792C53.072 110.173 49.5427 109.839 46.2656 108.908L46.2656 108.908C42.9892 107.977 39.9665 106.45 37.3526 104.446L38.5405 103.057C40.9704 104.919 43.7792 106.338 46.8217 107.202C49.8634 108.066 53.1405 108.377 56.5106 108.023C59.8806 107.669 63.0215 106.683 65.8173 105.206C68.6135 103.728 71.0658 101.756 73.0555 99.4289L74.5064 100.541Z" fill="#2C2C2C"/>
<path fill-rule="evenodd" clip-rule="evenodd" d="M57.9278 102.258L58.7081 113.252C58.747 113.8 58.4292 114.302 57.9365 114.47L54.0036 115.811C53.4184 116.01 52.7842 115.676 52.5762 115.059L50.551 109.051L52.6867 108.269L54.3376 113.167L56.3798 112.471L55.6657 102.409L57.9278 102.258Z" fill="#2C2C2C"/>
<path fill-rule="evenodd" clip-rule="evenodd" d="M63.7285 107.964L64.0897 112.421C64.1442 113.095 63.6857 113.681 63.0635 113.732L58.5945 114.102L58.3839 111.654L61.728 111.377L61.4656 108.138L63.7285 107.964Z" fill="#2C2C2C"/>
<path d="M57.292 103.391L52.4307 99.447L59.8453 98.5123L57.292 103.391Z" fill="#2C2C2C"/>
<path fill-rule="evenodd" clip-rule="evenodd" d="M60.3039 98.3298C60.4843 98.588 60.496 98.9226 60.3341 99.1948L57.7302 103.572C57.6066 103.78 57.3956 103.928 57.1514 103.977C56.9072 104.027 56.6534 103.973 56.4554 103.831L51.6478 100.371C51.3682 100.169 51.246 99.8253 51.3386 99.5004C51.4312 99.1756 51.7202 98.9348 52.0694 98.8916L59.4809 97.9743C59.805 97.9342 60.1234 98.0717 60.3039 98.3298ZM54.3883 100.267L56.7193 101.944L57.9818 99.8219L54.3883 100.267Z" fill="#2C2C2C"/>
<path d="M47.2926 96.8477C48.6717 96.1577 49.2293 94.4839 48.5382 93.1092C47.847 91.7345 46.1688 91.1794 44.7898 91.8695C43.4108 92.5595 42.8532 94.2333 43.5443 95.608C44.2354 96.9827 45.9136 97.5377 47.2926 96.8477Z" fill="#2C2C2C"/>
<path d="M61.7367 93.6548C63.2076 94.117 64.7765 93.3024 65.2409 91.8354C65.7053 90.3683 64.8894 88.8044 63.4185 88.3422C61.9475 87.8799 60.3787 88.6945 59.9142 90.1616C59.4498 91.6286 60.2658 93.1926 61.7367 93.6548Z" fill="#2C2C2C"/>
<defs>
<filter id="filter0_d" x="0" y="0" width="96.5233" height="135.683" filterUnits="userSpaceOnUse" color-interpolation-filters="sRGB">
<feFlood flood-opacity="0" result="BackgroundImageFix"/>
<feColorMatrix in="SourceAlpha" type="matrix" values="0 0 0 0 0 0 0 0 0 0 0 0 0 0 0 0 0 0 127 0"/>
<feOffset/>
<feGaussianBlur stdDeviation="1"/>
<feColorMatrix type="matrix" values="0 0 0 0 0 0 0 0 0 0 0 0 0 0 0 0 0 0 0.5 0"/>
<feBlend mode="normal" in2="BackgroundImageFix" result="effect1_dropShadow"/>
<feBlend mode="normal" in="SourceGraphic" in2="effect1_dropShadow" result="shape"/>
</filter>
</defs>
</svg>
