<svg width="400" height="280" viewBox="0 0 400 280" fill="none" xmlns="http://www.w3.org/2000/svg">
<g filter="url(#filter0_d)">
<rect x="27.0391" y="35.1455" width="347.274" height="216.168" rx="8" transform="rotate(1.60101 27.0391 35.1455)" fill="white"/>
<rect x="27.5249" y="35.6593" width="346.274" height="215.168" rx="7.5" transform="rotate(1.60101 27.5249 35.6593)" stroke="#BDBDBD"/>
</g>
<circle cx="284.145" cy="166.838" r="39.4097" transform="rotate(1.60101 284.145 166.838)" fill="#FFD200"/>
<rect x="47.4277" y="115.712" width="104.572" height="29.6549" rx="2" transform="rotate(1.60101 47.4277 115.712)" fill="#009ECE"/>
<rect opacity="0.25" x="48.4531" y="79.0459" width="142.812" height="29.6549" rx="2" transform="rotate(1.60101 48.4531 79.0459)" fill="#B6519D"/>
<rect opacity="0.25" x="49.4551" y="43.1631" width="85.0626" height="29.6549" rx="2" transform="rotate(1.60101 49.4551 43.1631)" fill="#01928B"/>
<path d="M57.0321 134.717L57.1835 129.3L58.5377 129.338L58.5212 129.927L58.7178 129.933C58.8175 129.753 58.9784 129.601 59.2005 129.476C59.4228 129.344 59.7123 129.283 60.0691 129.293C60.455 129.304 60.7623 129.389 60.991 129.548C61.2199 129.7 61.3929 129.898 61.51 130.142L61.7065 130.148C61.8368 129.918 62.017 129.73 62.2469 129.583C62.4769 129.437 62.7994 129.369 63.2144 129.381C63.5493 129.39 63.8494 129.472 64.1148 129.625C64.3876 129.771 64.6 129.992 64.752 130.287C64.9115 130.576 64.9852 130.939 64.973 131.376L64.8735 134.936L63.4974 134.897L63.5942 131.435C63.6025 131.137 63.5323 130.913 63.3834 130.763C63.2348 130.606 63.0222 130.523 62.7455 130.515C62.4324 130.507 62.1857 130.602 62.0052 130.801C61.8323 130.993 61.7406 131.274 61.7302 131.646L61.6408 134.846L60.2647 134.807L60.3615 131.345C60.3698 131.047 60.2996 130.822 60.1508 130.672C60.0021 130.515 59.7895 130.433 59.5128 130.425C59.1998 130.416 58.953 130.511 58.7726 130.71C58.5996 130.902 58.5079 131.184 58.4976 131.555L58.4081 134.755L57.0321 134.717Z" fill="white"/>
<path d="M67.8126 135.171C67.4268 135.16 67.0828 135.085 66.7806 134.945C66.4787 134.799 66.2403 134.595 66.0654 134.335C65.898 134.068 65.8195 133.749 65.8298 133.378C65.8402 133.006 65.9362 132.699 66.1179 132.457C66.307 132.207 66.5599 132.025 66.8764 131.91C67.2004 131.788 67.5663 131.732 67.974 131.744L69.4593 131.785L69.4679 131.479C69.475 131.224 69.4007 131.015 69.245 130.85C69.0895 130.678 68.837 130.587 68.4875 130.578C68.1453 130.568 67.8883 130.641 67.7163 130.796C67.5446 130.945 67.4298 131.142 67.3719 131.388L66.1169 130.927C66.212 130.652 66.3574 130.405 66.553 130.185C66.7561 129.957 67.0198 129.779 67.344 129.649C67.6757 129.513 68.0745 129.451 68.5405 129.464C69.254 129.484 69.8133 129.678 70.2183 130.047C70.6234 130.415 70.8164 130.938 70.7975 131.615L70.741 133.635C70.7349 133.854 70.8338 133.966 71.0377 133.971L71.4745 133.984L71.4428 135.119L70.5254 135.094C70.256 135.086 70.0358 135.015 69.8647 134.879C69.6936 134.743 69.6111 134.566 69.6172 134.347L69.6175 134.336L69.41 134.33C69.3785 134.417 69.3097 134.532 69.2037 134.674C69.0979 134.81 68.9342 134.929 68.7128 135.032C68.4913 135.135 68.1912 135.182 67.8126 135.171ZM68.084 134.064C68.4699 134.075 68.786 133.978 69.0321 133.773C69.2858 133.562 69.4176 133.278 69.4276 132.921L69.4306 132.812L68.0436 132.773C67.7888 132.766 67.587 132.815 67.4384 132.92C67.2897 133.025 67.2126 133.176 67.2071 133.373C67.2016 133.569 67.2736 133.731 67.423 133.859C67.5725 133.988 67.7928 134.056 68.084 134.064Z" fill="white"/>
<path d="M72.2305 135.141L72.4441 127.497L73.8202 127.535L73.7021 131.762L73.8986 131.767L75.7456 129.819L77.5367 129.869L74.9624 132.42L77.4726 135.288L75.7034 135.239L73.8632 133.034L73.6667 133.028L73.6065 135.18L72.2305 135.141Z" fill="white"/>
<path d="M80.3098 135.52C79.7711 135.505 79.2973 135.379 78.8886 135.142C78.4874 134.897 78.1761 134.564 77.9547 134.143C77.7408 133.714 77.6418 133.216 77.6577 132.648L77.6613 132.517C77.6772 131.949 77.8038 131.461 78.0411 131.052C78.2786 130.636 78.6044 130.321 79.0184 130.107C79.4327 129.885 79.9092 129.782 80.4479 129.797C80.9794 129.812 81.4384 129.945 81.8249 130.196C82.2115 130.44 82.5082 130.776 82.7148 131.205C82.9216 131.626 83.0173 132.113 83.0018 132.666L82.9887 133.136L79.0461 133.026C79.0503 133.398 79.1802 133.704 79.4358 133.944C79.6914 134.184 80.0085 134.31 80.3871 134.32C80.773 134.331 81.0593 134.255 81.246 134.093C81.4327 133.93 81.5762 133.749 81.6765 133.547L82.7849 134.169C82.6777 134.355 82.5227 134.558 82.3198 134.779C82.1244 134.992 81.8643 135.174 81.5394 135.325C81.2148 135.469 80.8049 135.534 80.3098 135.52ZM79.0857 132L81.6195 132.07C81.5991 131.756 81.4787 131.502 81.2583 131.306C81.0452 131.111 80.7602 131.008 80.4034 130.998C80.0321 130.988 79.7346 131.074 79.5109 131.257C79.2872 131.44 79.1455 131.688 79.0857 132Z" fill="white"/>
<path d="M86.4852 135.54L86.6366 130.123L87.9908 130.161L87.9737 130.772L88.1703 130.778C88.2565 130.562 88.392 130.405 88.5769 130.308C88.7691 130.212 88.9889 130.167 89.2365 130.174L89.8917 130.192L89.8575 131.415L89.1804 131.396C88.8309 131.387 88.5407 131.473 88.3097 131.656C88.0789 131.832 87.9581 132.113 87.9473 132.499L87.8613 135.578L86.4852 135.54Z" fill="white"/>
<path d="M92.978 135.874C92.4392 135.859 91.9581 135.737 91.5346 135.506C91.1112 135.276 90.7815 134.95 90.5455 134.528C90.3096 134.106 90.1998 133.604 90.216 133.021L90.2209 132.846C90.2372 132.264 90.3749 131.769 90.6341 131.36C90.8932 130.952 91.2406 130.645 91.6763 130.439C92.112 130.232 92.5992 130.137 93.138 130.152C93.6767 130.167 94.1579 130.289 94.5813 130.52C95.0048 130.75 95.3345 131.077 95.5704 131.498C95.8064 131.92 95.9162 132.423 95.8999 133.005L95.8951 133.18C95.8788 133.762 95.7411 134.258 95.4819 134.666C95.2228 135.074 94.8754 135.381 94.4397 135.587C94.004 135.794 93.5168 135.889 92.978 135.874ZM93.0122 134.651C93.4345 134.663 93.7877 134.538 94.0719 134.276C94.3563 134.008 94.5057 133.618 94.5199 133.109L94.523 132.999C94.5372 132.49 94.4098 132.096 94.1406 131.819C93.879 131.535 93.5333 131.387 93.1038 131.375C92.6815 131.363 92.3281 131.492 92.0437 131.761C91.7595 132.022 91.6103 132.408 91.5961 132.918L91.593 133.027C91.5788 133.536 91.7061 133.933 91.9751 134.218C92.2442 134.495 92.5899 134.639 93.0122 134.651Z" fill="white"/>
<path d="M100.124 136.074C99.636 136.06 99.2634 135.966 99.0059 135.791C98.7485 135.617 98.5608 135.426 98.4427 135.218L98.2461 135.213L98.2278 135.868L96.8736 135.83L97.0872 128.185L98.4633 128.224L98.3836 131.074L98.5802 131.08C98.664 130.951 98.773 130.83 98.9073 130.717C99.0489 130.605 99.2299 130.515 99.4504 130.448C99.6783 130.375 99.9561 130.342 100.284 130.351C100.721 130.364 101.122 130.484 101.487 130.713C101.852 130.934 102.142 131.256 102.356 131.677C102.57 132.099 102.669 132.604 102.653 133.194L102.648 133.369C102.631 133.958 102.504 134.457 102.267 134.866C102.03 135.275 101.722 135.583 101.345 135.791C100.968 135.992 100.561 136.086 100.124 136.074ZM99.7424 134.861C100.165 134.873 100.522 134.748 100.813 134.487C101.105 134.218 101.258 133.822 101.273 133.297L101.276 133.188C101.29 132.664 101.159 132.263 100.883 131.986C100.614 131.701 100.265 131.553 99.8352 131.541C99.4129 131.529 99.0559 131.658 98.7642 131.927C98.4727 132.188 98.3197 132.581 98.305 133.105L98.302 133.214C98.2873 133.738 98.4181 134.143 98.6943 134.428C98.9707 134.705 99.3201 134.849 99.7424 134.861Z" fill="white"/>
<path d="M106.193 136.244C105.654 136.229 105.173 136.106 104.749 135.876C104.326 135.645 103.996 135.319 103.76 134.897C103.524 134.475 103.414 133.973 103.431 133.39L103.436 133.216C103.452 132.633 103.59 132.138 103.849 131.73C104.108 131.322 104.455 131.014 104.891 130.808C105.327 130.602 105.814 130.506 106.353 130.521C106.891 130.536 107.373 130.659 107.796 130.889C108.219 131.12 108.549 131.446 108.785 131.868C109.021 132.29 109.131 132.792 109.115 133.374L109.11 133.549C109.093 134.132 108.956 134.627 108.697 135.035C108.437 135.443 108.09 135.75 107.654 135.957C107.219 136.163 106.731 136.259 106.193 136.244ZM106.227 135.021C106.649 135.032 107.002 134.907 107.287 134.646C107.571 134.377 107.72 133.988 107.735 133.478L107.738 133.369C107.752 132.859 107.624 132.466 107.355 132.189C107.094 131.904 106.748 131.756 106.318 131.744C105.896 131.732 105.543 131.861 105.258 132.13C104.974 132.392 104.825 132.777 104.811 133.287L104.808 133.396C104.793 133.906 104.921 134.303 105.19 134.587C105.459 134.864 105.805 135.009 106.227 135.021Z" fill="white"/>
<path d="M111.993 136.253C111.636 136.243 111.348 136.126 111.128 135.901C110.916 135.669 110.815 135.367 110.825 134.996L110.911 131.938L109.557 131.9L109.588 130.764L110.943 130.802L110.99 129.12L112.366 129.159L112.319 130.841L113.804 130.882L113.772 132.018L112.287 131.977L112.208 134.794C112.202 135.013 112.301 135.125 112.505 135.13L113.553 135.16L113.522 136.296L111.993 136.253Z" fill="white"/>
<path d="M119.48 136.615C118.774 136.595 118.199 136.426 117.756 136.108C117.313 135.789 117.053 135.345 116.974 134.774L118.25 134.482C118.294 134.738 118.372 134.941 118.484 135.09C118.604 135.239 118.75 135.349 118.923 135.419C119.103 135.482 119.299 135.517 119.51 135.523C119.831 135.532 120.069 135.484 120.225 135.379C120.381 135.267 120.461 135.127 120.466 134.96C120.471 134.792 120.402 134.663 120.258 134.571C120.115 134.472 119.885 134.389 119.566 134.322L119.262 134.259C118.885 134.176 118.542 134.068 118.232 133.935C117.923 133.795 117.677 133.61 117.494 133.379C117.311 133.148 117.224 132.854 117.234 132.497C117.249 131.959 117.457 131.553 117.858 131.28C118.26 131 118.781 130.868 119.421 130.886C120.026 130.903 120.524 131.052 120.917 131.333C121.31 131.613 121.562 131.974 121.674 132.414L120.385 132.771C120.335 132.493 120.22 132.293 120.041 132.171C119.87 132.05 119.653 131.986 119.391 131.978C119.129 131.971 118.927 132.013 118.786 132.104C118.645 132.187 118.573 132.309 118.568 132.469C118.563 132.644 118.633 132.777 118.776 132.868C118.919 132.953 119.114 133.02 119.36 133.071L119.665 133.134C120.07 133.218 120.435 133.326 120.759 133.459C121.091 133.585 121.348 133.764 121.531 133.995C121.722 134.219 121.812 134.52 121.801 134.898C121.785 135.466 121.566 135.901 121.142 136.203C120.726 136.497 120.172 136.634 119.48 136.615Z" fill="white"/>
<path d="M122.743 136.553L122.895 131.136L124.249 131.174L124.232 131.764L124.429 131.769C124.529 131.59 124.69 131.438 124.912 131.313C125.134 131.181 125.423 131.12 125.78 131.13C126.166 131.14 126.473 131.226 126.702 131.385C126.931 131.537 127.104 131.735 127.221 131.979L127.418 131.984C127.548 131.755 127.728 131.567 127.958 131.42C128.188 131.273 128.511 131.206 128.926 131.218C129.26 131.227 129.561 131.308 129.826 131.461C130.099 131.607 130.311 131.828 130.463 132.124C130.623 132.413 130.696 132.775 130.684 133.212L130.585 136.772L129.209 136.734L129.305 133.272C129.314 132.973 129.243 132.749 129.095 132.599C128.946 132.442 128.733 132.36 128.457 132.352C128.144 132.343 127.897 132.438 127.716 132.637C127.543 132.829 127.452 133.111 127.441 133.482L127.352 136.682L125.976 136.644L126.073 133.182C126.081 132.883 126.011 132.659 125.862 132.509C125.713 132.352 125.501 132.269 125.224 132.262C124.911 132.253 124.664 132.348 124.484 132.547C124.311 132.739 124.219 133.021 124.209 133.392L124.119 136.592L122.743 136.553Z" fill="white"/>
<path d="M131.846 136.808L131.998 131.391L133.374 131.429L133.222 136.846L131.846 136.808ZM132.703 130.777C132.456 130.77 132.247 130.684 132.077 130.519C131.914 130.354 131.836 130.14 131.843 129.878C131.85 129.616 131.94 129.407 132.112 129.252C132.291 129.097 132.505 129.022 132.752 129.029C133.007 129.036 133.216 129.122 133.379 129.287C133.542 129.452 133.62 129.666 133.612 129.928C133.605 130.19 133.515 130.399 133.343 130.554C133.172 130.71 132.958 130.784 132.703 130.777Z" fill="white"/>
<path d="M134.529 136.883L134.742 129.238L136.118 129.276L135.905 136.921L134.529 136.883Z" fill="white"/>
<path d="M139.675 137.18C139.136 137.165 138.663 137.038 138.254 136.801C137.853 136.557 137.541 136.224 137.32 135.802C137.106 135.374 137.007 134.875 137.023 134.307L137.027 134.176C137.043 133.608 137.169 133.12 137.406 132.711C137.644 132.296 137.97 131.98 138.384 131.766C138.798 131.544 139.274 131.441 139.813 131.456C140.345 131.471 140.804 131.604 141.19 131.855C141.577 132.099 141.873 132.436 142.08 132.864C142.287 133.285 142.383 133.772 142.367 134.326L142.354 134.795L138.411 134.685C138.416 135.057 138.546 135.363 138.801 135.603C139.057 135.843 139.374 135.969 139.752 135.979C140.138 135.99 140.425 135.914 140.611 135.752C140.798 135.59 140.942 135.408 141.042 135.207L142.15 135.828C142.043 136.014 141.888 136.218 141.685 136.438C141.49 136.651 141.23 136.833 140.905 136.984C140.58 137.128 140.17 137.193 139.675 137.18ZM138.451 133.659L140.985 133.73C140.964 133.416 140.844 133.161 140.624 132.965C140.41 132.77 140.126 132.667 139.769 132.657C139.397 132.647 139.1 132.733 138.876 132.917C138.652 133.1 138.511 133.347 138.451 133.659Z" fill="white"/>
<path d="M35.022 35.8688L366.167 45.1244C370.307 45.2401 373.57 48.6905 373.454 52.831L373.168 63.0564L27.0296 53.3817L27.3154 43.1564C27.4311 39.0158 30.8815 35.7531 35.022 35.8688Z" fill="#BDBDBD" stroke="#BDBDBD"/>
<path d="M272.065 146.533C271.657 133.373 264.615 118.529 268.597 99.0995C272.853 72.8839 309.526 72.1078 307.172 37.3195C306.031 14.422 287.225 -0.394251 253.778 9.21047C237.25 13.9565 231.745 32.6437 231.517 40.835" stroke="#616161" stroke-width="6"/>
<g filter="url(#filter1_d)">
<path d="M266.27 154.56C266.139 150.967 268.946 147.947 272.54 147.816V147.816C276.133 147.685 279.152 150.492 279.283 154.086L280.163 178.212L267.15 178.686L266.27 154.56Z" fill="white"/>
</g>
<g filter="url(#filter2_d)">
<path d="M264.057 153.34C263.882 148.549 267.624 144.523 272.415 144.349V144.349C277.207 144.174 281.232 147.916 281.407 152.708L281.882 165.72L264.531 166.353L264.057 153.34Z" fill="#616161"/>
<path d="M264.057 153.34C263.882 148.549 267.624 144.523 272.415 144.349V144.349C277.207 144.174 281.232 147.916 281.407 152.708L281.882 165.72L264.531 166.353L264.057 153.34Z" fill="url(#paint0_radial)" fill-opacity="0.2" style="mix-blend-mode:soft-light"/>
</g>
<circle cx="36.9198" cy="44.7886" r="3.12156" transform="rotate(1.60101 36.9198 44.7886)" fill="#757575"/>
<circle cx="46.2812" cy="45.0503" r="3.12156" transform="rotate(1.60101 46.2812 45.0503)" fill="#757575"/>
<circle cx="55.6425" cy="45.3121" r="3.12156" transform="rotate(1.60101 55.6425 45.3121)" fill="#757575"/>
<path fill-rule="evenodd" clip-rule="evenodd" d="M275.348 186.813L273.506 186.868L273.355 184.025L275.198 183.969L275.348 186.813ZM282.236 182.88L280.999 184.26L278.926 182.303L280.162 180.923L282.236 182.88ZM267.682 184.789L269.54 182.714L268.152 181.413L266.303 183.488L267.682 184.789Z" fill="#2C2C2C"/>
<path d="M93.6445 150.927L93.3068 163.01L96.6022 163.102L96.3259 172.988L104.384 160.022L99.9897 159.899L103.531 151.203L93.6445 150.927Z" fill="#FED722"/>
<g filter="url(#filter3_d)">
<rect x="302.779" y="160.676" width="80.9203" height="80.9203" transform="rotate(5.82763 302.779 160.676)" fill="#333333"/>
<rect x="302.779" y="160.676" width="80.9203" height="80.9203" transform="rotate(5.82763 302.779 160.676)" fill="url(#paint1_radial)" fill-opacity="0.2" style="mix-blend-mode:soft-light"/>
</g>
<rect x="312.902" y="173.096" width="6.47363" height="6.47363" transform="rotate(5.82763 312.902 173.096)" fill="#4D4D4D"/>
<rect x="311.586" y="185.978" width="6.47363" height="6.47363" transform="rotate(5.82763 311.586 185.978)" fill="#4D4D4D"/>
<rect x="310.273" y="198.857" width="6.47363" height="6.47363" transform="rotate(5.82763 310.273 198.857)" fill="#4D4D4D"/>
<g filter="url(#filter4_d)">
<rect x="308.959" y="211.737" width="6.47363" height="6.47363" transform="rotate(5.82763 308.959 211.737)" fill="#25D366"/>
</g>
<rect x="307.643" y="224.618" width="6.47363" height="6.47363" transform="rotate(5.82763 307.643 224.618)" fill="#4D4D4D"/>
<rect x="325.781" y="174.41" width="6.47363" height="6.47363" transform="rotate(5.82763 325.781 174.41)" fill="#4D4D4D"/>
<g filter="url(#filter5_d)">
<rect x="324.467" y="187.292" width="6.47363" height="6.47363" transform="rotate(5.82763 324.467 187.292)" fill="#25D366"/>
</g>
<rect x="323.15" y="200.172" width="6.47363" height="6.47363" transform="rotate(5.82763 323.15 200.172)" fill="#4D4D4D"/>
<rect x="321.836" y="213.052" width="6.47363" height="6.47363" transform="rotate(5.82763 321.836 213.052)" fill="#4D4D4D"/>
<g filter="url(#filter6_d)">
<rect x="320.525" y="225.933" width="6.47363" height="6.47363" transform="rotate(5.82763 320.525 225.933)" fill="#25D366"/>
</g>
<rect x="338.664" y="175.726" width="6.47363" height="6.47363" transform="rotate(5.82763 338.664 175.726)" fill="#4D4D4D"/>
<rect x="337.348" y="188.606" width="6.47363" height="6.47363" transform="rotate(5.82763 337.348 188.606)" fill="#4D4D4D"/>
<rect x="336.033" y="201.486" width="6.47363" height="6.47363" transform="rotate(5.82763 336.033 201.486)" fill="#4D4D4D"/>
<rect x="334.717" y="214.366" width="6.47363" height="6.47363" transform="rotate(5.82763 334.717 214.366)" fill="#4D4D4D"/>
<g filter="url(#filter7_d)">
<rect x="333.404" y="227.247" width="6.47363" height="6.47363" transform="rotate(5.82763 333.404 227.247)" fill="#25D366"/>
</g>
<rect x="351.545" y="177.041" width="6.47363" height="6.47363" transform="rotate(5.82763 351.545 177.041)" fill="#4D4D4D"/>
<g filter="url(#filter8_d)">
<rect x="350.229" y="189.921" width="6.47363" height="6.47363" transform="rotate(5.82763 350.229 189.921)" fill="#25D366"/>
</g>
<rect x="348.912" y="202.801" width="6.47363" height="6.47363" transform="rotate(5.82763 348.912 202.801)" fill="#4D4D4D"/>
<rect x="347.6" y="215.683" width="6.47363" height="6.47363" transform="rotate(5.82763 347.6 215.683)" fill="#4D4D4D"/>
<g filter="url(#filter9_d)">
<rect x="346.283" y="228.562" width="6.47363" height="6.47363" transform="rotate(5.82763 346.283 228.562)" fill="#25D366"/>
</g>
<rect x="364.422" y="178.354" width="6.47363" height="6.47363" transform="rotate(5.82763 364.422 178.354)" fill="#4D4D4D"/>
<rect x="363.109" y="191.235" width="6.47363" height="6.47363" transform="rotate(5.82763 363.109 191.235)" fill="#4D4D4D"/>
<rect x="361.791" y="204.115" width="6.47363" height="6.47363" transform="rotate(5.82763 361.791 204.115)" fill="#4D4D4D"/>
<g filter="url(#filter10_d)">
<rect x="360.477" y="216.995" width="6.47363" height="6.47363" transform="rotate(5.82763 360.477 216.995)" fill="#25D366"/>
</g>
<rect x="359.164" y="229.877" width="6.47363" height="6.47363" transform="rotate(5.82763 359.164 229.877)" fill="#4D4D4D"/>
<defs>
<filter id="filter0_d" x="9" y="23.1455" width="377.178" height="249.787" filterUnits="userSpaceOnUse" color-interpolation-filters="sRGB">
<feFlood flood-opacity="0" result="BackgroundImageFix"/>
<feColorMatrix in="SourceAlpha" type="matrix" values="0 0 0 0 0 0 0 0 0 0 0 0 0 0 0 0 0 0 127 0"/>
<feOffset/>
<feGaussianBlur stdDeviation="6"/>
<feColorMatrix type="matrix" values="0 0 0 0 0 0 0 0 0 0 0 0 0 0 0 0 0 0 0.25 0"/>
<feBlend mode="normal" in2="BackgroundImageFix" result="effect1_dropShadow"/>
<feBlend mode="normal" in="SourceGraphic" in2="effect1_dropShadow" result="shape"/>
</filter>
<filter id="filter1_d" x="254.033" y="135.579" width="38.1301" height="55.1073" filterUnits="userSpaceOnUse" color-interpolation-filters="sRGB">
<feFlood flood-opacity="0" result="BackgroundImageFix"/>
<feColorMatrix in="SourceAlpha" type="matrix" values="0 0 0 0 0 0 0 0 0 0 0 0 0 0 0 0 0 0 127 0"/>
<feOffset/>
<feGaussianBlur stdDeviation="6"/>
<feColorMatrix type="matrix" values="0 0 0 0 0 0 0 0 0 0 0 0 0 0 0 0 0 0 0.5 0"/>
<feBlend mode="normal" in2="BackgroundImageFix" result="effect1_dropShadow"/>
<feBlend mode="normal" in="SourceGraphic" in2="effect1_dropShadow" result="shape"/>
</filter>
<filter id="filter2_d" x="257.74" y="138.032" width="30.1415" height="34.3209" filterUnits="userSpaceOnUse" color-interpolation-filters="sRGB">
<feFlood flood-opacity="0" result="BackgroundImageFix"/>
<feColorMatrix in="SourceAlpha" type="matrix" values="0 0 0 0 0 0 0 0 0 0 0 0 0 0 0 0 0 0 127 0"/>
<feOffset/>
<feGaussianBlur stdDeviation="3"/>
<feColorMatrix type="matrix" values="0 0 0 0 0 0 0 0 0 0 0 0 0 0 0 0 0 0 0.5 0"/>
<feBlend mode="normal" in2="BackgroundImageFix" result="effect1_dropShadow"/>
<feBlend mode="normal" in="SourceGraphic" in2="effect1_dropShadow" result="shape"/>
</filter>
<filter id="filter3_d" x="288.562" y="154.676" width="100.718" height="100.718" filterUnits="userSpaceOnUse" color-interpolation-filters="sRGB">
<feFlood flood-opacity="0" result="BackgroundImageFix"/>
<feColorMatrix in="SourceAlpha" type="matrix" values="0 0 0 0 0 0 0 0 0 0 0 0 0 0 0 0 0 0 127 0"/>
<feOffset/>
<feGaussianBlur stdDeviation="3"/>
<feColorMatrix type="matrix" values="0 0 0 0 0 0 0 0 0 0 0 0 0 0 0 0 0 0 0.5 0"/>
<feBlend mode="normal" in2="BackgroundImageFix" result="effect1_dropShadow"/>
<feBlend mode="normal" in="SourceGraphic" in2="effect1_dropShadow" result="shape"/>
</filter>
<filter id="filter4_d" x="292.301" y="195.737" width="39.0975" height="39.0975" filterUnits="userSpaceOnUse" color-interpolation-filters="sRGB">
<feFlood flood-opacity="0" result="BackgroundImageFix"/>
<feColorMatrix in="SourceAlpha" type="matrix" values="0 0 0 0 0 0 0 0 0 0 0 0 0 0 0 0 0 0 127 0"/>
<feOffset/>
<feGaussianBlur stdDeviation="8"/>
<feColorMatrix type="matrix" values="0 0 0 0 0.8 0 0 0 0 1 0 0 0 0 0.6 0 0 0 1 0"/>
<feBlend mode="soft-light" in2="BackgroundImageFix" result="effect1_dropShadow"/>
<feBlend mode="normal" in="SourceGraphic" in2="effect1_dropShadow" result="shape"/>
</filter>
<filter id="filter5_d" x="307.809" y="171.292" width="39.0975" height="39.0975" filterUnits="userSpaceOnUse" color-interpolation-filters="sRGB">
<feFlood flood-opacity="0" result="BackgroundImageFix"/>
<feColorMatrix in="SourceAlpha" type="matrix" values="0 0 0 0 0 0 0 0 0 0 0 0 0 0 0 0 0 0 127 0"/>
<feOffset/>
<feGaussianBlur stdDeviation="8"/>
<feColorMatrix type="matrix" values="0 0 0 0 0.8 0 0 0 0 1 0 0 0 0 0.6 0 0 0 1 0"/>
<feBlend mode="soft-light" in2="BackgroundImageFix" result="effect1_dropShadow"/>
<feBlend mode="normal" in="SourceGraphic" in2="effect1_dropShadow" result="shape"/>
</filter>
<filter id="filter6_d" x="303.867" y="209.933" width="39.0975" height="39.0975" filterUnits="userSpaceOnUse" color-interpolation-filters="sRGB">
<feFlood flood-opacity="0" result="BackgroundImageFix"/>
<feColorMatrix in="SourceAlpha" type="matrix" values="0 0 0 0 0 0 0 0 0 0 0 0 0 0 0 0 0 0 127 0"/>
<feOffset/>
<feGaussianBlur stdDeviation="8"/>
<feColorMatrix type="matrix" values="0 0 0 0 0.8 0 0 0 0 1 0 0 0 0 0.6 0 0 0 1 0"/>
<feBlend mode="soft-light" in2="BackgroundImageFix" result="effect1_dropShadow"/>
<feBlend mode="normal" in="SourceGraphic" in2="effect1_dropShadow" result="shape"/>
</filter>
<filter id="filter7_d" x="316.746" y="211.247" width="39.0975" height="39.0975" filterUnits="userSpaceOnUse" color-interpolation-filters="sRGB">
<feFlood flood-opacity="0" result="BackgroundImageFix"/>
<feColorMatrix in="SourceAlpha" type="matrix" values="0 0 0 0 0 0 0 0 0 0 0 0 0 0 0 0 0 0 127 0"/>
<feOffset/>
<feGaussianBlur stdDeviation="8"/>
<feColorMatrix type="matrix" values="0 0 0 0 0.8 0 0 0 0 1 0 0 0 0 0.6 0 0 0 1 0"/>
<feBlend mode="soft-light" in2="BackgroundImageFix" result="effect1_dropShadow"/>
<feBlend mode="normal" in="SourceGraphic" in2="effect1_dropShadow" result="shape"/>
</filter>
<filter id="filter8_d" x="333.57" y="173.921" width="39.0975" height="39.0975" filterUnits="userSpaceOnUse" color-interpolation-filters="sRGB">
<feFlood flood-opacity="0" result="BackgroundImageFix"/>
<feColorMatrix in="SourceAlpha" type="matrix" values="0 0 0 0 0 0 0 0 0 0 0 0 0 0 0 0 0 0 127 0"/>
<feOffset/>
<feGaussianBlur stdDeviation="8"/>
<feColorMatrix type="matrix" values="0 0 0 0 0.8 0 0 0 0 1 0 0 0 0 0.6 0 0 0 1 0"/>
<feBlend mode="soft-light" in2="BackgroundImageFix" result="effect1_dropShadow"/>
<feBlend mode="normal" in="SourceGraphic" in2="effect1_dropShadow" result="shape"/>
</filter>
<filter id="filter9_d" x="329.625" y="212.562" width="39.0975" height="39.0975" filterUnits="userSpaceOnUse" color-interpolation-filters="sRGB">
<feFlood flood-opacity="0" result="BackgroundImageFix"/>
<feColorMatrix in="SourceAlpha" type="matrix" values="0 0 0 0 0 0 0 0 0 0 0 0 0 0 0 0 0 0 127 0"/>
<feOffset/>
<feGaussianBlur stdDeviation="8"/>
<feColorMatrix type="matrix" values="0 0 0 0 0.8 0 0 0 0 1 0 0 0 0 0.6 0 0 0 1 0"/>
<feBlend mode="soft-light" in2="BackgroundImageFix" result="effect1_dropShadow"/>
<feBlend mode="normal" in="SourceGraphic" in2="effect1_dropShadow" result="shape"/>
</filter>
<filter id="filter10_d" x="343.818" y="200.995" width="39.0975" height="39.0975" filterUnits="userSpaceOnUse" color-interpolation-filters="sRGB">
<feFlood flood-opacity="0" result="BackgroundImageFix"/>
<feColorMatrix in="SourceAlpha" type="matrix" values="0 0 0 0 0 0 0 0 0 0 0 0 0 0 0 0 0 0 127 0"/>
<feOffset/>
<feGaussianBlur stdDeviation="8"/>
<feColorMatrix type="matrix" values="0 0 0 0 0.8 0 0 0 0 1 0 0 0 0 0.6 0 0 0 1 0"/>
<feBlend mode="soft-light" in2="BackgroundImageFix" result="effect1_dropShadow"/>
<feBlend mode="normal" in="SourceGraphic" in2="effect1_dropShadow" result="shape"/>
</filter>
<radialGradient id="paint0_radial" cx="0" cy="0" r="1" gradientUnits="userSpaceOnUse" gradientTransform="translate(272.811 155.193) rotate(87.9113) scale(10.8513 8.68101)">
<stop stop-color="white" stop-opacity="0"/>
<stop offset="1"/>
</radialGradient>
<radialGradient id="paint1_radial" cx="0" cy="0" r="1" gradientUnits="userSpaceOnUse" gradientTransform="translate(343.239 201.136) rotate(90) scale(40.4602)">
<stop stop-color="white" stop-opacity="0"/>
<stop offset="1"/>
</radialGradient>
</defs>
</svg>
