<svg width="400" height="290" viewBox="0 0 400 290" fill="none" xmlns="http://www.w3.org/2000/svg">
<style>

    @keyframes power-blocks {
        0% {
            opacity: 0;
        }
        8% {
            opacity: 0;
        }
        10% {
            opacity: 1;
        }
        100% {
            opacity: 1;
        }
    }


    @keyframes power-boardie-2 {
        0% {
            opacity: 0;
        }
        14% {
            opacity: 0;
        }
        16% {
            opacity: 1;
        }
        100% {
            opacity: 1;
        }
    }

    @keyframes power-boardie-3 {
        0% {
            opacity: 0;
        }
        18% {
            opacity: 0;
        }
        20% {
            opacity: 1;
        }
        100% {
            opacity: 1;
        }
    }

    @keyframes leds-on {
        0% {
            opacity: 0;
        }
        22% {
            opacity: 0;
        }
        24% {
            opacity: 1;
        }
        26% {
            opacity: 0;
        }
        28% {
            opacity: 1;
        }
        30% {
            opacity: 0;
        }
        32% {
            opacity: 1;
        }
        40% {
            opacity: 1;
        }
        40% {
            opacity: 1;
        }
        100% {
            opacity: 1;
        }
    }

    @keyframes boardie {
        0% {
            transform: translateY(0);
        }
        22% {
            transform: translateY(0);
        }
        24% {
            transform: translateY(0);
        }
        26% {
            transform: translateY(0);
        }
        28% {
            transform: translateY(0);
        }
        30% {
            transform: translateY(0);
        }
        32% {
            transform: translateY(0);
        }
        40% {
            transform: translateY(0);
        }
        48% {
            transform: translateY(30px);
        }
        100% {
            transform: translateY(30px);
        }
    }

    @keyframes unplugged {
        0% {
            opacity: 0;
        }
        40% {
            opacity: 0;
        }
        48% {
            opacity: 1;
        }
        100% {
            opacity: 1;
        }
    }

    #power-blocks {
        animation: power-blocks 4s ease-out;
        animation-iteration-count: infinite;
    }

    #power-boardie-2 {
        animation: power-boardie-2 4s ease-out;
        animation-iteration-count: infinite;
    }

    #power-boardie-3 {
        animation: power-boardie-3 4s ease-out;
        animation-iteration-count: infinite;
    }

    #leds-on {
        animation: leds-on 4s ease-out;
        animation-iteration-count: infinite;
    }

    #boardie-body {
        animation: boardie 4s ease-out;
        animation-iteration-count: infinite;
    }

    #unplugged {
        animation: unplugged 4s ease-out;
        animation-iteration-count: infinite;
    }
    
</style>
<g id="boardie-unplug-and-go">
<g id="browser">
<g id="window" filter="url(#filter0_d)">
<rect x="25" y="41.1562" width="350" height="220" rx="6" fill="white"/>
</g>
<g id="blocks">
<g id="Group 653" opacity="0.25">
<path id="Polygon 8" d="M53.8575 85.5708C53.4691 86.2182 52.5309 86.2182 52.1425 85.5708L47.9087 78.5145C47.5088 77.848 47.9889 77 48.7662 77L57.2338 77C58.0111 77 58.4912 77.848 58.0913 78.5145L53.8575 85.5708Z" fill="#01928B"/>
<path id="Rectangle 703" d="M41 50.1228C41 49.5027 41.684 49 42.5278 49H149.472C150.316 49 151 49.5027 151 50.1228V79.8772C151 80.4973 150.316 81 149.472 81H42.5278C41.684 81 41 80.4973 41 79.8772V50.1228Z" fill="#01928B"/>
</g>
<g id="Group 654" opacity="0.25">
<path id="Polygon 8_2" d="M53.8575 123.571C53.4691 124.218 52.5309 124.218 52.1425 123.571L47.9087 116.514C47.5088 115.848 47.9889 115 48.7662 115L57.2338 115C58.0111 115 58.4912 115.848 58.0913 116.514L53.8575 123.571Z" fill="#F58518"/>
<path id="Rectangle 703_2" d="M41 88.1228C41 87.5027 41.8581 87 42.9167 87H177.083C178.142 87 179 87.5027 179 88.1228V117.877C179 118.497 178.142 119 177.083 119H42.9167C41.8581 119 41 118.497 41 117.877V88.1228Z" fill="#F58518"/>
</g>
<g id="Group 655">
<path id="Rectangle 703_3" d="M41 126.123C41 125.503 41.7648 125 42.7083 125H162.292C163.235 125 164 125.503 164 126.123V155.877C164 156.497 163.235 157 162.292 157H42.7083C41.7648 157 41 156.497 41 155.877V126.123Z" fill="#009ECE"/>
</g>
<g id="make-robot-smile">
<path d="M53 145.298H55.0838V141.425C55.0838 140.777 55.4631 140.364 56.0085 140.364C56.5497 140.364 56.9077 140.743 56.9077 141.348V145.298H58.9105V141.391C58.9105 140.764 59.2557 140.364 59.831 140.364C60.3594 140.364 60.7344 140.717 60.7344 141.369V145.298H62.8182V140.892C62.8182 139.507 61.9659 138.668 60.7301 138.668C59.7628 138.668 59 139.175 58.7571 139.955H58.6889C58.5142 139.17 57.8111 138.668 56.9034 138.668C56.0085 138.668 55.3267 139.158 55.054 139.955H54.9815V138.753H53V145.298Z" fill="white"/>
<path d="M65.9545 145.409C66.8665 145.409 67.4972 145.055 67.8551 144.386H67.9062V145.298H69.8665V140.849C69.8665 139.464 68.6349 138.668 66.9688 138.668C65.2088 138.668 64.2116 139.554 64.0455 140.747L65.9673 140.815C66.0568 140.398 66.402 140.142 66.9517 140.142C67.4631 140.142 67.7869 140.389 67.7869 140.828V140.849C67.7869 141.25 67.3523 141.335 66.2358 141.433C64.9105 141.544 63.8026 142.034 63.8026 143.483C63.8026 144.778 64.7017 145.409 65.9545 145.409ZM66.598 144.045C66.1165 144.045 65.7756 143.815 65.7756 143.381C65.7756 142.959 66.108 142.703 66.7003 142.614C67.0881 142.558 67.5653 142.473 67.7997 142.349V142.972C67.7997 143.611 67.2628 144.045 66.598 144.045Z" fill="white"/>
<path d="M71.1406 145.298H73.2244V143.334L73.6463 142.822L75.206 145.298H77.6136L75.1974 141.604L77.5199 138.753H75.1591L73.3182 141.097H73.2244V136.571H71.1406V145.298Z" fill="white"/>
<path d="M81.0558 145.422C82.7731 145.422 83.9023 144.591 84.141 143.304L82.2276 143.249C82.0657 143.683 81.6396 143.918 81.0941 143.918C80.293 143.918 79.7987 143.385 79.7987 142.584V142.528H84.1623V142.009C84.1623 139.852 82.8498 138.668 80.9918 138.668C79.0146 138.668 77.7447 140.023 77.7447 142.051C77.7447 144.148 78.9975 145.422 81.0558 145.422ZM79.7987 141.318C79.8285 140.666 80.3441 140.172 81.0344 140.172C81.7205 140.172 82.2148 140.649 82.2234 141.318H79.7987Z" fill="white"/>
<path d="M87.8047 145.298H89.8885V141.744C89.8885 140.964 90.4425 140.44 91.1882 140.44C91.4354 140.44 91.8061 140.483 92.0064 140.551V138.74C91.8317 138.693 91.6143 138.663 91.4226 138.663C90.7067 138.663 90.1357 139.081 89.897 139.946H89.8288V138.753H87.8047V145.298Z" fill="white"/>
<path d="M95.571 145.422C97.6293 145.422 98.8778 144.062 98.8778 142.047C98.8778 140.027 97.6293 138.668 95.571 138.668C93.5128 138.668 92.2642 140.027 92.2642 142.047C92.2642 144.062 93.5128 145.422 95.571 145.422ZM95.5838 143.849C94.8125 143.849 94.3864 143.116 94.3864 142.034C94.3864 140.947 94.8125 140.21 95.5838 140.21C96.3295 140.21 96.7557 140.947 96.7557 142.034C96.7557 143.116 96.3295 143.849 95.5838 143.849Z" fill="white"/>
<path d="M99.9453 145.298H102.008V144.237H102.072C102.336 144.842 102.924 145.392 103.913 145.392C105.362 145.392 106.529 144.259 106.529 142.03C106.529 139.72 105.293 138.668 103.925 138.668C102.89 138.668 102.323 139.273 102.072 139.874H102.029V136.571H99.9453V145.298ZM101.987 142.026C101.987 140.956 102.43 140.295 103.192 140.295C103.964 140.295 104.39 140.973 104.39 142.026C104.39 143.082 103.964 143.768 103.192 143.768C102.43 143.768 101.987 143.087 101.987 142.026Z" fill="white"/>
<path d="M110.676 145.422C112.735 145.422 113.983 144.062 113.983 142.047C113.983 140.027 112.735 138.668 110.676 138.668C108.618 138.668 107.37 140.027 107.37 142.047C107.37 144.062 108.618 145.422 110.676 145.422ZM110.689 143.849C109.918 143.849 109.492 143.116 109.492 142.034C109.492 140.947 109.918 140.21 110.689 140.21C111.435 140.21 111.861 140.947 111.861 142.034C111.861 143.116 111.435 143.849 110.689 143.849Z" fill="white"/>
<path d="M118.745 138.753H117.565V137.185H115.481V138.753H114.616V140.287H115.481V143.47C115.468 144.795 116.329 145.46 117.799 145.392C118.302 145.366 118.664 145.264 118.865 145.205L118.549 143.7C118.46 143.722 118.251 143.764 118.093 143.764C117.757 143.764 117.565 143.628 117.565 143.24V140.287H118.745V138.753Z" fill="white"/>
<path d="M128.101 140.751C127.99 139.456 126.929 138.668 125.157 138.668C123.384 138.668 122.255 139.439 122.263 140.751C122.255 141.757 122.898 142.405 124.206 142.648L125.348 142.865C125.89 142.972 126.137 143.142 126.145 143.432C126.137 143.76 125.77 143.977 125.238 143.977C124.645 143.977 124.245 143.722 124.155 143.244L122.097 143.295C122.246 144.591 123.358 145.422 125.229 145.422C126.98 145.422 128.255 144.548 128.263 143.202C128.255 142.247 127.624 141.68 126.32 141.429L125.059 141.19C124.505 141.08 124.326 140.884 124.33 140.632C124.326 140.3 124.713 140.095 125.195 140.095C125.745 140.095 126.128 140.389 126.188 140.803L128.101 140.751Z" fill="white"/>
<path d="M129.289 145.298H131.373V141.425C131.373 140.777 131.752 140.364 132.298 140.364C132.839 140.364 133.197 140.743 133.197 141.348V145.298H135.2V141.391C135.2 140.764 135.545 140.364 136.12 140.364C136.648 140.364 137.023 140.717 137.023 141.369V145.298H139.107V140.892C139.107 139.507 138.255 138.668 137.019 138.668C136.052 138.668 135.289 139.175 135.046 139.955H134.978C134.803 139.17 134.1 138.668 133.192 138.668C132.298 138.668 131.616 139.158 131.343 139.955H131.271V138.753H129.289V145.298Z" fill="white"/>
<path d="M140.398 145.298H142.482V138.753H140.398V145.298ZM141.442 137.99C142.035 137.99 142.512 137.543 142.512 136.993C142.512 136.443 142.035 136 141.442 136C140.854 136 140.373 136.443 140.373 136.993C140.373 137.543 140.854 137.99 141.442 137.99Z" fill="white"/>
<path d="M145.892 136.571H143.809V145.298H145.892V136.571Z" fill="white"/>
<path d="M150.278 145.422C151.996 145.422 153.125 144.591 153.364 143.304L151.45 143.249C151.288 143.683 150.862 143.918 150.317 143.918C149.516 143.918 149.021 143.385 149.021 142.584V142.528H153.385V142.009C153.385 139.852 152.072 138.668 150.214 138.668C148.237 138.668 146.967 140.023 146.967 142.051C146.967 144.148 148.22 145.422 150.278 145.422ZM149.021 141.318C149.051 140.666 149.567 140.172 150.257 140.172C150.943 140.172 151.437 140.649 151.446 141.318H149.021Z" fill="white"/>
</g>
</g>
<path id="power-boardie-2" d="M250.104 63.8926L252.904 84.467L258.515 83.7035L260.806 100.537L270.845 76.3108L263.363 77.3288L266.938 61.6021L250.104 63.8926Z" fill="#FBC227"/>
<path id="title" d="M25 47.1562C25 43.8425 27.6863 41.1562 31 41.1562H369C372.314 41.1562 375 43.8425 375 47.1562V57.1562H25V47.1562Z" fill="#BDBDBD"/>
<g id="buttons">
<circle id="Ellipse 27" cx="33" cy="49.1992" r="3" fill="#757575"/>
<circle id="Ellipse 28" cx="41" cy="49.1992" r="3" fill="#757575"/>
<circle id="Ellipse 29" cx="49" cy="49.1992" r="3" fill="#757575"/>
</g>
</g>
<path id="power-boardie-3" d="M244.392 99.0391L245.999 110.851L249.34 110.397L250.655 120.061L256.697 106.115L252.242 106.721L254.414 97.6753L244.392 99.0391Z" fill="#FBC227"/>
<path id="power-blocks" d="M94 162V178.775H98.5749V192.5L109.25 174.2H103.15L107.725 162H94Z" fill="#FBC227"/>
<g id="boardie">
<g id="unplugged">
<circle id="Ellipse 39" cx="286.084" cy="129.12" r="24.3665" transform="rotate(1.60101 286.084 129.12)" fill="#FBC227"/>
<path id="icon/editor/highlight_24px" fill-rule="evenodd" clip-rule="evenodd" d="M286.406 144.857L284.562 144.824L284.549 141.977L286.392 142.01L286.406 144.857ZM293.475 141.262L292.173 142.581L290.197 140.526L291.499 139.207L293.475 141.262ZM278.846 142.466L280.802 140.483L279.479 139.116L277.531 141.099L278.846 142.466Z" fill="#2C2C2C"/>
</g>
<g id="wire-group">
<path id="wire" d="M287 113.499C290.001 80.999 314.501 88.3437 331.001 80C347.5 71.6563 347 45.4977 331.001 28.9994C318.175 15.774 273.405 6.93326 249.5 16.0002C235 21.5 228.5 32.9998 228.501 41" stroke="#616161" stroke-width="6"/>
<g id="plug">
<path id="Rectangle 725" d="M280.922 124.046C281.021 121.268 283.354 119.096 286.132 119.195V119.195C288.91 119.295 291.082 121.627 290.982 124.405L290.52 137.34L280.46 136.981L280.922 124.046Z" fill="#BDBDBD"/>
<g id="Rectangle 727" filter="url(#filter1_d)">
<path d="M279.483 118.744C279.616 115.018 282.744 112.106 286.469 112.239V112.239C290.195 112.372 293.107 115.5 292.974 119.226L292.572 130.469L279.081 129.987L279.483 118.744Z" fill="#3C3C3C"/>
<path d="M279.483 118.744C279.616 115.018 282.744 112.106 286.469 112.239V112.239C290.195 112.372 293.107 115.5 292.974 119.226L292.572 130.469L279.081 129.987L279.483 118.744Z" fill="url(#paint0_linear)"/>
</g>
</g>
</g>
<g id="boardie-body">
<g id="board" filter="url(#filter2_d)">
<rect x="241.072" y="130.469" width="90" height="90" rx="2" transform="rotate(2.04594 241.072 130.469)" fill="#111111"/>
</g>
<g id="leds-off">
<rect id="01x01" x="251.191" y="141.338" width="9" height="9" transform="rotate(2.04594 251.191 141.338)" fill="#303030"/>
<rect id="01x02" x="266.182" y="141.873" width="9" height="9" transform="rotate(2.04594 266.182 141.873)" fill="#303030"/>
<rect id="01x03" x="281.172" y="142.41" width="9" height="9" transform="rotate(2.04594 281.172 142.41)" fill="#303030"/>
<rect id="01x04" x="296.163" y="142.945" width="9" height="9" transform="rotate(2.04594 296.163 142.945)" fill="#303030"/>
<rect id="01x05" x="311.153" y="143.48" width="9" height="9" transform="rotate(2.04594 311.153 143.48)" fill="#303030"/>
<rect id="02x01" x="250.656" y="156.328" width="9" height="9" transform="rotate(2.04594 250.656 156.328)" fill="#303030"/>
<rect id="02x02" x="265.646" y="156.865" width="9" height="9" transform="rotate(2.04594 265.646 156.865)" fill="#303030"/>
<rect id="02x03" x="280.637" y="157.4" width="9" height="9" transform="rotate(2.04594 280.637 157.4)" fill="#303030"/>
<rect id="02x04" x="295.627" y="157.936" width="9" height="9" transform="rotate(2.04594 295.627 157.936)" fill="#303030"/>
<rect id="02x05" x="310.617" y="158.471" width="9" height="9" transform="rotate(2.04594 310.617 158.471)" fill="#303030"/>
<rect id="03x01" x="250.12" y="171.318" width="9" height="9" transform="rotate(2.04594 250.12 171.318)" fill="#303030"/>
<rect id="03x02" x="265.11" y="171.855" width="9" height="9" transform="rotate(2.04594 265.11 171.855)" fill="#303030"/>
<rect id="03x03" x="280.102" y="172.391" width="9" height="9" transform="rotate(2.04594 280.102 172.391)" fill="#303030"/>
<rect id="03x04" x="295.092" y="172.926" width="9" height="9" transform="rotate(2.04594 295.092 172.926)" fill="#303030"/>
<rect id="03x05" x="310.082" y="173.461" width="9" height="9" transform="rotate(2.04594 310.082 173.461)" fill="#303030"/>
<rect id="04x01" x="249.585" y="186.311" width="9" height="9" transform="rotate(2.04594 249.585 186.311)" fill="#303030"/>
<rect id="04x02" x="264.575" y="186.846" width="9" height="9" transform="rotate(2.04594 264.575 186.846)" fill="#303030"/>
<rect id="04x03" x="279.565" y="187.381" width="9" height="9" transform="rotate(2.04594 279.565 187.381)" fill="#303030"/>
<rect id="04x04" x="294.557" y="187.916" width="9" height="9" transform="rotate(2.04594 294.557 187.916)" fill="#303030"/>
<rect id="04x05" x="309.547" y="188.451" width="9" height="9" transform="rotate(2.04594 309.547 188.451)" fill="#303030"/>
<rect id="05x01" x="249.05" y="201.301" width="9" height="9" transform="rotate(2.04594 249.05 201.301)" fill="#303030"/>
<rect id="05x02" x="264.04" y="201.836" width="9" height="9" transform="rotate(2.04594 264.04 201.836)" fill="#303030"/>
<rect id="05x03" x="279.03" y="202.371" width="9" height="9" transform="rotate(2.04594 279.03 202.371)" fill="#303030"/>
<rect id="05x04" x="294.021" y="202.906" width="9" height="9" transform="rotate(2.04594 294.021 202.906)" fill="#303030"/>
<rect id="05x05" x="309.011" y="203.441" width="9" height="9" transform="rotate(2.04594 309.011 203.441)" fill="#303030"/>
</g>
<g id="leds-on">
<g id="02x02_2" filter="url(#filter3_d)">
<rect x="265.646" y="156.865" width="9" height="9" transform="rotate(2.04594 265.646 156.865)" fill="#25D366"/>
</g>
<g id="02x04_2" filter="url(#filter4_d)">
<rect x="295.626" y="157.936" width="9" height="9" transform="rotate(2.04594 295.626 157.936)" fill="#25D366"/>
</g>
<g id="04x01_2" filter="url(#filter5_d)">
<rect x="249.584" y="186.311" width="9" height="9" transform="rotate(2.04594 249.584 186.311)" fill="#25D366"/>
</g>
<g id="04x05_2" filter="url(#filter6_d)">
<rect x="309.546" y="188.451" width="9" height="9" transform="rotate(2.04594 309.546 188.451)" fill="#25D366"/>
</g>
<g id="05x02_2" filter="url(#filter7_d)">
<rect x="264.039" y="201.836" width="9" height="9" transform="rotate(2.04594 264.039 201.836)" fill="#25D366"/>
</g>
<g id="05x03_2" filter="url(#filter8_d)">
<rect x="279.029" y="202.371" width="9" height="9" transform="rotate(2.04594 279.029 202.371)" fill="#25D366"/>
</g>
<g id="05x04_2" filter="url(#filter9_d)">
<rect x="294.02" y="202.906" width="9" height="9" transform="rotate(2.04594 294.02 202.906)" fill="#25D366"/>
</g>
</g>
</g>
</g>
</g>
<defs>
<filter id="filter0_d" x="17" y="33.1562" width="366" height="236" filterUnits="userSpaceOnUse" color-interpolation-filters="sRGB">
<feFlood flood-opacity="0" result="BackgroundImageFix"/>
<feColorMatrix in="SourceAlpha" type="matrix" values="0 0 0 0 0 0 0 0 0 0 0 0 0 0 0 0 0 0 127 0"/>
<feOffset/>
<feGaussianBlur stdDeviation="4"/>
<feColorMatrix type="matrix" values="0 0 0 0 0.172549 0 0 0 0 0.172549 0 0 0 0 0.172549 0 0 0 0.5 0"/>
<feBlend mode="normal" in2="BackgroundImageFix" result="effect1_dropShadow"/>
<feBlend mode="normal" in="SourceGraphic" in2="effect1_dropShadow" result="shape"/>
</filter>
<filter id="filter1_d" x="271.081" y="103.998" width="30.134" height="34.4705" filterUnits="userSpaceOnUse" color-interpolation-filters="sRGB">
<feFlood flood-opacity="0" result="BackgroundImageFix"/>
<feColorMatrix in="SourceAlpha" type="matrix" values="0 0 0 0 0 0 0 0 0 0 0 0 0 0 0 0 0 0 127 0"/>
<feOffset/>
<feGaussianBlur stdDeviation="4"/>
<feColorMatrix type="matrix" values="0 0 0 0 0.172549 0 0 0 0 0.172549 0 0 0 0 0.172549 0 0 0 0.5 0"/>
<feBlend mode="normal" in2="BackgroundImageFix" result="effect1_dropShadow"/>
<feBlend mode="normal" in="SourceGraphic" in2="effect1_dropShadow" result="shape"/>
</filter>
<filter id="filter2_d" x="229.859" y="122.469" width="109.156" height="109.156" filterUnits="userSpaceOnUse" color-interpolation-filters="sRGB">
<feFlood flood-opacity="0" result="BackgroundImageFix"/>
<feColorMatrix in="SourceAlpha" type="matrix" values="0 0 0 0 0 0 0 0 0 0 0 0 0 0 0 0 0 0 127 0"/>
<feOffset/>
<feGaussianBlur stdDeviation="4"/>
<feColorMatrix type="matrix" values="0 0 0 0 0.172549 0 0 0 0 0.172549 0 0 0 0 0.172549 0 0 0 0.5 0"/>
<feBlend mode="normal" in2="BackgroundImageFix" result="effect1_dropShadow"/>
<feBlend mode="normal" in="SourceGraphic" in2="effect1_dropShadow" result="shape"/>
</filter>
<filter id="filter3_d" x="261.324" y="152.865" width="17.3156" height="17.3156" filterUnits="userSpaceOnUse" color-interpolation-filters="sRGB">
<feFlood flood-opacity="0" result="BackgroundImageFix"/>
<feColorMatrix in="SourceAlpha" type="matrix" values="0 0 0 0 0 0 0 0 0 0 0 0 0 0 0 0 0 0 127 0"/>
<feOffset/>
<feGaussianBlur stdDeviation="2"/>
<feColorMatrix type="matrix" values="0 0 0 0 0.486889 0 0 0 0 0.8375 0 0 0 0 0.436198 0 0 0 1 0"/>
<feBlend mode="normal" in2="BackgroundImageFix" result="effect1_dropShadow"/>
<feBlend mode="normal" in="SourceGraphic" in2="effect1_dropShadow" result="shape"/>
</filter>
<filter id="filter4_d" x="291.305" y="153.936" width="17.3156" height="17.3156" filterUnits="userSpaceOnUse" color-interpolation-filters="sRGB">
<feFlood flood-opacity="0" result="BackgroundImageFix"/>
<feColorMatrix in="SourceAlpha" type="matrix" values="0 0 0 0 0 0 0 0 0 0 0 0 0 0 0 0 0 0 127 0"/>
<feOffset/>
<feGaussianBlur stdDeviation="2"/>
<feColorMatrix type="matrix" values="0 0 0 0 0.486889 0 0 0 0 0.8375 0 0 0 0 0.436198 0 0 0 1 0"/>
<feBlend mode="normal" in2="BackgroundImageFix" result="effect1_dropShadow"/>
<feBlend mode="normal" in="SourceGraphic" in2="effect1_dropShadow" result="shape"/>
</filter>
<filter id="filter5_d" x="245.263" y="182.311" width="17.3156" height="17.3156" filterUnits="userSpaceOnUse" color-interpolation-filters="sRGB">
<feFlood flood-opacity="0" result="BackgroundImageFix"/>
<feColorMatrix in="SourceAlpha" type="matrix" values="0 0 0 0 0 0 0 0 0 0 0 0 0 0 0 0 0 0 127 0"/>
<feOffset/>
<feGaussianBlur stdDeviation="2"/>
<feColorMatrix type="matrix" values="0 0 0 0 0.486889 0 0 0 0 0.8375 0 0 0 0 0.436198 0 0 0 1 0"/>
<feBlend mode="normal" in2="BackgroundImageFix" result="effect1_dropShadow"/>
<feBlend mode="normal" in="SourceGraphic" in2="effect1_dropShadow" result="shape"/>
</filter>
<filter id="filter6_d" x="305.225" y="184.451" width="17.3156" height="17.3156" filterUnits="userSpaceOnUse" color-interpolation-filters="sRGB">
<feFlood flood-opacity="0" result="BackgroundImageFix"/>
<feColorMatrix in="SourceAlpha" type="matrix" values="0 0 0 0 0 0 0 0 0 0 0 0 0 0 0 0 0 0 127 0"/>
<feOffset/>
<feGaussianBlur stdDeviation="2"/>
<feColorMatrix type="matrix" values="0 0 0 0 0.486889 0 0 0 0 0.8375 0 0 0 0 0.436198 0 0 0 1 0"/>
<feBlend mode="normal" in2="BackgroundImageFix" result="effect1_dropShadow"/>
<feBlend mode="normal" in="SourceGraphic" in2="effect1_dropShadow" result="shape"/>
</filter>
<filter id="filter7_d" x="259.718" y="197.836" width="17.3156" height="17.3156" filterUnits="userSpaceOnUse" color-interpolation-filters="sRGB">
<feFlood flood-opacity="0" result="BackgroundImageFix"/>
<feColorMatrix in="SourceAlpha" type="matrix" values="0 0 0 0 0 0 0 0 0 0 0 0 0 0 0 0 0 0 127 0"/>
<feOffset/>
<feGaussianBlur stdDeviation="2"/>
<feColorMatrix type="matrix" values="0 0 0 0 0.486889 0 0 0 0 0.8375 0 0 0 0 0.436198 0 0 0 1 0"/>
<feBlend mode="normal" in2="BackgroundImageFix" result="effect1_dropShadow"/>
<feBlend mode="normal" in="SourceGraphic" in2="effect1_dropShadow" result="shape"/>
</filter>
<filter id="filter8_d" x="274.708" y="198.371" width="17.3156" height="17.3156" filterUnits="userSpaceOnUse" color-interpolation-filters="sRGB">
<feFlood flood-opacity="0" result="BackgroundImageFix"/>
<feColorMatrix in="SourceAlpha" type="matrix" values="0 0 0 0 0 0 0 0 0 0 0 0 0 0 0 0 0 0 127 0"/>
<feOffset/>
<feGaussianBlur stdDeviation="2"/>
<feColorMatrix type="matrix" values="0 0 0 0 0.486889 0 0 0 0 0.8375 0 0 0 0 0.436198 0 0 0 1 0"/>
<feBlend mode="normal" in2="BackgroundImageFix" result="effect1_dropShadow"/>
<feBlend mode="normal" in="SourceGraphic" in2="effect1_dropShadow" result="shape"/>
</filter>
<filter id="filter9_d" x="289.698" y="198.906" width="17.3156" height="17.3156" filterUnits="userSpaceOnUse" color-interpolation-filters="sRGB">
<feFlood flood-opacity="0" result="BackgroundImageFix"/>
<feColorMatrix in="SourceAlpha" type="matrix" values="0 0 0 0 0 0 0 0 0 0 0 0 0 0 0 0 0 0 127 0"/>
<feOffset/>
<feGaussianBlur stdDeviation="2"/>
<feColorMatrix type="matrix" values="0 0 0 0 0.486889 0 0 0 0 0.8375 0 0 0 0 0.436198 0 0 0 1 0"/>
<feBlend mode="normal" in2="BackgroundImageFix" result="effect1_dropShadow"/>
<feBlend mode="normal" in="SourceGraphic" in2="effect1_dropShadow" result="shape"/>
</filter>
<linearGradient id="paint0_linear" x1="279.402" y1="120.992" x2="292.894" y2="121.474" gradientUnits="userSpaceOnUse">
<stop stop-color="#2C2C2C"/>
<stop offset="0.5035" stop-color="#343434"/>
<stop offset="1" stop-color="#2C2C2C"/>
</linearGradient>
</defs>
</svg>
