<svg width="400" height="280" viewBox="0 0 400 280" fill="none" xmlns="http://www.w3.org/2000/svg">
<g filter="url(#filter0_d)">
<rect x="22" y="43.0723" width="350" height="217.865" rx="8" transform="rotate(-1.6104 22 43.0723)" fill="white"/>
<rect x="22.5139" y="43.558" width="349" height="216.865" rx="7.5" transform="rotate(-1.6104 22.5139 43.558)" stroke="#BDBDBD"/>
</g>
<path d="M288.266 54.4707L289.19 87.3341L298.152 87.0821L298.908 113.97L318.813 77.5314L306.863 77.8674L315.154 53.7148L288.266 54.4707Z" fill="#FFD200"/>
<path d="M275.07 103.064L275.654 123.82L281.315 123.661L281.792 140.643L294.364 117.629L286.816 117.841L292.052 102.587L275.07 103.064Z" fill="#FFD200"/>
<rect x="44.0625" y="128.217" width="105.393" height="29.8876" rx="2" transform="rotate(-1.6104 44.0625 128.217)" fill="#009ECE"/>
<rect opacity="0.25" x="43.0234" y="91.2656" width="143.933" height="29.8876" rx="2" transform="rotate(-1.6104 43.0234 91.2656)" fill="#F58518"/>
<rect opacity="0.25" x="42.0078" y="55.1016" width="85.7303" height="29.8876" rx="2" transform="rotate(-1.6104 42.0078 55.1016)" fill="#01928B"/>
<path d="M54.801 146.8L54.6475 141.341L56.0124 141.303L56.0291 141.897L56.2272 141.891C56.3175 141.705 56.4708 141.543 56.6872 141.405C56.9034 141.259 57.1913 141.181 57.5509 141.171C57.9398 141.16 58.2538 141.229 58.493 141.376C58.7319 141.516 58.9172 141.706 59.0487 141.944L59.2468 141.939C59.365 141.7 59.5356 141.501 59.7588 141.34C59.9819 141.18 60.3026 141.094 60.7209 141.082C61.0584 141.073 61.365 141.137 61.6406 141.276C61.9234 141.408 62.1496 141.618 62.3193 141.907C62.4961 142.189 62.5907 142.55 62.6031 142.99L62.704 146.578L61.3171 146.617L61.219 143.128C61.2105 142.827 61.1272 142.605 60.969 142.463C60.8106 142.313 60.5919 142.242 60.3131 142.25C59.9976 142.259 59.7546 142.369 59.5843 142.579C59.4211 142.782 59.3447 143.07 59.3553 143.445L59.4459 146.67L58.0591 146.709L57.961 143.22C57.9525 142.919 57.8692 142.697 57.7109 142.555C57.5525 142.405 57.3339 142.334 57.055 142.342C56.7395 142.351 56.4966 142.46 56.3262 142.671C56.163 142.874 56.0867 143.162 56.0972 143.536L56.1879 146.761L54.801 146.8Z" fill="white"/>
<path d="M65.6748 146.649C65.2859 146.66 64.9355 146.604 64.6236 146.48C64.3115 146.349 64.0601 146.158 63.8694 145.906C63.6859 145.647 63.5889 145.331 63.5783 144.956C63.5678 144.582 63.6471 144.268 63.8162 144.013C63.9924 143.751 64.2366 143.553 64.5486 143.42C64.8677 143.279 65.2328 143.202 65.6437 143.191L67.1406 143.149L67.132 142.841C67.1248 142.584 67.0382 142.377 66.8722 142.22C66.706 142.056 66.4468 141.979 66.0946 141.988C65.7497 141.998 65.4951 142.086 65.3309 142.252C65.1665 142.411 65.0621 142.616 65.0177 142.867L63.7289 142.474C63.8091 142.192 63.9414 141.935 64.1258 141.702C64.3173 141.462 64.5725 141.267 64.8915 141.119C65.2176 140.963 65.6154 140.878 66.085 140.865C66.8042 140.845 67.3779 141.009 67.8063 141.357C68.2346 141.704 68.4584 142.219 68.4776 142.902L68.5349 144.938C68.541 145.158 68.6469 145.265 68.8523 145.26L69.2926 145.247L69.3248 146.392L68.4002 146.418C68.1287 146.426 67.903 146.366 67.7232 146.239C67.5434 146.112 67.4504 145.938 67.4442 145.718L67.4439 145.707L67.2348 145.713C67.2079 145.802 67.1451 145.921 67.0465 146.071C66.9477 146.213 66.7898 146.342 66.5728 146.458C66.3557 146.575 66.0564 146.638 65.6748 146.649ZM65.8854 145.519C66.2743 145.508 66.5869 145.393 66.823 145.174C67.0663 144.946 67.1829 144.653 67.1728 144.293L67.1697 144.183L65.7719 144.223C65.515 144.23 65.3148 144.291 65.1711 144.405C65.0275 144.519 64.9584 144.675 64.964 144.873C64.9695 145.071 65.0511 145.231 65.2087 145.351C65.3663 145.471 65.5919 145.528 65.8854 145.519Z" fill="white"/>
<path d="M70.1187 146.37L69.902 138.665L71.2889 138.626L71.4087 142.886L71.6068 142.88L73.3553 140.815L75.1604 140.764L72.7141 143.477L75.402 146.221L73.6188 146.271L71.6427 144.157L71.4446 144.162L71.5055 146.331L70.1187 146.37Z" fill="white"/>
<path d="M78.2701 146.295C77.7271 146.31 77.2432 146.21 76.8186 145.994C76.401 145.771 76.069 145.453 75.8224 145.042C75.583 144.622 75.4552 144.127 75.4391 143.554L75.4354 143.422C75.4193 142.85 75.5191 142.351 75.7348 141.927C75.9504 141.495 76.2604 141.159 76.6649 140.92C77.0692 140.674 77.5429 140.543 78.0859 140.528C78.6216 140.513 79.0909 140.621 79.494 140.852C79.8968 141.075 80.2143 141.397 80.4464 141.816C80.6783 142.228 80.8021 142.713 80.8178 143.271L80.8311 143.744L76.8576 143.856C76.8828 144.23 77.0308 144.53 77.3015 144.758C77.5723 144.985 77.8985 145.093 78.2801 145.083C78.669 145.072 78.9528 144.979 79.1315 144.805C79.3102 144.632 79.4443 144.44 79.534 144.232L80.6844 144.795C80.587 144.989 80.4425 145.202 80.2507 145.435C80.0661 145.66 79.8147 145.858 79.4963 146.029C79.1778 146.192 78.769 146.281 78.2701 146.295ZM76.8395 142.821L79.3931 142.749C79.3549 142.434 79.2194 142.185 78.9865 142.001C78.761 141.816 78.4685 141.729 78.1089 141.739C77.7347 141.749 77.4402 141.853 77.2254 142.05C77.0106 142.247 76.882 142.504 76.8395 142.821Z" fill="white"/>
<path d="M84.4852 145.966L84.3317 140.506L85.6966 140.468L85.7139 141.084L85.912 141.079C85.9866 140.856 86.1141 140.691 86.2947 140.583C86.4826 140.475 86.7013 140.418 86.9508 140.411L87.6112 140.392L87.6458 141.625L86.9634 141.644C86.6112 141.654 86.324 141.758 86.1019 141.955C85.8796 142.145 85.7739 142.434 85.7848 142.823L85.8721 145.927L84.4852 145.966Z" fill="white"/>
<path d="M91.0376 145.936C90.4946 145.951 90.0035 145.855 89.5644 145.647C89.1253 145.439 88.7751 145.129 88.5139 144.718C88.2526 144.307 88.1137 143.808 88.0972 143.22L88.0923 143.044C88.0758 142.457 88.1864 141.951 88.4241 141.526C88.6618 141.101 88.9941 140.772 89.4208 140.54C89.8476 140.307 90.3325 140.183 90.8755 140.168C91.4185 140.153 91.9095 140.249 92.3487 140.457C92.7878 140.665 93.138 140.975 93.3992 141.386C93.6605 141.797 93.7994 142.296 93.8159 142.883L93.8208 143.06C93.8373 143.647 93.7267 144.153 93.489 144.578C93.2512 145.003 92.919 145.332 92.4923 145.564C92.0655 145.797 91.5806 145.921 91.0376 145.936ZM91.003 144.703C91.4286 144.691 91.777 144.545 92.0482 144.266C92.3192 143.979 92.4475 143.579 92.433 143.066L92.4299 142.955C92.4155 142.442 92.265 142.053 91.9785 141.789C91.6992 141.518 91.3431 141.389 90.9101 141.401C90.4845 141.413 90.1362 141.562 89.8652 141.849C89.594 142.128 89.4656 142.525 89.4801 143.038L89.4832 143.148C89.4976 143.662 89.6482 144.054 89.9349 144.325C90.2213 144.589 90.5774 144.715 91.003 144.703Z" fill="white"/>
<path d="M98.2395 145.733C97.7478 145.747 97.3676 145.673 97.0987 145.512C96.8297 145.351 96.63 145.169 96.4995 144.967L96.3014 144.973L96.3199 145.633L94.9551 145.671L94.7385 137.967L96.1253 137.928L96.2061 140.8L96.4042 140.795C96.4812 140.66 96.5841 140.533 96.7129 140.412C96.849 140.29 97.0261 140.19 97.2442 140.11C97.4694 140.023 97.7471 139.975 98.0773 139.966C98.5176 139.953 98.928 140.052 99.3084 140.262C99.6886 140.464 99.9983 140.771 100.238 141.183C100.477 141.595 100.605 142.098 100.621 142.692L100.626 142.868C100.643 143.463 100.544 143.972 100.328 144.397C100.112 144.821 99.8203 145.149 99.4523 145.38C99.084 145.603 98.6798 145.721 98.2395 145.733ZM97.7872 144.534C98.2128 144.522 98.5649 144.377 98.8434 144.097C99.1217 143.81 99.2535 143.403 99.2386 142.874L99.2355 142.764C99.2207 142.236 99.0663 141.84 98.7725 141.576C98.4859 141.305 98.126 141.176 97.6931 141.188C97.2675 141.2 96.9155 141.35 96.6372 141.636C96.3587 141.916 96.2268 142.32 96.2417 142.848L96.2448 142.958C96.2596 143.487 96.414 143.886 96.7081 144.157C97.0019 144.421 97.3616 144.546 97.7872 144.534Z" fill="white"/>
<path d="M104.356 145.561C103.813 145.577 103.322 145.48 102.883 145.272C102.444 145.064 102.093 144.755 101.832 144.343C101.571 143.932 101.432 143.433 101.416 142.846L101.411 142.67C101.394 142.083 101.505 141.577 101.742 141.151C101.98 140.726 102.312 140.397 102.739 140.165C103.166 139.933 103.651 139.809 104.194 139.794C104.737 139.778 105.228 139.875 105.667 140.083C106.106 140.291 106.456 140.6 106.718 141.012C106.979 141.423 107.118 141.922 107.134 142.509L107.139 142.685C107.156 143.272 107.045 143.778 106.807 144.204C106.57 144.629 106.237 144.958 105.811 145.19C105.384 145.422 104.899 145.546 104.356 145.561ZM104.321 144.329C104.747 144.317 105.095 144.171 105.367 143.892C105.638 143.605 105.766 143.205 105.751 142.691L105.748 142.581C105.734 142.067 105.583 141.679 105.297 141.415C105.018 141.144 104.661 141.014 104.228 141.027C103.803 141.038 103.455 141.188 103.184 141.474C102.912 141.754 102.784 142.15 102.798 142.664L102.802 142.774C102.816 143.288 102.967 143.68 103.253 143.951C103.54 144.215 103.896 144.341 104.321 144.329Z" fill="white"/>
<path d="M110.193 145.243C109.833 145.253 109.537 145.151 109.303 144.938C109.076 144.716 108.958 144.419 108.947 144.044L108.861 140.962L107.496 141.001L107.464 139.856L108.829 139.818L108.781 138.123L110.168 138.084L110.215 139.779L111.712 139.737L111.744 140.881L110.248 140.923L110.327 143.763C110.334 143.983 110.439 144.09 110.645 144.085L111.702 144.055L111.734 145.2L110.193 145.243Z" fill="white"/>
<path d="M117.747 145.185C117.036 145.205 116.448 145.067 115.984 144.772C115.521 144.476 115.233 144.044 115.122 143.474L116.389 143.108C116.448 143.363 116.538 143.563 116.659 143.706C116.788 143.85 116.942 143.952 117.12 144.013C117.305 144.066 117.504 144.09 117.716 144.084C118.039 144.075 118.276 144.013 118.427 143.899C118.578 143.777 118.651 143.632 118.646 143.463C118.642 143.294 118.565 143.168 118.415 143.084C118.266 142.993 118.029 142.922 117.704 142.873L117.395 142.826C117.011 142.764 116.66 142.675 116.341 142.559C116.021 142.435 115.763 142.263 115.566 142.041C115.369 141.819 115.265 141.528 115.255 141.168C115.24 140.625 115.426 140.205 115.814 139.908C116.202 139.603 116.719 139.442 117.365 139.423C117.974 139.406 118.484 139.528 118.895 139.788C119.307 140.048 119.581 140.397 119.718 140.833L118.441 141.266C118.375 140.989 118.248 140.794 118.061 140.682C117.882 140.569 117.66 140.517 117.396 140.524C117.132 140.532 116.931 140.585 116.795 140.684C116.658 140.776 116.592 140.903 116.596 141.064C116.601 141.24 116.678 141.37 116.827 141.454C116.976 141.531 117.176 141.588 117.427 141.625L117.737 141.671C118.15 141.733 118.523 141.822 118.857 141.937C119.198 142.045 119.467 142.21 119.664 142.432C119.868 142.647 119.976 142.945 119.986 143.326C120.002 143.899 119.806 144.349 119.396 144.676C118.994 144.996 118.444 145.165 117.747 145.185Z" fill="white"/>
<path d="M121.028 144.938L120.874 139.479L122.239 139.441L122.256 140.035L122.454 140.029C122.544 139.843 122.697 139.681 122.914 139.543C123.13 139.397 123.418 139.319 123.778 139.309C124.166 139.298 124.48 139.367 124.72 139.514C124.959 139.654 125.144 139.844 125.275 140.082L125.473 140.077C125.592 139.838 125.762 139.639 125.985 139.479C126.209 139.318 126.529 139.232 126.947 139.22C127.285 139.211 127.592 139.275 127.867 139.415C128.15 139.546 128.376 139.756 128.546 140.045C128.723 140.327 128.817 140.688 128.83 141.128L128.931 144.716L127.544 144.755L127.446 141.266C127.437 140.965 127.354 140.744 127.196 140.601C127.037 140.451 126.819 140.38 126.54 140.388C126.224 140.397 125.981 140.507 125.811 140.717C125.648 140.92 125.571 141.209 125.582 141.583L125.673 144.808L124.286 144.847L124.188 141.358C124.179 141.057 124.096 140.835 123.938 140.693C123.779 140.543 123.561 140.472 123.282 140.48C122.966 140.489 122.723 140.598 122.553 140.809C122.39 141.012 122.313 141.3 122.324 141.674L122.415 144.899L121.028 144.938Z" fill="white"/>
<path d="M130.202 144.68L130.049 139.221L131.435 139.182L131.589 144.641L130.202 144.68ZM130.724 138.563C130.475 138.57 130.26 138.495 130.079 138.339C129.906 138.182 129.815 137.972 129.808 137.708C129.8 137.444 129.879 137.228 130.043 137.062C130.215 136.896 130.425 136.809 130.675 136.802C130.931 136.795 131.146 136.87 131.32 137.026C131.493 137.183 131.583 137.393 131.591 137.658C131.598 137.922 131.52 138.137 131.356 138.303C131.191 138.469 130.981 138.556 130.724 138.563Z" fill="white"/>
<path d="M132.906 144.604L132.689 136.9L134.076 136.861L134.293 144.565L132.906 144.604Z" fill="white"/>
<path d="M138.101 144.613C137.558 144.628 137.074 144.528 136.65 144.312C136.232 144.089 135.9 143.771 135.653 143.36C135.414 142.94 135.286 142.445 135.27 141.872L135.266 141.74C135.25 141.168 135.35 140.669 135.566 140.245C135.781 139.813 136.091 139.477 136.496 139.238C136.9 138.992 137.374 138.861 137.917 138.846C138.453 138.831 138.922 138.939 139.325 139.17C139.728 139.393 140.045 139.715 140.277 140.134C140.509 140.546 140.633 141.031 140.649 141.589L140.662 142.062L136.689 142.174C136.714 142.548 136.862 142.848 137.133 143.076C137.403 143.303 137.73 143.411 138.111 143.401C138.5 143.39 138.784 143.297 138.963 143.123C139.141 142.949 139.275 142.758 139.365 142.55L140.515 143.113C140.418 143.306 140.273 143.52 140.082 143.753C139.897 143.978 139.646 144.176 139.327 144.347C139.009 144.51 138.6 144.599 138.101 144.613ZM136.671 141.139L139.224 141.067C139.186 140.752 139.05 140.503 138.818 140.318C138.592 140.134 138.3 140.047 137.94 140.057C137.566 140.067 137.271 140.171 137.056 140.368C136.842 140.565 136.713 140.822 136.671 141.139Z" fill="white"/>
<path d="M30.0109 43.3472L363.879 33.9608C368.019 33.8444 371.47 37.1066 371.587 41.2471L371.878 51.6194L23.0162 61.4274L22.7246 51.0551C22.6082 46.9146 25.8704 43.4637 30.0109 43.3472Z" fill="#BDBDBD" stroke="#BDBDBD"/>
<path d="M293.455 139.423C292.541 128.951 286.264 117.434 288.569 101.769C290.789 80.6819 316.72 62.482 313.288 34.8576C311.355 16.6571 290.1 3.0988 263.869 12.2506C250.907 16.7729 248.478 30.135 248.662 36.6745" stroke="#4D4D4D" stroke-width="6"/>
<g filter="url(#filter1_d)">
<path d="M289.197 146.082C288.932 143.223 291.034 140.691 293.892 140.426V140.426C296.751 140.161 299.283 142.263 299.548 145.122L300.669 157.198L290.317 158.158L289.197 146.082Z" fill="white"/>
</g>
<g filter="url(#filter2_d)">
<rect x="252.363" y="161.679" width="86.6312" height="86.6312" transform="rotate(-5.30009 252.363 161.679)" fill="#333333"/>
<rect x="252.363" y="161.679" width="86.6312" height="86.6312" transform="rotate(-5.30009 252.363 161.679)" fill="url(#paint0_radial)" fill-opacity="0.2" style="mix-blend-mode:soft-light"/>
</g>
<g filter="url(#filter3_d)">
<path d="M287.377 145.208C287.023 141.396 289.826 138.02 293.637 137.666V137.666C297.448 137.313 300.825 140.116 301.178 143.927L302.139 154.278L288.337 155.559L287.377 145.208Z" fill="#4D4D4D"/>
<path d="M287.377 145.208C287.023 141.396 289.826 138.02 293.637 137.666V137.666C297.448 137.313 300.825 140.116 301.178 143.927L302.139 154.278L288.337 155.559L287.377 145.208Z" fill="url(#paint1_radial)" fill-opacity="0.2" style="mix-blend-mode:soft-light"/>
</g>
<rect x="265.561" y="172.636" width="6.9305" height="6.9305" transform="rotate(-5.30009 265.561 172.636)" fill="#4D4D4D"/>
<rect x="266.84" y="186.437" width="6.9305" height="6.9305" transform="rotate(-5.30009 266.84 186.437)" fill="#4D4D4D"/>
<rect x="268.121" y="200.239" width="6.9305" height="6.9305" transform="rotate(-5.30009 268.121 200.239)" fill="#4D4D4D"/>
<g filter="url(#filter4_d)">
<rect x="269.404" y="214.04" width="6.9305" height="6.9305" transform="rotate(-5.30009 269.404 214.04)" fill="#25D366"/>
</g>
<rect x="270.684" y="227.843" width="6.9305" height="6.9305" transform="rotate(-5.30009 270.684 227.843)" fill="#4D4D4D"/>
<rect x="279.363" y="171.354" width="6.9305" height="6.9305" transform="rotate(-5.30009 279.363 171.354)" fill="#4D4D4D"/>
<g filter="url(#filter5_d)">
<rect x="280.643" y="185.157" width="6.9305" height="6.9305" transform="rotate(-5.30009 280.643 185.157)" fill="#25D366"/>
</g>
<rect x="281.922" y="198.958" width="6.9305" height="6.9305" transform="rotate(-5.30009 281.922 198.958)" fill="#4D4D4D"/>
<rect x="283.201" y="212.76" width="6.9305" height="6.9305" transform="rotate(-5.30009 283.201 212.76)" fill="#4D4D4D"/>
<g filter="url(#filter6_d)">
<rect x="284.486" y="226.562" width="6.9305" height="6.9305" transform="rotate(-5.30009 284.486 226.562)" fill="#25D366"/>
</g>
<rect x="293.166" y="170.074" width="6.9305" height="6.9305" transform="rotate(-5.30009 293.166 170.074)" fill="#4D4D4D"/>
<rect x="294.445" y="183.876" width="6.9305" height="6.9305" transform="rotate(-5.30009 294.445 183.876)" fill="#4D4D4D"/>
<rect x="295.725" y="197.678" width="6.9305" height="6.9305" transform="rotate(-5.30009 295.725 197.678)" fill="#4D4D4D"/>
<rect x="297.004" y="211.48" width="6.9305" height="6.9305" transform="rotate(-5.30009 297.004 211.48)" fill="#4D4D4D"/>
<g filter="url(#filter7_d)">
<rect x="298.287" y="225.281" width="6.9305" height="6.9305" transform="rotate(-5.30009 298.287 225.281)" fill="#25D366"/>
</g>
<rect x="306.969" y="168.794" width="6.9305" height="6.9305" transform="rotate(-5.30009 306.969 168.794)" fill="#4D4D4D"/>
<g filter="url(#filter8_d)">
<rect x="308.248" y="182.596" width="6.9305" height="6.9305" transform="rotate(-5.30009 308.248 182.596)" fill="#25D366"/>
</g>
<rect x="309.527" y="196.398" width="6.9305" height="6.9305" transform="rotate(-5.30009 309.527 196.398)" fill="#4D4D4D"/>
<rect x="310.807" y="210.199" width="6.9305" height="6.9305" transform="rotate(-5.30009 310.807 210.199)" fill="#4D4D4D"/>
<g filter="url(#filter9_d)">
<rect x="312.086" y="224.002" width="6.9305" height="6.9305" transform="rotate(-5.30009 312.086 224.002)" fill="#25D366"/>
</g>
<rect x="320.77" y="167.514" width="6.9305" height="6.9305" transform="rotate(-5.30009 320.77 167.514)" fill="#4D4D4D"/>
<rect x="322.049" y="181.316" width="6.9305" height="6.9305" transform="rotate(-5.30009 322.049 181.316)" fill="#4D4D4D"/>
<rect x="323.328" y="195.117" width="6.9305" height="6.9305" transform="rotate(-5.30009 323.328 195.117)" fill="#4D4D4D"/>
<g filter="url(#filter10_d)">
<rect x="324.609" y="208.92" width="6.9305" height="6.9305" transform="rotate(-5.30009 324.609 208.92)" fill="#25D366"/>
</g>
<rect x="325.889" y="222.721" width="6.9305" height="6.9305" transform="rotate(-5.30009 325.889 222.721)" fill="#4D4D4D"/>
<circle cx="32.4852" cy="52.2205" r="3.14607" transform="rotate(-1.6104 32.4852 52.2205)" fill="#757575"/>
<circle cx="41.9207" cy="51.9548" r="3.14607" transform="rotate(-1.6104 41.9207 51.9548)" fill="#757575"/>
<circle cx="51.3543" cy="51.6892" r="3.14607" transform="rotate(-1.6104 51.3543 51.6892)" fill="#757575"/>
<path d="M92.5801 161.754L92.9225 173.932L96.2437 173.838L96.5238 183.802L103.9 170.299L99.4716 170.424L102.544 161.474L92.5801 161.754Z" fill="#FED722"/>
<defs>
<filter id="filter0_d" x="10" y="21.2363" width="379.984" height="251.615" filterUnits="userSpaceOnUse" color-interpolation-filters="sRGB">
<feFlood flood-opacity="0" result="BackgroundImageFix"/>
<feColorMatrix in="SourceAlpha" type="matrix" values="0 0 0 0 0 0 0 0 0 0 0 0 0 0 0 0 0 0 127 0"/>
<feOffset/>
<feGaussianBlur stdDeviation="6"/>
<feColorMatrix type="matrix" values="0 0 0 0 0 0 0 0 0 0 0 0 0 0 0 0 0 0 0.25 0"/>
<feBlend mode="normal" in2="BackgroundImageFix" result="effect1_dropShadow"/>
<feBlend mode="normal" in="SourceGraphic" in2="effect1_dropShadow" result="shape"/>
</filter>
<filter id="filter1_d" x="276.717" y="127.946" width="35.9518" height="42.2124" filterUnits="userSpaceOnUse" color-interpolation-filters="sRGB">
<feFlood flood-opacity="0" result="BackgroundImageFix"/>
<feColorMatrix in="SourceAlpha" type="matrix" values="0 0 0 0 0 0 0 0 0 0 0 0 0 0 0 0 0 0 127 0"/>
<feOffset/>
<feGaussianBlur stdDeviation="6"/>
<feColorMatrix type="matrix" values="0 0 0 0 0 0 0 0 0 0 0 0 0 0 0 0 0 0 0.5 0"/>
<feBlend mode="normal" in2="BackgroundImageFix" result="effect1_dropShadow"/>
<feBlend mode="normal" in="SourceGraphic" in2="effect1_dropShadow" result="shape"/>
</filter>
<filter id="filter2_d" x="246.363" y="147.677" width="106.263" height="106.263" filterUnits="userSpaceOnUse" color-interpolation-filters="sRGB">
<feFlood flood-opacity="0" result="BackgroundImageFix"/>
<feColorMatrix in="SourceAlpha" type="matrix" values="0 0 0 0 0 0 0 0 0 0 0 0 0 0 0 0 0 0 127 0"/>
<feOffset/>
<feGaussianBlur stdDeviation="3"/>
<feColorMatrix type="matrix" values="0 0 0 0 0 0 0 0 0 0 0 0 0 0 0 0 0 0 0.5 0"/>
<feBlend mode="normal" in2="BackgroundImageFix" result="effect1_dropShadow"/>
<feBlend mode="normal" in="SourceGraphic" in2="effect1_dropShadow" result="shape"/>
</filter>
<filter id="filter3_d" x="280.736" y="131.026" width="27.4022" height="30.5325" filterUnits="userSpaceOnUse" color-interpolation-filters="sRGB">
<feFlood flood-opacity="0" result="BackgroundImageFix"/>
<feColorMatrix in="SourceAlpha" type="matrix" values="0 0 0 0 0 0 0 0 0 0 0 0 0 0 0 0 0 0 127 0"/>
<feOffset/>
<feGaussianBlur stdDeviation="3"/>
<feColorMatrix type="matrix" values="0 0 0 0 0 0 0 0 0 0 0 0 0 0 0 0 0 0 0.5 0"/>
<feBlend mode="normal" in2="BackgroundImageFix" result="effect1_dropShadow"/>
<feBlend mode="normal" in="SourceGraphic" in2="effect1_dropShadow" result="shape"/>
</filter>
<filter id="filter4_d" x="253.404" y="197.399" width="39.5411" height="39.5411" filterUnits="userSpaceOnUse" color-interpolation-filters="sRGB">
<feFlood flood-opacity="0" result="BackgroundImageFix"/>
<feColorMatrix in="SourceAlpha" type="matrix" values="0 0 0 0 0 0 0 0 0 0 0 0 0 0 0 0 0 0 127 0"/>
<feOffset/>
<feGaussianBlur stdDeviation="8"/>
<feColorMatrix type="matrix" values="0 0 0 0 0.8 0 0 0 0 1 0 0 0 0 0.6 0 0 0 1 0"/>
<feBlend mode="soft-light" in2="BackgroundImageFix" result="effect1_dropShadow"/>
<feBlend mode="normal" in="SourceGraphic" in2="effect1_dropShadow" result="shape"/>
</filter>
<filter id="filter5_d" x="264.643" y="168.517" width="39.5411" height="39.5411" filterUnits="userSpaceOnUse" color-interpolation-filters="sRGB">
<feFlood flood-opacity="0" result="BackgroundImageFix"/>
<feColorMatrix in="SourceAlpha" type="matrix" values="0 0 0 0 0 0 0 0 0 0 0 0 0 0 0 0 0 0 127 0"/>
<feOffset/>
<feGaussianBlur stdDeviation="8"/>
<feColorMatrix type="matrix" values="0 0 0 0 0.8 0 0 0 0 1 0 0 0 0 0.6 0 0 0 1 0"/>
<feBlend mode="soft-light" in2="BackgroundImageFix" result="effect1_dropShadow"/>
<feBlend mode="normal" in="SourceGraphic" in2="effect1_dropShadow" result="shape"/>
</filter>
<filter id="filter6_d" x="268.486" y="209.922" width="39.5411" height="39.5411" filterUnits="userSpaceOnUse" color-interpolation-filters="sRGB">
<feFlood flood-opacity="0" result="BackgroundImageFix"/>
<feColorMatrix in="SourceAlpha" type="matrix" values="0 0 0 0 0 0 0 0 0 0 0 0 0 0 0 0 0 0 127 0"/>
<feOffset/>
<feGaussianBlur stdDeviation="8"/>
<feColorMatrix type="matrix" values="0 0 0 0 0.8 0 0 0 0 1 0 0 0 0 0.6 0 0 0 1 0"/>
<feBlend mode="soft-light" in2="BackgroundImageFix" result="effect1_dropShadow"/>
<feBlend mode="normal" in="SourceGraphic" in2="effect1_dropShadow" result="shape"/>
</filter>
<filter id="filter7_d" x="282.287" y="208.641" width="39.5411" height="39.5411" filterUnits="userSpaceOnUse" color-interpolation-filters="sRGB">
<feFlood flood-opacity="0" result="BackgroundImageFix"/>
<feColorMatrix in="SourceAlpha" type="matrix" values="0 0 0 0 0 0 0 0 0 0 0 0 0 0 0 0 0 0 127 0"/>
<feOffset/>
<feGaussianBlur stdDeviation="8"/>
<feColorMatrix type="matrix" values="0 0 0 0 0.8 0 0 0 0 1 0 0 0 0 0.6 0 0 0 1 0"/>
<feBlend mode="soft-light" in2="BackgroundImageFix" result="effect1_dropShadow"/>
<feBlend mode="normal" in="SourceGraphic" in2="effect1_dropShadow" result="shape"/>
</filter>
<filter id="filter8_d" x="292.248" y="165.955" width="39.5411" height="39.5411" filterUnits="userSpaceOnUse" color-interpolation-filters="sRGB">
<feFlood flood-opacity="0" result="BackgroundImageFix"/>
<feColorMatrix in="SourceAlpha" type="matrix" values="0 0 0 0 0 0 0 0 0 0 0 0 0 0 0 0 0 0 127 0"/>
<feOffset/>
<feGaussianBlur stdDeviation="8"/>
<feColorMatrix type="matrix" values="0 0 0 0 0.8 0 0 0 0 1 0 0 0 0 0.6 0 0 0 1 0"/>
<feBlend mode="soft-light" in2="BackgroundImageFix" result="effect1_dropShadow"/>
<feBlend mode="normal" in="SourceGraphic" in2="effect1_dropShadow" result="shape"/>
</filter>
<filter id="filter9_d" x="296.086" y="207.361" width="39.5411" height="39.5411" filterUnits="userSpaceOnUse" color-interpolation-filters="sRGB">
<feFlood flood-opacity="0" result="BackgroundImageFix"/>
<feColorMatrix in="SourceAlpha" type="matrix" values="0 0 0 0 0 0 0 0 0 0 0 0 0 0 0 0 0 0 127 0"/>
<feOffset/>
<feGaussianBlur stdDeviation="8"/>
<feColorMatrix type="matrix" values="0 0 0 0 0.8 0 0 0 0 1 0 0 0 0 0.6 0 0 0 1 0"/>
<feBlend mode="soft-light" in2="BackgroundImageFix" result="effect1_dropShadow"/>
<feBlend mode="normal" in="SourceGraphic" in2="effect1_dropShadow" result="shape"/>
</filter>
<filter id="filter10_d" x="308.609" y="192.279" width="39.5411" height="39.5411" filterUnits="userSpaceOnUse" color-interpolation-filters="sRGB">
<feFlood flood-opacity="0" result="BackgroundImageFix"/>
<feColorMatrix in="SourceAlpha" type="matrix" values="0 0 0 0 0 0 0 0 0 0 0 0 0 0 0 0 0 0 127 0"/>
<feOffset/>
<feGaussianBlur stdDeviation="8"/>
<feColorMatrix type="matrix" values="0 0 0 0 0.8 0 0 0 0 1 0 0 0 0 0.6 0 0 0 1 0"/>
<feBlend mode="soft-light" in2="BackgroundImageFix" result="effect1_dropShadow"/>
<feBlend mode="normal" in="SourceGraphic" in2="effect1_dropShadow" result="shape"/>
</filter>
<radialGradient id="paint0_radial" cx="0" cy="0" r="1" gradientUnits="userSpaceOnUse" gradientTransform="translate(295.679 204.994) rotate(90) scale(43.3156)">
<stop stop-color="white" stop-opacity="0"/>
<stop offset="1"/>
</radialGradient>
<radialGradient id="paint1_radial" cx="0" cy="0" r="1" gradientUnits="userSpaceOnUse" gradientTransform="translate(294.437 146.293) rotate(84.6999) scale(8.66312 6.9305)">
<stop stop-color="white" stop-opacity="0"/>
<stop offset="1"/>
</radialGradient>
</defs>
</svg>
