<svg width="400" height="280" viewBox="0 0 400 280" fill="none" xmlns="http://www.w3.org/2000/svg">
<g filter="url(#filter0_d)">
<rect x="28.1934" y="24.6152" width="349.137" height="217.328" rx="8" transform="rotate(1.63292 28.1934 24.6152)" fill="white"/>
<rect x="28.6789" y="25.1293" width="348.137" height="216.328" rx="7.5" transform="rotate(1.63292 28.6789 25.1293)" stroke="#BDBDBD"/>
</g>
<rect opacity="0.25" x="48.6465" y="105.623" width="123.179" height="29.8139" rx="2" transform="rotate(1.63292 48.6465 105.623)" fill="#E7362E"/>
<rect x="200.791" y="109.961" width="105.133" height="29.8139" rx="2" transform="rotate(1.63292 200.791 109.961)" fill="#009ECE"/>
<rect opacity="0.25" x="49.6973" y="68.7637" width="59.6278" height="29.8139" rx="2" transform="rotate(1.63292 49.6973 68.7637)" fill="#009ECE"/>
<rect opacity="0.25" x="201.842" y="73.1016" width="143.578" height="29.8139" rx="2" transform="rotate(1.63292 201.842 73.1016)" fill="#B6519D"/>
<rect opacity="0.25" x="50.7246" y="32.6895" width="123.179" height="29.8139" rx="2" transform="rotate(1.63292 50.7246 32.6895)" fill="#F58518"/>
<rect x="47.5957" y="142.484" width="95.7184" height="29.8139" rx="2" transform="rotate(1.63292 47.5957 142.484)" fill="#009ECE"/>
<rect opacity="0.25" x="202.873" y="37.0254" width="85.5189" height="29.8139" rx="2" transform="rotate(1.63292 202.873 37.0254)" fill="#01928B"/>
<path d="M57.2633 160.811L57.4186 155.365L58.78 155.404L58.7631 155.997L58.9608 156.002C59.0611 155.822 59.223 155.669 59.4464 155.544C59.6699 155.411 59.961 155.349 60.3197 155.36C60.7076 155.371 61.0165 155.456 61.2464 155.617C61.4764 155.77 61.6502 155.969 61.7678 156.214L61.9654 156.22C62.0965 155.989 62.2777 155.8 62.509 155.653C62.7403 155.506 63.0646 155.438 63.4818 155.45C63.8185 155.459 64.1202 155.541 64.3869 155.695C64.6611 155.842 64.8745 156.065 65.0272 156.362C65.1874 156.652 65.2612 157.017 65.2487 157.456L65.1467 161.035L63.7633 160.996L63.8625 157.515C63.871 157.215 63.8005 156.99 63.651 156.839C63.5017 156.681 63.2879 156.598 63.0098 156.59C62.695 156.581 62.4469 156.677 62.2654 156.877C62.0914 157.069 61.9991 157.352 61.9884 157.726L61.8967 160.943L60.5133 160.903L60.6125 157.423C60.6211 157.123 60.5506 156.897 60.401 156.747C60.2517 156.588 60.038 156.505 59.7598 156.497C59.4451 156.489 59.1969 156.584 59.0154 156.784C58.8414 156.977 58.7491 157.26 58.7385 157.633L58.6468 160.85L57.2633 160.811Z" fill="white"/>
<path d="M68.1015 161.274C67.7135 161.262 67.3677 161.187 67.0641 161.046C66.7606 160.898 66.521 160.694 66.3453 160.432C66.1772 160.164 66.0984 159.843 66.109 159.47C66.1197 159.096 66.2164 158.788 66.3992 158.544C66.5895 158.293 66.8437 158.11 67.162 157.994C67.4879 157.872 67.8557 157.816 68.2656 157.828L69.7589 157.87L69.7676 157.563C69.7749 157.307 69.7004 157.096 69.5439 156.93C69.3877 156.757 69.1339 156.666 68.7825 156.656C68.4385 156.646 68.18 156.719 68.0071 156.875C67.8344 157.024 67.7188 157.223 67.6605 157.47L66.3991 157.005C66.4948 156.73 66.6411 156.481 66.8379 156.26C67.0422 156.031 67.3074 155.852 67.6334 155.722C67.967 155.585 68.368 155.523 68.8364 155.536C69.5538 155.557 70.1159 155.752 70.5229 156.123C70.9299 156.494 71.1237 157.019 71.1043 157.7L71.0464 159.731C71.0402 159.951 71.1395 160.064 71.3445 160.069L71.7836 160.082L71.7511 161.224L70.8288 161.197C70.558 161.19 70.3366 161.117 70.1647 160.981C69.9928 160.844 69.9099 160.666 69.9162 160.446L69.9165 160.435L69.7079 160.429C69.6761 160.516 69.6069 160.632 69.5003 160.775C69.3938 160.911 69.2292 161.031 69.0065 161.135C68.7838 161.238 68.4821 161.284 68.1015 161.274ZM68.375 160.161C68.7629 160.172 69.0807 160.074 69.3283 159.869C69.5834 159.657 69.7161 159.371 69.7263 159.012L69.7294 158.902L68.335 158.863C68.0788 158.855 67.876 158.905 67.7265 159.01C67.5769 159.116 67.4994 159.267 67.4937 159.465C67.4881 159.663 67.5604 159.826 67.7105 159.955C67.8607 160.084 68.0822 160.152 68.375 160.161Z" fill="white"/>
<path d="M72.543 161.246L72.7621 153.561L74.1455 153.6L74.0244 157.849L74.222 157.855L76.08 155.897L77.8806 155.948L75.2912 158.512L77.8132 161.397L76.0345 161.346L74.1857 159.128L73.9881 159.123L73.9264 161.286L72.543 161.246Z" fill="white"/>
<path d="M80.6655 161.632C80.1238 161.616 79.6476 161.489 79.2369 161.25C78.8337 161.004 78.5209 160.67 78.2985 160.246C78.0837 159.815 77.9845 159.314 78.0007 158.743L78.0045 158.611C78.0208 158.04 78.1483 157.549 78.3871 157.138C78.6261 156.72 78.9538 156.404 79.3702 156.188C79.7868 155.966 80.2659 155.862 80.8076 155.878C81.3419 155.893 81.8033 156.027 82.1916 156.28C82.5802 156.525 82.8783 156.863 83.0858 157.294C83.2935 157.718 83.3894 158.208 83.3735 158.764L83.3601 159.236L79.3964 159.123C79.4004 159.497 79.5308 159.805 79.7877 160.046C80.0445 160.288 80.3632 160.414 80.7439 160.425C81.1318 160.436 81.4197 160.36 81.6075 160.197C81.7953 160.034 81.9397 159.851 82.0407 159.649L83.1547 160.274C83.0468 160.462 82.8907 160.666 82.6866 160.887C82.4901 161.101 82.2285 161.284 81.9018 161.436C81.5753 161.581 81.1633 161.646 80.6655 161.632ZM79.4368 158.091L81.9841 158.164C81.9638 157.848 81.8429 157.592 81.6214 157.395C81.4072 157.199 81.1208 157.095 80.7622 157.085C80.3888 157.075 80.0897 157.161 79.8647 157.345C79.6396 157.529 79.497 157.778 79.4368 158.091Z" fill="white"/>
<path d="M86.874 161.655L87.0292 156.209L88.3907 156.248L88.3732 156.863L88.5708 156.868C88.6576 156.651 88.7939 156.494 88.9798 156.396C89.1731 156.299 89.3941 156.254 89.643 156.262L90.3018 156.28L90.2667 157.51L89.586 157.491C89.2346 157.481 88.9428 157.567 88.7105 157.751C88.4783 157.928 88.3567 158.21 88.3457 158.598L88.2574 161.694L86.874 161.655Z" fill="white"/>
<path d="M93.4014 161.995C92.8598 161.979 92.3761 161.856 91.9505 161.624C91.5249 161.392 91.1936 161.064 90.9567 160.639C90.7197 160.215 90.6095 159.71 90.6262 159.125L90.6312 158.949C90.6479 158.363 90.7867 157.865 91.0474 157.455C91.3082 157.045 91.6576 156.737 92.0958 156.529C92.5339 156.322 93.0238 156.226 93.5654 156.241C94.1071 156.257 94.5907 156.381 95.0163 156.612C95.4419 156.844 95.7732 157.172 96.0102 157.597C96.2472 158.021 96.3573 158.526 96.3406 159.112L96.3356 159.287C96.3189 159.873 96.1802 160.371 95.9194 160.781C95.6587 161.191 95.3092 161.5 94.8711 161.707C94.433 161.914 93.9431 162.01 93.4014 161.995ZM93.4365 160.765C93.861 160.777 94.2162 160.652 94.5021 160.389C94.7882 160.119 94.9385 159.727 94.9531 159.215L94.9563 159.105C94.9709 158.593 94.843 158.197 94.5725 157.918C94.3096 157.633 93.9623 157.483 93.5304 157.471C93.1058 157.459 92.7505 157.588 92.4645 157.858C92.1786 158.121 92.0283 158.509 92.0137 159.021L92.0106 159.131C91.996 159.643 92.1238 160.043 92.394 160.329C92.6645 160.608 93.0119 160.753 93.4365 160.765Z" fill="white"/>
<path d="M100.585 162.2C100.095 162.186 99.7205 162.091 99.4617 161.915C99.203 161.739 99.0144 161.547 98.8958 161.338L98.6982 161.333L98.6794 161.991L97.3179 161.953L97.537 154.267L98.9204 154.306L98.8387 157.172L99.0364 157.178C99.1206 157.048 99.2303 156.927 99.3654 156.813C99.5078 156.7 99.6899 156.61 99.9116 156.543C100.141 156.469 100.42 156.437 100.749 156.446C101.189 156.459 101.592 156.58 101.959 156.81C102.326 157.033 102.617 157.357 102.832 157.78C103.047 158.204 103.146 158.712 103.129 159.305L103.124 159.481C103.107 160.074 102.98 160.576 102.741 160.986C102.502 161.397 102.193 161.707 101.813 161.916C101.434 162.118 101.025 162.212 100.585 162.2ZM100.203 160.98C100.627 160.992 100.986 160.867 101.279 160.604C101.573 160.334 101.727 159.936 101.742 159.408L101.745 159.299C101.76 158.772 101.629 158.369 101.351 158.09C101.081 157.804 100.73 157.654 100.298 157.642C99.8733 157.63 99.5143 157.759 99.2209 158.029C98.9277 158.292 98.7736 158.687 98.7586 159.214L98.7554 159.323C98.7404 159.85 98.8717 160.257 99.1492 160.543C99.427 160.822 99.7781 160.968 100.203 160.98Z" fill="white"/>
<path d="M106.687 162.374C106.145 162.358 105.661 162.234 105.236 162.002C104.81 161.771 104.479 161.442 104.242 161.018C104.005 160.594 103.895 160.089 103.912 159.503L103.917 159.328C103.933 158.742 104.072 158.244 104.333 157.834C104.594 157.424 104.943 157.115 105.381 156.908C105.819 156.701 106.309 156.605 106.851 156.62C107.392 156.636 107.876 156.759 108.302 156.991C108.727 157.223 109.059 157.551 109.296 157.976C109.533 158.4 109.643 158.905 109.626 159.49L109.621 159.666C109.604 160.252 109.466 160.75 109.205 161.16C108.944 161.57 108.595 161.878 108.156 162.086C107.718 162.293 107.228 162.389 106.687 162.374ZM106.722 161.144C107.146 161.156 107.502 161.031 107.787 160.768C108.074 160.497 108.224 160.106 108.238 159.594L108.242 159.484C108.256 158.972 108.128 158.576 107.858 158.297C107.595 158.011 107.248 157.862 106.816 157.85C106.391 157.838 106.036 157.967 105.75 158.237C105.464 158.5 105.314 158.888 105.299 159.4L105.296 159.51C105.281 160.022 105.409 160.421 105.679 160.708C105.95 160.986 106.297 161.132 106.722 161.144Z" fill="white"/>
<path d="M112.518 162.386C112.159 162.376 111.869 162.258 111.649 162.031C111.436 161.798 111.334 161.495 111.345 161.122L111.433 158.047L110.071 158.009L110.104 156.867L111.465 156.906L111.514 155.215L112.897 155.254L112.849 156.945L114.342 156.988L114.309 158.129L112.816 158.087L112.735 160.92C112.729 161.139 112.829 161.252 113.033 161.258L114.088 161.288L114.055 162.43L112.518 162.386Z" fill="white"/>
<path d="M118.688 162.562L118.811 158.258L117.427 158.218L117.46 157.076L118.843 157.116L118.872 156.106C118.883 155.732 119.001 155.439 119.227 155.226C119.46 155.005 119.756 154.9 120.115 154.91L121.542 154.951L121.51 156.093L120.565 156.066C120.36 156.06 120.255 156.167 120.249 156.387L120.227 157.155L121.654 157.196L121.621 158.338L120.194 158.297L120.071 162.601L118.688 162.562ZM122.267 162.664L122.486 154.978L123.87 155.018L123.651 162.703L122.267 162.664Z" fill="white"/>
<path d="M125.497 164.954L125.531 163.746L128.496 163.83C128.701 163.836 128.806 163.729 128.812 163.51L128.852 162.137L128.654 162.132C128.592 162.254 128.497 162.376 128.369 162.497C128.241 162.618 128.07 162.716 127.855 162.79C127.64 162.865 127.368 162.897 127.039 162.888C126.614 162.876 126.244 162.77 125.927 162.57C125.618 162.364 125.381 162.086 125.215 161.737C125.049 161.388 124.972 160.99 124.985 160.544L125.078 157.294L126.461 157.333L126.372 160.473C126.36 160.883 126.45 161.193 126.642 161.404C126.841 161.615 127.127 161.726 127.5 161.736C127.925 161.748 128.258 161.619 128.5 161.347C128.743 161.068 128.871 160.676 128.886 160.171L128.964 157.404L130.348 157.444L130.165 163.856C130.154 164.229 130.036 164.523 129.81 164.736C129.584 164.957 129.288 165.062 128.922 165.051L125.497 164.954Z" fill="white"/>
<path d="M210.435 129.072L210.59 123.626L211.951 123.665L211.935 124.258L212.132 124.263C212.233 124.083 212.394 123.93 212.618 123.805C212.841 123.672 213.132 123.611 213.491 123.621C213.879 123.632 214.188 123.718 214.418 123.878C214.648 124.031 214.822 124.23 214.939 124.475L215.137 124.481C215.268 124.25 215.449 124.061 215.68 123.914C215.912 123.767 216.236 123.699 216.653 123.711C216.99 123.721 217.292 123.802 217.558 123.956C217.832 124.103 218.046 124.326 218.199 124.623C218.359 124.913 218.433 125.278 218.42 125.717L218.318 129.297L216.935 129.257L217.034 125.777C217.042 125.477 216.972 125.251 216.822 125.1C216.673 124.942 216.459 124.859 216.181 124.851C215.866 124.842 215.618 124.938 215.437 125.138C215.263 125.331 215.17 125.614 215.16 125.987L215.068 129.204L213.685 129.165L213.784 125.684C213.792 125.384 213.722 125.158 213.572 125.008C213.423 124.85 213.209 124.767 212.931 124.759C212.616 124.75 212.368 124.845 212.187 125.045C212.013 125.238 211.921 125.521 211.91 125.894L211.818 129.111L210.435 129.072Z" fill="white"/>
<path d="M221.273 129.535C220.885 129.524 220.539 129.448 220.235 129.307C219.932 129.159 219.692 128.955 219.517 128.693C219.349 128.425 219.27 128.104 219.28 127.731C219.291 127.357 219.388 127.049 219.571 126.805C219.761 126.554 220.015 126.371 220.333 126.255C220.659 126.133 221.027 126.077 221.437 126.089L222.93 126.132L222.939 125.824C222.946 125.568 222.872 125.357 222.715 125.191C222.559 125.018 222.305 124.927 221.954 124.917C221.61 124.907 221.351 124.98 221.178 125.137C221.006 125.285 220.89 125.484 220.832 125.731L219.57 125.267C219.666 124.991 219.812 124.742 220.009 124.521C220.214 124.292 220.479 124.113 220.805 123.983C221.138 123.846 221.539 123.784 222.008 123.798C222.725 123.818 223.287 124.014 223.694 124.384C224.101 124.755 224.295 125.28 224.276 125.961L224.218 127.992C224.212 128.212 224.311 128.325 224.516 128.33L224.955 128.343L224.922 129.485L224 129.459C223.729 129.451 223.508 129.379 223.336 129.242C223.164 129.105 223.081 128.927 223.088 128.707L223.088 128.696L222.879 128.69C222.848 128.777 222.778 128.893 222.672 129.036C222.565 129.172 222.401 129.292 222.178 129.396C221.955 129.499 221.654 129.546 221.273 129.535ZM221.546 128.422C221.934 128.433 222.252 128.336 222.5 128.13C222.755 127.918 222.887 127.632 222.898 127.273L222.901 127.164L221.506 127.124C221.25 127.117 221.047 127.166 220.898 127.271C220.748 127.377 220.671 127.529 220.665 127.726C220.659 127.924 220.732 128.087 220.882 128.216C221.032 128.345 221.254 128.413 221.546 128.422Z" fill="white"/>
<path d="M225.714 129.507L225.934 121.822L227.317 121.861L227.196 126.11L227.393 126.116L229.251 124.158L231.052 124.209L228.463 126.773L230.985 129.658L229.206 129.607L227.357 127.39L227.159 127.384L227.098 129.547L225.714 129.507Z" fill="white"/>
<path d="M233.837 129.893C233.295 129.877 232.819 129.75 232.408 129.511C232.005 129.266 231.692 128.931 231.47 128.507C231.255 128.076 231.156 127.575 231.172 127.004L231.176 126.872C231.192 126.301 231.32 125.81 231.559 125.4C231.798 124.981 232.125 124.665 232.542 124.45C232.958 124.227 233.437 124.123 233.979 124.139C234.513 124.154 234.975 124.288 235.363 124.541C235.752 124.786 236.05 125.125 236.257 125.555C236.465 125.979 236.561 126.469 236.545 127.025L236.531 127.497L232.568 127.384C232.572 127.758 232.702 128.066 232.959 128.307C233.216 128.549 233.535 128.675 233.915 128.686C234.303 128.697 234.591 128.621 234.779 128.458C234.967 128.295 235.111 128.112 235.212 127.91L236.326 128.535C236.218 128.723 236.062 128.927 235.858 129.148C235.661 129.362 235.4 129.545 235.073 129.697C234.747 129.842 234.335 129.907 233.837 129.893ZM232.608 126.352L235.155 126.425C235.135 126.11 235.014 125.853 234.793 125.657C234.579 125.46 234.292 125.357 233.934 125.346C233.56 125.336 233.261 125.422 233.036 125.606C232.811 125.791 232.668 126.039 232.608 126.352Z" fill="white"/>
<path d="M240.045 129.916L240.201 124.47L241.562 124.509L241.545 125.124L241.742 125.129C241.829 124.912 241.965 124.755 242.151 124.658C242.344 124.561 242.566 124.516 242.814 124.523L243.473 124.541L243.438 125.771L242.757 125.752C242.406 125.742 242.114 125.829 241.882 126.012C241.65 126.189 241.528 126.471 241.517 126.859L241.429 129.955L240.045 129.916Z" fill="white"/>
<path d="M246.573 130.256C246.031 130.24 245.548 130.117 245.122 129.885C244.696 129.653 244.365 129.325 244.128 128.901C243.891 128.476 243.781 127.971 243.798 127.386L243.803 127.21C243.819 126.624 243.958 126.127 244.219 125.716C244.48 125.306 244.829 124.998 245.267 124.79C245.705 124.583 246.195 124.487 246.737 124.503C247.279 124.518 247.762 124.642 248.188 124.874C248.613 125.106 248.945 125.434 249.182 125.858C249.419 126.282 249.529 126.787 249.512 127.373L249.507 127.548C249.49 128.134 249.352 128.632 249.091 129.042C248.83 129.452 248.481 129.761 248.043 129.968C247.604 130.175 247.114 130.271 246.573 130.256ZM246.608 129.026C247.032 129.038 247.388 128.913 247.674 128.65C247.96 128.38 248.11 127.988 248.125 127.476L248.128 127.366C248.142 126.854 248.014 126.458 247.744 126.18C247.481 125.894 247.134 125.745 246.702 125.732C246.277 125.72 245.922 125.849 245.636 126.119C245.35 126.382 245.2 126.77 245.185 127.282L245.182 127.392C245.167 127.905 245.295 128.304 245.565 128.59C245.836 128.869 246.183 129.014 246.608 129.026Z" fill="white"/>
<path d="M253.757 130.461C253.266 130.447 252.892 130.352 252.633 130.176C252.374 130 252.186 129.808 252.067 129.599L251.87 129.594L251.851 130.253L250.489 130.214L250.708 122.528L252.092 122.567L252.01 125.433L252.208 125.439C252.292 125.309 252.402 125.188 252.537 125.075C252.679 124.961 252.861 124.871 253.083 124.804C253.312 124.73 253.591 124.698 253.921 124.707C254.36 124.72 254.763 124.841 255.13 125.072C255.497 125.294 255.789 125.618 256.004 126.041C256.219 126.465 256.318 126.973 256.301 127.566L256.296 127.742C256.279 128.335 256.151 128.837 255.912 129.247C255.673 129.658 255.364 129.968 254.985 130.177C254.605 130.379 254.196 130.473 253.757 130.461ZM253.374 129.241C253.799 129.253 254.157 129.128 254.451 128.865C254.744 128.595 254.898 128.197 254.913 127.67L254.916 127.56C254.931 127.033 254.8 126.63 254.522 126.351C254.252 126.065 253.901 125.916 253.469 125.903C253.045 125.891 252.686 126.02 252.392 126.29C252.099 126.553 251.945 126.948 251.93 127.475L251.927 127.584C251.912 128.112 252.043 128.518 252.321 128.804C252.598 129.083 252.95 129.229 253.374 129.241Z" fill="white"/>
<path d="M259.858 130.635C259.317 130.619 258.833 130.496 258.407 130.264C257.982 130.032 257.65 129.704 257.413 129.279C257.176 128.855 257.066 128.35 257.083 127.764L257.088 127.589C257.105 127.003 257.243 126.505 257.504 126.095C257.765 125.685 258.114 125.376 258.553 125.169C258.991 124.962 259.481 124.866 260.022 124.881C260.564 124.897 261.047 125.02 261.473 125.252C261.899 125.484 262.23 125.812 262.467 126.237C262.704 126.661 262.814 127.166 262.797 127.752L262.792 127.927C262.776 128.513 262.637 129.011 262.376 129.421C262.115 129.831 261.766 130.14 261.328 130.347C260.89 130.554 260.4 130.65 259.858 130.635ZM259.893 129.405C260.318 129.417 260.673 129.292 260.959 129.029C261.245 128.759 261.395 128.367 261.41 127.855L261.413 127.745C261.428 127.233 261.3 126.837 261.029 126.558C260.766 126.272 260.419 126.123 259.987 126.111C259.563 126.099 259.207 126.228 258.921 126.498C258.635 126.761 258.485 127.149 258.47 127.661L258.467 127.771C258.453 128.283 258.581 128.683 258.851 128.969C259.121 129.247 259.469 129.393 259.893 129.405Z" fill="white"/>
<path d="M265.689 130.647C265.331 130.637 265.041 130.519 264.82 130.293C264.607 130.059 264.506 129.756 264.517 129.383L264.604 126.309L263.243 126.27L263.275 125.128L264.637 125.167L264.685 123.476L266.068 123.515L266.02 125.206L267.513 125.249L267.481 126.391L265.988 126.348L265.907 129.181C265.901 129.4 266 129.513 266.205 129.519L267.259 129.549L267.226 130.691L265.689 130.647Z" fill="white"/>
<path d="M273.216 131.015C272.506 130.995 271.929 130.825 271.484 130.505C271.039 130.184 270.777 129.737 270.698 129.164L271.981 128.87C272.025 129.128 272.103 129.332 272.216 129.482C272.336 129.631 272.484 129.742 272.657 129.813C272.839 129.877 273.035 129.911 273.248 129.918C273.57 129.927 273.809 129.879 273.966 129.773C274.123 129.66 274.204 129.52 274.209 129.352C274.214 129.183 274.144 129.053 274 128.961C273.857 128.862 273.624 128.778 273.304 128.71L272.998 128.647C272.62 128.563 272.275 128.454 271.964 128.321C271.653 128.18 271.405 127.993 271.221 127.761C271.038 127.529 270.951 127.233 270.961 126.874C270.976 126.333 271.186 125.925 271.589 125.651C271.993 125.369 272.517 125.238 273.161 125.256C273.768 125.273 274.27 125.423 274.664 125.705C275.059 125.988 275.313 126.35 275.425 126.793L274.129 127.152C274.078 126.872 273.963 126.671 273.783 126.548C273.611 126.426 273.393 126.361 273.13 126.354C272.866 126.346 272.663 126.388 272.522 126.479C272.38 126.563 272.307 126.686 272.302 126.847C272.297 127.022 272.367 127.156 272.511 127.248C272.655 127.333 272.851 127.401 273.098 127.452L273.404 127.515C273.812 127.6 274.179 127.71 274.505 127.844C274.838 127.97 275.097 128.15 275.28 128.382C275.472 128.607 275.562 128.91 275.551 129.291C275.535 129.862 275.314 130.299 274.887 130.602C274.469 130.897 273.912 131.035 273.216 131.015Z" fill="white"/>
<path d="M276.497 130.955L276.653 125.509L278.014 125.548L277.997 126.141L278.195 126.147C278.295 125.966 278.457 125.813 278.68 125.688C278.904 125.555 279.195 125.494 279.554 125.504C279.942 125.515 280.25 125.601 280.48 125.761C280.71 125.914 280.884 126.113 281.002 126.358L281.199 126.364C281.33 126.133 281.512 125.944 281.743 125.797C281.974 125.65 282.299 125.582 282.716 125.594C283.052 125.604 283.354 125.686 283.621 125.84C283.895 125.987 284.108 126.209 284.261 126.506C284.421 126.797 284.495 127.161 284.483 127.601L284.381 131.18L282.997 131.14L283.096 127.66C283.105 127.36 283.034 127.134 282.885 126.984C282.736 126.825 282.522 126.742 282.244 126.735C281.929 126.726 281.681 126.821 281.499 127.021C281.325 127.214 281.233 127.497 281.222 127.87L281.131 131.087L279.747 131.048L279.846 127.567C279.855 127.267 279.785 127.042 279.635 126.891C279.486 126.733 279.272 126.65 278.994 126.642C278.679 126.633 278.431 126.728 278.249 126.928C278.075 127.121 277.983 127.404 277.972 127.778L277.881 130.995L276.497 130.955Z" fill="white"/>
<path d="M285.649 131.216L285.804 125.77L287.188 125.81L287.032 131.255L285.649 131.216ZM286.514 125.153C286.265 125.146 286.055 125.059 285.884 124.893C285.72 124.728 285.642 124.513 285.65 124.249C285.657 123.986 285.748 123.776 285.92 123.62C286.101 123.464 286.315 123.389 286.564 123.396C286.82 123.404 287.03 123.49 287.194 123.656C287.358 123.822 287.436 124.037 287.428 124.3C287.421 124.564 287.331 124.773 287.158 124.93C286.985 125.086 286.77 125.16 286.514 125.153Z" fill="white"/>
<path d="M288.346 131.293L288.565 123.607L289.948 123.647L289.729 131.332L288.346 131.293Z" fill="white"/>
<path d="M293.52 131.594C292.978 131.579 292.502 131.452 292.091 131.213C291.688 130.967 291.375 130.632 291.153 130.208C290.938 129.777 290.839 129.276 290.855 128.705L290.859 128.573C290.875 128.003 291.002 127.512 291.241 127.101C291.48 126.683 291.808 126.366 292.224 126.151C292.641 125.928 293.12 125.825 293.662 125.84C294.196 125.856 294.657 125.99 295.046 126.242C295.434 126.488 295.732 126.826 295.94 127.257C296.148 127.68 296.244 128.17 296.228 128.727L296.214 129.199L292.251 129.086C292.255 129.459 292.385 129.767 292.642 130.009C292.899 130.251 293.217 130.377 293.598 130.388C293.986 130.399 294.274 130.323 294.462 130.16C294.649 129.997 294.794 129.814 294.895 129.612L296.009 130.237C295.901 130.424 295.745 130.628 295.541 130.85C295.344 131.064 295.083 131.247 294.756 131.399C294.43 131.543 294.017 131.608 293.52 131.594ZM292.291 128.054L294.838 128.127C294.818 127.811 294.697 127.555 294.476 127.358C294.261 127.161 293.975 127.058 293.616 127.048C293.243 127.037 292.944 127.124 292.719 127.308C292.494 127.492 292.351 127.741 292.291 128.054Z" fill="white"/>
<path d="M36.1759 25.343L369.177 34.8361C373.318 34.9541 376.579 38.4063 376.461 42.5468L376.166 52.8724L28.1708 42.9519L28.4652 32.6262C28.5832 28.4858 32.0354 25.225 36.1759 25.343Z" fill="#BDBDBD" stroke="#BDBDBD"/>
<circle cx="38.1199" cy="34.3163" r="3.13831" transform="rotate(1.63292 38.1199 34.3163)" fill="#757575"/>
<circle cx="47.5339" cy="34.5839" r="3.13831" transform="rotate(1.63292 47.5339 34.5839)" fill="#757575"/>
<circle cx="56.9441" cy="34.8534" r="3.13831" transform="rotate(1.63292 56.9441 34.8534)" fill="#757575"/>
<path d="M322.197 241.924L322.905 260.66L328.014 260.467L328.593 275.796L339.744 254.907L332.931 255.164L337.527 241.345L322.197 241.924Z" fill="url(#paint0_linear)"/>
<path d="M343.76 241.125L344.218 253.269L347.53 253.144L347.905 263.08L355.133 249.54L350.717 249.707L353.696 240.75L343.76 241.125Z" fill="url(#paint1_linear)"/>
<path d="M305.135 242.525L305.593 254.669L308.905 254.544L309.28 264.48L316.508 250.941L312.092 251.107L315.071 242.15L305.135 242.525Z" fill="url(#paint2_linear)"/>
<path d="M246.865 144.635L246.519 156.783L249.832 156.877L249.549 166.816L257.657 153.784L253.239 153.658L256.804 144.918L246.865 144.635Z" fill="#FED722"/>
<path d="M92.5449 177.877L92.1986 190.025L95.5116 190.119L95.2283 200.058L103.336 187.027L98.9191 186.901L102.484 178.16L92.5449 177.877Z" fill="#FED722"/>
<path d="M321.865 137.107C321.546 126.626 315.945 114.802 319.125 99.3298C322.525 78.4541 349.378 61.7916 347.519 34.0858C346.621 15.8502 326.218 1.14743 299.577 8.78162C286.412 12.5539 283.239 25.7247 283.053 32.248" stroke="#4D4D4D" stroke-width="6"/>
<g filter="url(#filter1_d)">
<path d="M317.249 143.498C317.146 140.636 319.382 138.233 322.244 138.13V138.13C325.106 138.028 327.509 140.264 327.612 143.126L328.046 155.217L317.683 155.589L317.249 143.498Z" fill="white"/>
</g>
<g filter="url(#filter2_d)">
<rect x="279.684" y="156.953" width="86.4176" height="86.4176" transform="rotate(-2.05677 279.684 156.953)" fill="#333333"/>
<rect x="279.684" y="156.953" width="86.4176" height="86.4176" transform="rotate(-2.05677 279.684 156.953)" fill="url(#paint3_radial)" fill-opacity="0.2" style="mix-blend-mode:soft-light"/>
</g>
<g filter="url(#filter3_d)">
<path d="M315.484 142.524C315.347 138.708 318.33 135.504 322.145 135.367V135.367C325.961 135.23 329.165 138.212 329.302 142.028L329.675 152.391L315.857 152.888L315.484 142.524Z" fill="#4D4D4D"/>
<path d="M315.484 142.524C315.347 138.708 318.33 135.504 322.145 135.367V135.367C325.961 135.23 329.165 138.212 329.302 142.028L329.675 152.391L315.857 152.888L315.484 142.524Z" fill="url(#paint4_radial)" fill-opacity="0.2" style="mix-blend-mode:soft-light"/>
</g>
<rect x="292.211" y="168.609" width="6.91341" height="6.91341" transform="rotate(-2.05677 292.211 168.609)" fill="#4D4D4D"/>
<rect x="292.705" y="182.427" width="6.91341" height="6.91341" transform="rotate(-2.05677 292.705 182.427)" fill="#4D4D4D"/>
<rect x="293.201" y="196.246" width="6.91341" height="6.91341" transform="rotate(-2.05677 293.201 196.246)" fill="#4D4D4D"/>
<g filter="url(#filter4_d)">
<rect x="293.701" y="210.063" width="6.91341" height="6.91341" transform="rotate(-2.05677 293.701 210.063)" fill="#25D366"/>
</g>
<rect x="294.195" y="223.882" width="6.91341" height="6.91341" transform="rotate(-2.05677 294.195 223.882)" fill="#4D4D4D"/>
<rect x="306.027" y="168.113" width="6.91341" height="6.91341" transform="rotate(-2.05677 306.027 168.113)" fill="#4D4D4D"/>
<g filter="url(#filter5_d)">
<rect x="306.523" y="181.932" width="6.91341" height="6.91341" transform="rotate(-2.05677 306.523 181.932)" fill="#25D366"/>
</g>
<rect x="307.02" y="195.749" width="6.91341" height="6.91341" transform="rotate(-2.05677 307.02 195.749)" fill="#4D4D4D"/>
<rect x="307.514" y="209.566" width="6.91341" height="6.91341" transform="rotate(-2.05677 307.514 209.566)" fill="#4D4D4D"/>
<g filter="url(#filter6_d)">
<rect x="308.014" y="223.385" width="6.91341" height="6.91341" transform="rotate(-2.05677 308.014 223.385)" fill="#25D366"/>
</g>
<rect x="319.848" y="167.616" width="6.91341" height="6.91341" transform="rotate(-2.05677 319.848 167.616)" fill="#4D4D4D"/>
<rect x="320.344" y="181.435" width="6.91341" height="6.91341" transform="rotate(-2.05677 320.344 181.435)" fill="#4D4D4D"/>
<rect x="320.838" y="195.252" width="6.91341" height="6.91341" transform="rotate(-2.05677 320.838 195.252)" fill="#4D4D4D"/>
<rect x="321.334" y="209.071" width="6.91341" height="6.91341" transform="rotate(-2.05677 321.334 209.071)" fill="#4D4D4D"/>
<g filter="url(#filter7_d)">
<rect x="321.832" y="222.889" width="6.91341" height="6.91341" transform="rotate(-2.05677 321.832 222.889)" fill="#25D366"/>
</g>
<rect x="333.664" y="167.121" width="6.91341" height="6.91341" transform="rotate(-2.05677 333.664 167.121)" fill="#4D4D4D"/>
<g filter="url(#filter8_d)">
<rect x="334.16" y="180.938" width="6.91341" height="6.91341" transform="rotate(-2.05677 334.16 180.938)" fill="#25D366"/>
</g>
<rect x="334.656" y="194.757" width="6.91341" height="6.91341" transform="rotate(-2.05677 334.656 194.757)" fill="#4D4D4D"/>
<rect x="335.152" y="208.574" width="6.91341" height="6.91341" transform="rotate(-2.05677 335.152 208.574)" fill="#4D4D4D"/>
<g filter="url(#filter9_d)">
<rect x="335.646" y="222.393" width="6.91341" height="6.91341" transform="rotate(-2.05677 335.646 222.393)" fill="#25D366"/>
</g>
<rect x="347.482" y="166.624" width="6.91341" height="6.91341" transform="rotate(-2.05677 347.482 166.624)" fill="#4D4D4D"/>
<rect x="347.977" y="180.443" width="6.91341" height="6.91341" transform="rotate(-2.05677 347.977 180.443)" fill="#4D4D4D"/>
<rect x="348.473" y="194.26" width="6.91341" height="6.91341" transform="rotate(-2.05677 348.473 194.26)" fill="#4D4D4D"/>
<g filter="url(#filter10_d)">
<rect x="348.969" y="208.079" width="6.91341" height="6.91341" transform="rotate(-2.05677 348.969 208.079)" fill="#25D366"/>
</g>
<rect x="349.467" y="221.896" width="6.91341" height="6.91341" transform="rotate(-2.05677 349.467 221.896)" fill="#4D4D4D"/>
<defs>
<filter id="filter0_d" x="10" y="12.6152" width="379.188" height="251.189" filterUnits="userSpaceOnUse" color-interpolation-filters="sRGB">
<feFlood flood-opacity="0" result="BackgroundImageFix"/>
<feColorMatrix in="SourceAlpha" type="matrix" values="0 0 0 0 0 0 0 0 0 0 0 0 0 0 0 0 0 0 127 0"/>
<feOffset/>
<feGaussianBlur stdDeviation="6"/>
<feColorMatrix type="matrix" values="0 0 0 0 0 0 0 0 0 0 0 0 0 0 0 0 0 0 0.25 0"/>
<feBlend mode="normal" in2="BackgroundImageFix" result="effect1_dropShadow"/>
<feBlend mode="normal" in="SourceGraphic" in2="effect1_dropShadow" result="shape"/>
</filter>
<filter id="filter1_d" x="305.062" y="125.944" width="34.9837" height="41.6446" filterUnits="userSpaceOnUse" color-interpolation-filters="sRGB">
<feFlood flood-opacity="0" result="BackgroundImageFix"/>
<feColorMatrix in="SourceAlpha" type="matrix" values="0 0 0 0 0 0 0 0 0 0 0 0 0 0 0 0 0 0 127 0"/>
<feOffset/>
<feGaussianBlur stdDeviation="6"/>
<feColorMatrix type="matrix" values="0 0 0 0 0 0 0 0 0 0 0 0 0 0 0 0 0 0 0.5 0"/>
<feBlend mode="normal" in2="BackgroundImageFix" result="effect1_dropShadow"/>
<feBlend mode="normal" in="SourceGraphic" in2="effect1_dropShadow" result="shape"/>
</filter>
<filter id="filter2_d" x="273.684" y="147.852" width="101.463" height="101.463" filterUnits="userSpaceOnUse" color-interpolation-filters="sRGB">
<feFlood flood-opacity="0" result="BackgroundImageFix"/>
<feColorMatrix in="SourceAlpha" type="matrix" values="0 0 0 0 0 0 0 0 0 0 0 0 0 0 0 0 0 0 127 0"/>
<feOffset/>
<feGaussianBlur stdDeviation="3"/>
<feColorMatrix type="matrix" values="0 0 0 0 0 0 0 0 0 0 0 0 0 0 0 0 0 0 0.5 0"/>
<feBlend mode="normal" in2="BackgroundImageFix" result="effect1_dropShadow"/>
<feBlend mode="normal" in="SourceGraphic" in2="effect1_dropShadow" result="shape"/>
</filter>
<filter id="filter3_d" x="309.236" y="129.119" width="26.4382" height="29.7686" filterUnits="userSpaceOnUse" color-interpolation-filters="sRGB">
<feFlood flood-opacity="0" result="BackgroundImageFix"/>
<feColorMatrix in="SourceAlpha" type="matrix" values="0 0 0 0 0 0 0 0 0 0 0 0 0 0 0 0 0 0 127 0"/>
<feOffset/>
<feGaussianBlur stdDeviation="3"/>
<feColorMatrix type="matrix" values="0 0 0 0 0 0 0 0 0 0 0 0 0 0 0 0 0 0 0.5 0"/>
<feBlend mode="normal" in2="BackgroundImageFix" result="effect1_dropShadow"/>
<feBlend mode="normal" in="SourceGraphic" in2="effect1_dropShadow" result="shape"/>
</filter>
<filter id="filter4_d" x="277.701" y="193.815" width="39.1571" height="39.1571" filterUnits="userSpaceOnUse" color-interpolation-filters="sRGB">
<feFlood flood-opacity="0" result="BackgroundImageFix"/>
<feColorMatrix in="SourceAlpha" type="matrix" values="0 0 0 0 0 0 0 0 0 0 0 0 0 0 0 0 0 0 127 0"/>
<feOffset/>
<feGaussianBlur stdDeviation="8"/>
<feColorMatrix type="matrix" values="0 0 0 0 0.8 0 0 0 0 1 0 0 0 0 0.6 0 0 0 1 0"/>
<feBlend mode="soft-light" in2="BackgroundImageFix" result="effect1_dropShadow"/>
<feBlend mode="normal" in="SourceGraphic" in2="effect1_dropShadow" result="shape"/>
</filter>
<filter id="filter5_d" x="290.523" y="165.684" width="39.1571" height="39.1571" filterUnits="userSpaceOnUse" color-interpolation-filters="sRGB">
<feFlood flood-opacity="0" result="BackgroundImageFix"/>
<feColorMatrix in="SourceAlpha" type="matrix" values="0 0 0 0 0 0 0 0 0 0 0 0 0 0 0 0 0 0 127 0"/>
<feOffset/>
<feGaussianBlur stdDeviation="8"/>
<feColorMatrix type="matrix" values="0 0 0 0 0.8 0 0 0 0 1 0 0 0 0 0.6 0 0 0 1 0"/>
<feBlend mode="soft-light" in2="BackgroundImageFix" result="effect1_dropShadow"/>
<feBlend mode="normal" in="SourceGraphic" in2="effect1_dropShadow" result="shape"/>
</filter>
<filter id="filter6_d" x="292.014" y="207.137" width="39.1571" height="39.1571" filterUnits="userSpaceOnUse" color-interpolation-filters="sRGB">
<feFlood flood-opacity="0" result="BackgroundImageFix"/>
<feColorMatrix in="SourceAlpha" type="matrix" values="0 0 0 0 0 0 0 0 0 0 0 0 0 0 0 0 0 0 127 0"/>
<feOffset/>
<feGaussianBlur stdDeviation="8"/>
<feColorMatrix type="matrix" values="0 0 0 0 0.8 0 0 0 0 1 0 0 0 0 0.6 0 0 0 1 0"/>
<feBlend mode="soft-light" in2="BackgroundImageFix" result="effect1_dropShadow"/>
<feBlend mode="normal" in="SourceGraphic" in2="effect1_dropShadow" result="shape"/>
</filter>
<filter id="filter7_d" x="305.832" y="206.641" width="39.1571" height="39.1571" filterUnits="userSpaceOnUse" color-interpolation-filters="sRGB">
<feFlood flood-opacity="0" result="BackgroundImageFix"/>
<feColorMatrix in="SourceAlpha" type="matrix" values="0 0 0 0 0 0 0 0 0 0 0 0 0 0 0 0 0 0 127 0"/>
<feOffset/>
<feGaussianBlur stdDeviation="8"/>
<feColorMatrix type="matrix" values="0 0 0 0 0.8 0 0 0 0 1 0 0 0 0 0.6 0 0 0 1 0"/>
<feBlend mode="soft-light" in2="BackgroundImageFix" result="effect1_dropShadow"/>
<feBlend mode="normal" in="SourceGraphic" in2="effect1_dropShadow" result="shape"/>
</filter>
<filter id="filter8_d" x="318.16" y="164.69" width="39.1571" height="39.1571" filterUnits="userSpaceOnUse" color-interpolation-filters="sRGB">
<feFlood flood-opacity="0" result="BackgroundImageFix"/>
<feColorMatrix in="SourceAlpha" type="matrix" values="0 0 0 0 0 0 0 0 0 0 0 0 0 0 0 0 0 0 127 0"/>
<feOffset/>
<feGaussianBlur stdDeviation="8"/>
<feColorMatrix type="matrix" values="0 0 0 0 0.8 0 0 0 0 1 0 0 0 0 0.6 0 0 0 1 0"/>
<feBlend mode="soft-light" in2="BackgroundImageFix" result="effect1_dropShadow"/>
<feBlend mode="normal" in="SourceGraphic" in2="effect1_dropShadow" result="shape"/>
</filter>
<filter id="filter9_d" x="319.646" y="206.145" width="39.1571" height="39.1571" filterUnits="userSpaceOnUse" color-interpolation-filters="sRGB">
<feFlood flood-opacity="0" result="BackgroundImageFix"/>
<feColorMatrix in="SourceAlpha" type="matrix" values="0 0 0 0 0 0 0 0 0 0 0 0 0 0 0 0 0 0 127 0"/>
<feOffset/>
<feGaussianBlur stdDeviation="8"/>
<feColorMatrix type="matrix" values="0 0 0 0 0.8 0 0 0 0 1 0 0 0 0 0.6 0 0 0 1 0"/>
<feBlend mode="soft-light" in2="BackgroundImageFix" result="effect1_dropShadow"/>
<feBlend mode="normal" in="SourceGraphic" in2="effect1_dropShadow" result="shape"/>
</filter>
<filter id="filter10_d" x="332.969" y="191.831" width="39.1571" height="39.1571" filterUnits="userSpaceOnUse" color-interpolation-filters="sRGB">
<feFlood flood-opacity="0" result="BackgroundImageFix"/>
<feColorMatrix in="SourceAlpha" type="matrix" values="0 0 0 0 0 0 0 0 0 0 0 0 0 0 0 0 0 0 127 0"/>
<feOffset/>
<feGaussianBlur stdDeviation="8"/>
<feColorMatrix type="matrix" values="0 0 0 0 0.8 0 0 0 0 1 0 0 0 0 0.6 0 0 0 1 0"/>
<feBlend mode="soft-light" in2="BackgroundImageFix" result="effect1_dropShadow"/>
<feBlend mode="normal" in="SourceGraphic" in2="effect1_dropShadow" result="shape"/>
</filter>
<linearGradient id="paint0_linear" x1="330.714" y1="241.602" x2="332" y2="275.667" gradientUnits="userSpaceOnUse">
<stop stop-color="#FF5C00"/>
<stop offset="0.557292" stop-color="#FFD600"/>
<stop offset="1" stop-color="#FFD200"/>
</linearGradient>
<linearGradient id="paint1_linear" x1="349.28" y1="240.917" x2="350.113" y2="262.997" gradientUnits="userSpaceOnUse">
<stop stop-color="#FF5C00"/>
<stop offset="0.557292" stop-color="#FFD600"/>
<stop offset="1" stop-color="#FFD200"/>
</linearGradient>
<linearGradient id="paint2_linear" x1="310.655" y1="242.317" x2="311.488" y2="264.397" gradientUnits="userSpaceOnUse">
<stop stop-color="#FF5C00"/>
<stop offset="0.557292" stop-color="#FFD600"/>
<stop offset="1" stop-color="#FFD200"/>
</linearGradient>
<radialGradient id="paint3_radial" cx="0" cy="0" r="1" gradientUnits="userSpaceOnUse" gradientTransform="translate(322.892 200.162) rotate(90) scale(43.2088)">
<stop stop-color="white" stop-opacity="0"/>
<stop offset="1"/>
</radialGradient>
<radialGradient id="paint4_radial" cx="0" cy="0" r="1" gradientUnits="userSpaceOnUse" gradientTransform="translate(322.455 144.003) rotate(87.9432) scale(8.64176 6.91341)">
<stop stop-color="white" stop-opacity="0"/>
<stop offset="1"/>
</radialGradient>
</defs>
</svg>
