<svg width="136" height="343" fill="none" xmlns="http://www.w3.org/2000/svg"><path fill-rule="evenodd" clip-rule="evenodd" d="M82.936 74.925c4.373-30.12-.926-50.44-7.853-72.212L82.707.287c7.073 22.229 12.774 43.91 8.147 75.788-1.802 12.409-6.576 21.327-11.4 30.017-.203.367-.406.733-.61 1.098-4.624 8.319-9.228 16.602-12.062 28.255-2.913 11.973-1.795 20.429.09 28.385.408 1.72.87 3.466 1.341 5.252 1.687 6.385 3.509 13.281 3.509 21.363h-8c0-6.947-1.476-12.558-3.109-18.764-.506-1.926-1.028-3.908-1.525-6.006-2.08-8.774-3.376-18.568-.08-32.12 3.096-12.726 8.164-21.838 12.768-30.115l.684-1.23c4.78-8.613 8.901-16.432 10.477-27.285z" fill="#616161"/><path d="M61 196.342a7 7 0 1114 0v18H61v-18z" fill="#BDBDBD"/><g filter="url(#filter0_d)"><path d="M59 196.342a9 9 0 019-9 9 9 0 019 9v15H59v-15z" fill="#3C3C3C"/><path d="M59 196.342a9 9 0 019-9 9 9 0 019 9v15H59v-15z" fill="url(#paint0_linear)"/></g><g filter="url(#filter1_d)"><rect x="8" y="214.342" width="120" height="120" rx="2" fill="#2C2C2C"/><rect x="8" y="214.342" width="120" height="120" rx="2" fill="url(#paint1_radial)" fill-opacity=".5" style="mix-blend-mode:soft-light"/></g><path fill="#444" d="M22 228.342h12v12H22zM42 228.342h12v12H42z"/><g filter="url(#filter2_d)"><path fill="#25D366" d="M62 228.342h12v12H62z"/></g><path fill="#444" d="M82 228.342h12v12H82zM102 228.342h12v12h-12zM22 248.342h12v12H22zM42 248.342h12v12H42z"/><g filter="url(#filter3_d)"><path fill="#25D366" d="M62 248.342h12v12H62z"/></g><path fill="#444" d="M82 248.342h12v12H82zM102 248.342h12v12h-12z"/><g filter="url(#filter4_d)"><path fill="#25D366" d="M22 268.342h12v12H22z"/></g><g filter="url(#filter5_d)"><path fill="#25D366" d="M42 268.342h12v12H42z"/></g><g filter="url(#filter6_d)"><path fill="#25D366" d="M62 268.342h12v12H62z"/></g><g filter="url(#filter7_d)"><path fill="#25D366" d="M82 268.342h12v12H82z"/></g><g filter="url(#filter8_d)"><path fill="#25D366" d="M102 268.342h12v12h-12z"/></g><path fill="#444" d="M22 288.342h12v12H22z"/><g filter="url(#filter9_d)"><path fill="#25D366" d="M42 288.342h12v12H42z"/></g><g filter="url(#filter10_d)"><path fill="#25D366" d="M62 288.342h12v12H62z"/></g><g filter="url(#filter11_d)"><path fill="#25D366" d="M82 288.342h12v12H82z"/></g><path fill="#444" d="M102 288.342h12v12h-12zM22 308.342h12v12H22zM42 308.342h12v12H42z"/><g filter="url(#filter12_d)"><path fill="#25D366" d="M62 308.342h12v12H62z"/></g><path fill="#444" d="M82 308.342h12v12H82zM102 308.342h12v12h-12z"/><defs><filter id="filter0_d" x="51" y="179.342" width="34" height="40" filterUnits="userSpaceOnUse" color-interpolation-filters="sRGB"><feFlood flood-opacity="0" result="BackgroundImageFix"/><feColorMatrix in="SourceAlpha" values="0 0 0 0 0 0 0 0 0 0 0 0 0 0 0 0 0 0 127 0"/><feOffset/><feGaussianBlur stdDeviation="4"/><feColorMatrix values="0 0 0 0 0.172549 0 0 0 0 0.172549 0 0 0 0 0.172549 0 0 0 0.5 0"/><feBlend in2="BackgroundImageFix" result="effect1_dropShadow"/><feBlend in="SourceGraphic" in2="effect1_dropShadow" result="shape"/></filter><filter id="filter1_d" x="0" y="206.342" width="136" height="136" filterUnits="userSpaceOnUse" color-interpolation-filters="sRGB"><feFlood flood-opacity="0" result="BackgroundImageFix"/><feColorMatrix in="SourceAlpha" values="0 0 0 0 0 0 0 0 0 0 0 0 0 0 0 0 0 0 127 0"/><feOffset/><feGaussianBlur stdDeviation="4"/><feColorMatrix values="0 0 0 0 0.172549 0 0 0 0 0.172549 0 0 0 0 0.172549 0 0 0 0.5 0"/><feBlend in2="BackgroundImageFix" result="effect1_dropShadow"/><feBlend in="SourceGraphic" in2="effect1_dropShadow" result="shape"/></filter><filter id="filter2_d" x="58" y="224.342" width="20" height="20" filterUnits="userSpaceOnUse" color-interpolation-filters="sRGB"><feFlood flood-opacity="0" result="BackgroundImageFix"/><feColorMatrix in="SourceAlpha" values="0 0 0 0 0 0 0 0 0 0 0 0 0 0 0 0 0 0 127 0"/><feOffset/><feGaussianBlur stdDeviation="2"/><feColorMatrix values="0 0 0 0 0.486889 0 0 0 0 0.8375 0 0 0 0 0.436198 0 0 0 1 0"/><feBlend in2="BackgroundImageFix" result="effect1_dropShadow"/><feBlend in="SourceGraphic" in2="effect1_dropShadow" result="shape"/></filter><filter id="filter3_d" x="58" y="244.342" width="20" height="20" filterUnits="userSpaceOnUse" color-interpolation-filters="sRGB"><feFlood flood-opacity="0" result="BackgroundImageFix"/><feColorMatrix in="SourceAlpha" values="0 0 0 0 0 0 0 0 0 0 0 0 0 0 0 0 0 0 127 0"/><feOffset/><feGaussianBlur stdDeviation="2"/><feColorMatrix values="0 0 0 0 0.486889 0 0 0 0 0.8375 0 0 0 0 0.436198 0 0 0 1 0"/><feBlend in2="BackgroundImageFix" result="effect1_dropShadow"/><feBlend in="SourceGraphic" in2="effect1_dropShadow" result="shape"/></filter><filter id="filter4_d" x="18" y="264.342" width="20" height="20" filterUnits="userSpaceOnUse" color-interpolation-filters="sRGB"><feFlood flood-opacity="0" result="BackgroundImageFix"/><feColorMatrix in="SourceAlpha" values="0 0 0 0 0 0 0 0 0 0 0 0 0 0 0 0 0 0 127 0"/><feOffset/><feGaussianBlur stdDeviation="2"/><feColorMatrix values="0 0 0 0 0.486889 0 0 0 0 0.8375 0 0 0 0 0.436198 0 0 0 1 0"/><feBlend in2="BackgroundImageFix" result="effect1_dropShadow"/><feBlend in="SourceGraphic" in2="effect1_dropShadow" result="shape"/></filter><filter id="filter5_d" x="38" y="264.342" width="20" height="20" filterUnits="userSpaceOnUse" color-interpolation-filters="sRGB"><feFlood flood-opacity="0" result="BackgroundImageFix"/><feColorMatrix in="SourceAlpha" values="0 0 0 0 0 0 0 0 0 0 0 0 0 0 0 0 0 0 127 0"/><feOffset/><feGaussianBlur stdDeviation="2"/><feColorMatrix values="0 0 0 0 0.486889 0 0 0 0 0.8375 0 0 0 0 0.436198 0 0 0 1 0"/><feBlend in2="BackgroundImageFix" result="effect1_dropShadow"/><feBlend in="SourceGraphic" in2="effect1_dropShadow" result="shape"/></filter><filter id="filter6_d" x="58" y="264.342" width="20" height="20" filterUnits="userSpaceOnUse" color-interpolation-filters="sRGB"><feFlood flood-opacity="0" result="BackgroundImageFix"/><feColorMatrix in="SourceAlpha" values="0 0 0 0 0 0 0 0 0 0 0 0 0 0 0 0 0 0 127 0"/><feOffset/><feGaussianBlur stdDeviation="2"/><feColorMatrix values="0 0 0 0 0.486889 0 0 0 0 0.8375 0 0 0 0 0.436198 0 0 0 1 0"/><feBlend in2="BackgroundImageFix" result="effect1_dropShadow"/><feBlend in="SourceGraphic" in2="effect1_dropShadow" result="shape"/></filter><filter id="filter7_d" x="78" y="264.342" width="20" height="20" filterUnits="userSpaceOnUse" color-interpolation-filters="sRGB"><feFlood flood-opacity="0" result="BackgroundImageFix"/><feColorMatrix in="SourceAlpha" values="0 0 0 0 0 0 0 0 0 0 0 0 0 0 0 0 0 0 127 0"/><feOffset/><feGaussianBlur stdDeviation="2"/><feColorMatrix values="0 0 0 0 0.486889 0 0 0 0 0.8375 0 0 0 0 0.436198 0 0 0 1 0"/><feBlend in2="BackgroundImageFix" result="effect1_dropShadow"/><feBlend in="SourceGraphic" in2="effect1_dropShadow" result="shape"/></filter><filter id="filter8_d" x="98" y="264.342" width="20" height="20" filterUnits="userSpaceOnUse" color-interpolation-filters="sRGB"><feFlood flood-opacity="0" result="BackgroundImageFix"/><feColorMatrix in="SourceAlpha" values="0 0 0 0 0 0 0 0 0 0 0 0 0 0 0 0 0 0 127 0"/><feOffset/><feGaussianBlur stdDeviation="2"/><feColorMatrix values="0 0 0 0 0.486889 0 0 0 0 0.8375 0 0 0 0 0.436198 0 0 0 1 0"/><feBlend in2="BackgroundImageFix" result="effect1_dropShadow"/><feBlend in="SourceGraphic" in2="effect1_dropShadow" result="shape"/></filter><filter id="filter9_d" x="38" y="284.342" width="20" height="20" filterUnits="userSpaceOnUse" color-interpolation-filters="sRGB"><feFlood flood-opacity="0" result="BackgroundImageFix"/><feColorMatrix in="SourceAlpha" values="0 0 0 0 0 0 0 0 0 0 0 0 0 0 0 0 0 0 127 0"/><feOffset/><feGaussianBlur stdDeviation="2"/><feColorMatrix values="0 0 0 0 0.486889 0 0 0 0 0.8375 0 0 0 0 0.436198 0 0 0 1 0"/><feBlend in2="BackgroundImageFix" result="effect1_dropShadow"/><feBlend in="SourceGraphic" in2="effect1_dropShadow" result="shape"/></filter><filter id="filter10_d" x="58" y="284.342" width="20" height="20" filterUnits="userSpaceOnUse" color-interpolation-filters="sRGB"><feFlood flood-opacity="0" result="BackgroundImageFix"/><feColorMatrix in="SourceAlpha" values="0 0 0 0 0 0 0 0 0 0 0 0 0 0 0 0 0 0 127 0"/><feOffset/><feGaussianBlur stdDeviation="2"/><feColorMatrix values="0 0 0 0 0.486889 0 0 0 0 0.8375 0 0 0 0 0.436198 0 0 0 1 0"/><feBlend in2="BackgroundImageFix" result="effect1_dropShadow"/><feBlend in="SourceGraphic" in2="effect1_dropShadow" result="shape"/></filter><filter id="filter11_d" x="78" y="284.342" width="20" height="20" filterUnits="userSpaceOnUse" color-interpolation-filters="sRGB"><feFlood flood-opacity="0" result="BackgroundImageFix"/><feColorMatrix in="SourceAlpha" values="0 0 0 0 0 0 0 0 0 0 0 0 0 0 0 0 0 0 127 0"/><feOffset/><feGaussianBlur stdDeviation="2"/><feColorMatrix values="0 0 0 0 0.486889 0 0 0 0 0.8375 0 0 0 0 0.436198 0 0 0 1 0"/><feBlend in2="BackgroundImageFix" result="effect1_dropShadow"/><feBlend in="SourceGraphic" in2="effect1_dropShadow" result="shape"/></filter><filter id="filter12_d" x="58" y="304.342" width="20" height="20" filterUnits="userSpaceOnUse" color-interpolation-filters="sRGB"><feFlood flood-opacity="0" result="BackgroundImageFix"/><feColorMatrix in="SourceAlpha" values="0 0 0 0 0 0 0 0 0 0 0 0 0 0 0 0 0 0 127 0"/><feOffset/><feGaussianBlur stdDeviation="2"/><feColorMatrix values="0 0 0 0 0.486889 0 0 0 0 0.8375 0 0 0 0 0.436198 0 0 0 1 0"/><feBlend in2="BackgroundImageFix" result="effect1_dropShadow"/><feBlend in="SourceGraphic" in2="effect1_dropShadow" result="shape"/></filter><radialGradient id="paint1_radial" cx="0" cy="0" r="1" gradientUnits="userSpaceOnUse" gradientTransform="matrix(0 60 -60 0 68 274.342)"><stop stop-color="#fff" stop-opacity="0"/><stop offset="1"/></radialGradient><linearGradient id="paint0_linear" x1="59" y1="199.342" x2="77" y2="199.342" gradientUnits="userSpaceOnUse"><stop stop-color="#2C2C2C"/><stop offset=".503" stop-color="#424242"/><stop offset="1" stop-color="#2C2C2C"/></linearGradient></defs></svg>