<svg width="285" height="385" viewBox="0 0 285 385" fill="none" xmlns="http://www.w3.org/2000/svg">
<mask id="mask0" mask-type="alpha" maskUnits="userSpaceOnUse" x="0" y="0" width="285" height="385">
<rect width="285" height="385" fill="#C4C4C4"/>
</mask>
<g mask="url(#mask0)">
<path d="M128.479 225.713C128.479 223.675 129.076 222.023 129.813 222.023H223.238C223.975 222.023 224.573 223.675 224.573 225.713V323.497C224.573 325.535 223.975 327.187 223.238 327.187H129.813C129.076 327.187 128.479 325.535 128.479 323.497V225.713Z" fill="#009ECE"/>
<path d="M147.846 219.757C147.462 220.424 146.499 220.424 146.114 219.757L142.846 214.097C142.462 213.43 142.943 212.597 143.713 212.597L150.248 212.597C151.018 212.597 151.499 213.43 151.114 214.097L147.846 219.757Z" fill="#01928B"/>
<path d="M128.479 183.325C128.479 182.709 129.267 182.209 130.24 182.209H253.54C254.512 182.209 255.301 182.709 255.301 183.325V212.907C255.301 213.524 254.512 214.024 253.54 214.024H130.24C129.267 214.024 128.479 213.524 128.479 212.907V183.325Z" fill="#01928B"/>
<path d="M147.846 179.942C147.462 180.609 146.499 180.609 146.114 179.942L142.846 174.282C142.462 173.615 142.943 172.782 143.713 172.782L150.248 172.782C151.018 172.782 151.499 173.615 151.114 174.282L147.846 179.942Z" fill="#B6519D"/>
<path d="M128.479 143.696C128.479 143.08 129.361 142.58 130.449 142.58H268.39C269.478 142.58 270.36 143.08 270.36 143.696V173.278C270.36 173.895 269.478 174.395 268.39 174.395H130.449C129.361 174.395 128.479 173.895 128.479 173.278V143.696Z" fill="#B6519D"/>
<path d="M147.846 139.942C147.462 140.609 146.499 140.609 146.114 139.942L142.846 134.282C142.462 133.615 142.943 132.782 143.713 132.782L150.248 132.782C151.018 132.782 151.499 133.615 151.114 134.282L147.846 139.942Z" fill="#F58518"/>
<path d="M128.479 103.881C128.479 103.264 129.177 102.765 130.038 102.765H239.168C240.029 102.765 240.727 103.264 240.727 103.881V133.463C240.727 134.08 240.029 134.579 239.168 134.579H130.038C129.177 134.579 128.479 134.08 128.479 133.463V103.881Z" fill="#F58518"/>
<path d="M161.942 264.527C161.942 263.045 162.412 261.798 163.351 260.786C164.327 259.81 165.574 259.322 167.092 259.322C168.61 259.322 169.839 259.81 170.778 260.786C171.754 261.798 172.242 263.045 172.242 264.527C172.242 265.972 171.754 267.183 170.778 268.159C169.839 269.135 168.61 269.623 167.092 269.623C165.574 269.623 164.327 269.135 163.351 268.159C162.412 267.183 161.942 265.972 161.942 264.527ZM180.049 264.527C180.049 263.045 180.519 261.798 181.458 260.786C182.434 259.81 183.681 259.322 185.199 259.322C186.717 259.322 187.946 259.81 188.885 260.786C189.861 261.798 190.349 263.045 190.349 264.527C190.349 265.972 189.861 267.183 188.885 268.159C187.946 269.135 186.717 269.623 185.199 269.623C183.681 269.623 182.434 269.135 181.458 268.159C180.519 267.183 180.049 265.972 180.049 264.527Z" fill="#FAFAFA"/>
<path d="M149.364 271.458L155.219 271.458C155.219 275.433 156.358 278.397 158.635 280.349C160.876 282.3 164.399 283.276 169.206 283.276L183.844 283.276C188.651 283.276 192.174 282.3 194.415 280.349C196.692 278.397 197.831 275.433 197.831 271.458L203.686 271.458C203.686 275.506 202.981 278.885 201.571 281.596C200.162 284.342 198.011 286.403 195.12 287.776C192.229 289.185 188.542 289.89 184.061 289.89L168.989 289.89C164.508 289.89 160.821 289.185 157.93 287.776C155.039 286.403 152.888 284.342 151.479 281.596C150.069 278.885 149.364 275.506 149.364 271.458Z" fill="#FAFAFA"/>
<path d="M99.4775 -2.73566C100.074 2.95713 108.289 36.5048 100.478 82.7644C94.3203 119.23 72.4888 142.595 68.505 171.897C64.6307 193.638 72.8953 209.958 73.727 224.594" stroke="#616161" stroke-width="6"/>
<path d="M67.2812 230.904C67.0407 227.046 69.9736 223.723 73.8321 223.482V223.482C77.6906 223.242 81.0136 226.175 81.2541 230.033L82.374 247.998L68.4011 248.87L67.2812 230.904Z" fill="#BDBDBD"/>
<g filter="url(#filter0_d)">
<rect x="15.5039" y="252.167" width="120" height="120" rx="2" transform="rotate(-3.56707 15.5039 252.167)" fill="#2C2C2C"/>
</g>
<g filter="url(#filter1_d)">
<path d="M65.2846 231.028C64.9753 226.068 68.7462 221.795 73.7072 221.486V221.486C78.6681 221.177 82.9404 224.948 83.2497 229.909L84.1829 244.879L66.2178 245.999L65.2846 231.028Z" fill="#3C3C3C"/>
<path d="M65.2846 231.028C64.9753 226.068 68.7462 221.795 73.7072 221.486V221.486C78.6681 221.177 82.9404 224.948 83.2497 229.909L84.1829 244.879L66.2178 245.999L65.2846 231.028Z" fill="url(#paint0_linear)"/>
</g>
<rect x="30.3477" y="265.269" width="12" height="12" transform="rotate(-3.56707 30.3477 265.269)" fill="#444444"/>
<rect x="50.3086" y="264.024" width="12" height="12" transform="rotate(-3.56707 50.3086 264.024)" fill="#444444"/>
<rect x="70.2695" y="262.78" width="12" height="12" transform="rotate(-3.56707 70.2695 262.78)" fill="#444444"/>
<rect x="90.2305" y="261.536" width="12" height="12" transform="rotate(-3.56707 90.2305 261.536)" fill="#444444"/>
<rect x="110.191" y="260.291" width="12" height="12" transform="rotate(-3.56707 110.191 260.291)" fill="#444444"/>
<rect x="31.5918" y="285.229" width="12" height="12" transform="rotate(-3.56707 31.5918 285.229)" fill="#444444"/>
<g filter="url(#filter2_d)">
<rect x="51.5527" y="283.985" width="12" height="12" transform="rotate(-3.56707 51.5527 283.985)" fill="#25D366"/>
</g>
<rect x="71.5137" y="282.741" width="12" height="12" transform="rotate(-3.56707 71.5137 282.741)" fill="#444444"/>
<g filter="url(#filter3_d)">
<rect x="91.4746" y="281.497" width="12" height="12" transform="rotate(-3.56707 91.4746 281.497)" fill="#25D366"/>
</g>
<rect x="111.438" y="280.253" width="12" height="12" transform="rotate(-3.56707 111.438 280.253)" fill="#444444"/>
<rect x="32.8359" y="305.191" width="12" height="12" transform="rotate(-3.56707 32.8359 305.191)" fill="#444444"/>
<rect x="52.7969" y="303.947" width="12" height="12" transform="rotate(-3.56707 52.7969 303.947)" fill="#444444"/>
<rect x="72.7578" y="302.702" width="12" height="12" transform="rotate(-3.56707 72.7578 302.702)" fill="#444444"/>
<rect x="92.7207" y="301.458" width="12" height="12" transform="rotate(-3.56707 92.7207 301.458)" fill="#444444"/>
<rect x="112.682" y="300.214" width="12" height="12" transform="rotate(-3.56707 112.682 300.214)" fill="#444444"/>
<g filter="url(#filter4_d)">
<rect x="34.0801" y="325.152" width="12" height="12" transform="rotate(-3.56707 34.0801 325.152)" fill="#25D366"/>
</g>
<rect x="54.041" y="323.908" width="12" height="12" transform="rotate(-3.56707 54.041 323.908)" fill="#444444"/>
<rect x="74.002" y="322.664" width="12" height="12" transform="rotate(-3.56707 74.002 322.664)" fill="#444444"/>
<rect x="93.9648" y="321.42" width="12" height="12" transform="rotate(-3.56707 93.9648 321.42)" fill="#444444"/>
<g filter="url(#filter5_d)">
<rect x="113.926" y="320.175" width="12" height="12" transform="rotate(-3.56707 113.926 320.175)" fill="#25D366"/>
</g>
<rect x="35.3242" y="345.113" width="12" height="12" transform="rotate(-3.56707 35.3242 345.113)" fill="#444444"/>
<g filter="url(#filter6_d)">
<rect x="55.2852" y="343.869" width="12" height="12" transform="rotate(-3.56707 55.2852 343.869)" fill="#25D366"/>
</g>
<g filter="url(#filter7_d)">
<rect x="75.248" y="342.625" width="12" height="12" transform="rotate(-3.56707 75.248 342.625)" fill="#25D366"/>
</g>
<g filter="url(#filter8_d)">
<rect x="95.209" y="341.381" width="12" height="12" transform="rotate(-3.56707 95.209 341.381)" fill="#25D366"/>
</g>
<rect x="115.17" y="340.137" width="12" height="12" transform="rotate(-3.56707 115.17 340.137)" fill="#444444"/>
</g>
<defs>
<filter id="filter0_d" x="7.50391" y="236.701" width="143.234" height="143.234" filterUnits="userSpaceOnUse" color-interpolation-filters="sRGB">
<feFlood flood-opacity="0" result="BackgroundImageFix"/>
<feColorMatrix in="SourceAlpha" type="matrix" values="0 0 0 0 0 0 0 0 0 0 0 0 0 0 0 0 0 0 127 0"/>
<feOffset/>
<feGaussianBlur stdDeviation="4"/>
<feColorMatrix type="matrix" values="0 0 0 0 0.172549 0 0 0 0 0.172549 0 0 0 0 0.172549 0 0 0 0.5 0"/>
<feBlend mode="normal" in2="BackgroundImageFix" result="effect1_dropShadow"/>
<feBlend mode="normal" in="SourceGraphic" in2="effect1_dropShadow" result="shape"/>
</filter>
<filter id="filter1_d" x="56.7246" y="212.926" width="35.4583" height="41.0734" filterUnits="userSpaceOnUse" color-interpolation-filters="sRGB">
<feFlood flood-opacity="0" result="BackgroundImageFix"/>
<feColorMatrix in="SourceAlpha" type="matrix" values="0 0 0 0 0 0 0 0 0 0 0 0 0 0 0 0 0 0 127 0"/>
<feOffset/>
<feGaussianBlur stdDeviation="4"/>
<feColorMatrix type="matrix" values="0 0 0 0 0.172549 0 0 0 0 0.172549 0 0 0 0 0.172549 0 0 0 0.5 0"/>
<feBlend mode="normal" in2="BackgroundImageFix" result="effect1_dropShadow"/>
<feBlend mode="normal" in="SourceGraphic" in2="effect1_dropShadow" result="shape"/>
</filter>
<filter id="filter2_d" x="47.5527" y="279.238" width="20.7234" height="20.7234" filterUnits="userSpaceOnUse" color-interpolation-filters="sRGB">
<feFlood flood-opacity="0" result="BackgroundImageFix"/>
<feColorMatrix in="SourceAlpha" type="matrix" values="0 0 0 0 0 0 0 0 0 0 0 0 0 0 0 0 0 0 127 0"/>
<feOffset/>
<feGaussianBlur stdDeviation="2"/>
<feColorMatrix type="matrix" values="0 0 0 0 0.486889 0 0 0 0 0.8375 0 0 0 0 0.436198 0 0 0 1 0"/>
<feBlend mode="normal" in2="BackgroundImageFix" result="effect1_dropShadow"/>
<feBlend mode="normal" in="SourceGraphic" in2="effect1_dropShadow" result="shape"/>
</filter>
<filter id="filter3_d" x="87.4746" y="276.75" width="20.7234" height="20.7234" filterUnits="userSpaceOnUse" color-interpolation-filters="sRGB">
<feFlood flood-opacity="0" result="BackgroundImageFix"/>
<feColorMatrix in="SourceAlpha" type="matrix" values="0 0 0 0 0 0 0 0 0 0 0 0 0 0 0 0 0 0 127 0"/>
<feOffset/>
<feGaussianBlur stdDeviation="2"/>
<feColorMatrix type="matrix" values="0 0 0 0 0.486889 0 0 0 0 0.8375 0 0 0 0 0.436198 0 0 0 1 0"/>
<feBlend mode="normal" in2="BackgroundImageFix" result="effect1_dropShadow"/>
<feBlend mode="normal" in="SourceGraphic" in2="effect1_dropShadow" result="shape"/>
</filter>
<filter id="filter4_d" x="30.0801" y="320.405" width="20.7234" height="20.7234" filterUnits="userSpaceOnUse" color-interpolation-filters="sRGB">
<feFlood flood-opacity="0" result="BackgroundImageFix"/>
<feColorMatrix in="SourceAlpha" type="matrix" values="0 0 0 0 0 0 0 0 0 0 0 0 0 0 0 0 0 0 127 0"/>
<feOffset/>
<feGaussianBlur stdDeviation="2"/>
<feColorMatrix type="matrix" values="0 0 0 0 0.486889 0 0 0 0 0.8375 0 0 0 0 0.436198 0 0 0 1 0"/>
<feBlend mode="normal" in2="BackgroundImageFix" result="effect1_dropShadow"/>
<feBlend mode="normal" in="SourceGraphic" in2="effect1_dropShadow" result="shape"/>
</filter>
<filter id="filter5_d" x="109.926" y="315.428" width="20.7234" height="20.7234" filterUnits="userSpaceOnUse" color-interpolation-filters="sRGB">
<feFlood flood-opacity="0" result="BackgroundImageFix"/>
<feColorMatrix in="SourceAlpha" type="matrix" values="0 0 0 0 0 0 0 0 0 0 0 0 0 0 0 0 0 0 127 0"/>
<feOffset/>
<feGaussianBlur stdDeviation="2"/>
<feColorMatrix type="matrix" values="0 0 0 0 0.486889 0 0 0 0 0.8375 0 0 0 0 0.436198 0 0 0 1 0"/>
<feBlend mode="normal" in2="BackgroundImageFix" result="effect1_dropShadow"/>
<feBlend mode="normal" in="SourceGraphic" in2="effect1_dropShadow" result="shape"/>
</filter>
<filter id="filter6_d" x="51.2852" y="339.122" width="20.7234" height="20.7234" filterUnits="userSpaceOnUse" color-interpolation-filters="sRGB">
<feFlood flood-opacity="0" result="BackgroundImageFix"/>
<feColorMatrix in="SourceAlpha" type="matrix" values="0 0 0 0 0 0 0 0 0 0 0 0 0 0 0 0 0 0 127 0"/>
<feOffset/>
<feGaussianBlur stdDeviation="2"/>
<feColorMatrix type="matrix" values="0 0 0 0 0.486889 0 0 0 0 0.8375 0 0 0 0 0.436198 0 0 0 1 0"/>
<feBlend mode="normal" in2="BackgroundImageFix" result="effect1_dropShadow"/>
<feBlend mode="normal" in="SourceGraphic" in2="effect1_dropShadow" result="shape"/>
</filter>
<filter id="filter7_d" x="71.248" y="337.878" width="20.7234" height="20.7234" filterUnits="userSpaceOnUse" color-interpolation-filters="sRGB">
<feFlood flood-opacity="0" result="BackgroundImageFix"/>
<feColorMatrix in="SourceAlpha" type="matrix" values="0 0 0 0 0 0 0 0 0 0 0 0 0 0 0 0 0 0 127 0"/>
<feOffset/>
<feGaussianBlur stdDeviation="2"/>
<feColorMatrix type="matrix" values="0 0 0 0 0.486889 0 0 0 0 0.8375 0 0 0 0 0.436198 0 0 0 1 0"/>
<feBlend mode="normal" in2="BackgroundImageFix" result="effect1_dropShadow"/>
<feBlend mode="normal" in="SourceGraphic" in2="effect1_dropShadow" result="shape"/>
</filter>
<filter id="filter8_d" x="91.209" y="336.634" width="20.7234" height="20.7234" filterUnits="userSpaceOnUse" color-interpolation-filters="sRGB">
<feFlood flood-opacity="0" result="BackgroundImageFix"/>
<feColorMatrix in="SourceAlpha" type="matrix" values="0 0 0 0 0 0 0 0 0 0 0 0 0 0 0 0 0 0 127 0"/>
<feOffset/>
<feGaussianBlur stdDeviation="2"/>
<feColorMatrix type="matrix" values="0 0 0 0 0.486889 0 0 0 0 0.8375 0 0 0 0 0.436198 0 0 0 1 0"/>
<feBlend mode="normal" in2="BackgroundImageFix" result="effect1_dropShadow"/>
<feBlend mode="normal" in="SourceGraphic" in2="effect1_dropShadow" result="shape"/>
</filter>
<linearGradient id="paint0_linear" x1="65.4712" y1="234.023" x2="83.4363" y2="232.903" gradientUnits="userSpaceOnUse">
<stop stop-color="#2C2C2C"/>
<stop offset="0.5035" stop-color="#525252"/>
<stop offset="1" stop-color="#2C2C2C"/>
</linearGradient>
</defs>
</svg>
