<svg width="412" height="312" viewBox="0 0 412 312" fill="none" xmlns="http://www.w3.org/2000/svg">
<style>

    @keyframes block-coding {
        0% {
            transform: translateY(-70px) rotate(3deg);
        }
        15% {
            transform: translateY(-70px) rotate(3deg);
        }
        20% {
            transform: translateY(0) rotate(0);
        }
        93% {
            transform: translateY(0) rotate(0);
        }
        98% {
            transform: translateY(-70px) rotate(3deg);
        }
        100% {
            transform: translateY(-70px) rotate(3deg);
        }
    }

    @keyframes block-make-smile {
        0% {
            transform: translateY(70px) rotate(4deg);
        }
        20% {
            transform: translateY(70px) rotate(4deg);
        }
        25% {
            transform: translateY(0) rotate(0);
        }
        93% {
            transform: translateY(0) rotate(0);
        }
        98% {
            transform: translateY(70px) rotate(4deg);
        }
        100% {
            transform: translateY(70px) rotate(4deg);
        }
    }

    @keyframes boardie-leds-on {
        0% {
            opacity: 0;
        }
        25% {
            opacity: 0;
        }
        26% {
            opacity: 1;
        }
        27% {
            opacity: 0;
        }
        28% {
            opacity: 1;
        }
        29% {
            opacity: 0;
        }
        31% {
            opacity: 1;
        }
        98% {
            opacity: 1;
        }
        100% {
            opacity: 0;
        }
    }

    #block-coding {
        animation: block-coding 6s;
        animation-iteration-count: infinite;
        _animation-direction: alternate;
    }

    #block-action {
        animation: block-make-smile 6s;
        animation-iteration-count: infinite;
        _animation-direction: alternate;
    }

    #leds-on {
        animation: boardie-leds-on 6s;
        animation-iteration-count: infinite;
        _animation-direction: alternate;
    }

</style>
<g id="boardie-home" clip-path="url(#clip0)">
<g id="block-if" filter="url(#filter0_d)">
<path id="Union" fill-rule="evenodd" clip-rule="evenodd" d="M131.051 121.711C131.023 120.678 131.852 119.818 132.904 119.79L346.056 114.052C347.107 114.023 347.982 114.838 348.01 115.871L349.319 164.499C349.346 165.532 348.517 166.393 347.466 166.421L166.205 171.3C165.101 171.33 164.23 172.249 164.259 173.354L165.536 220.789C165.566 221.893 166.485 222.764 167.589 222.735L348.851 217.855C349.902 217.827 350.776 218.641 350.804 219.674L351.081 229.961C351.109 230.994 350.279 231.855 349.228 231.883L136.076 237.621C135.025 237.649 134.15 236.835 134.122 235.802L133.996 231.126C133.996 231.126 133.996 231.126 133.996 231.126V231.126C133.996 231.126 133.996 231.126 133.996 231.125L132.208 164.729C132.208 164.729 132.208 164.729 132.209 164.729V164.729C132.209 164.729 132.209 164.729 132.209 164.729L131.051 121.711Z" fill="#E07233"/>
<rect id="Rectangle 676" opacity="0.25" x="180.046" y="127.428" width="160.843" height="36.4202" rx="18.2101" transform="rotate(-1.74909 180.046 127.428)" stroke="white"/>
<!--<g id="if">-->
<g id="如果">
<path d="M145.587 156.882L145.138 140.183L149.379 140.069L149.829 156.767L145.587 156.882ZM147.206 138.174C146.443 138.194 145.785 137.965 145.233 137.485C144.704 137.006 144.428 136.362 144.406 135.554C144.385 134.746 144.625 134.088 145.128 133.58C145.654 133.072 146.298 132.807 147.061 132.787C147.846 132.766 148.504 132.995 149.034 133.475C149.563 133.955 149.839 134.599 149.86 135.407C149.882 136.215 149.642 136.873 149.139 137.38C148.636 137.888 147.991 138.152 147.206 138.174Z" fill="white"/>
<path d="M157.964 156.548L157.608 143.351L153.366 143.466L153.272 139.964L157.514 139.85L157.431 136.753C157.4 135.608 157.712 134.69 158.367 133.999C159.044 133.284 159.933 132.912 161.032 132.883L165.409 132.765L165.503 136.266L162.608 136.344C161.98 136.361 161.674 136.706 161.692 137.379L161.756 139.736L166.133 139.618L166.227 143.119L161.85 143.237L162.205 156.434L157.964 156.548Z" fill="white"/>
</g>
</g>
<g id="block-coding" filter="url(#filter1_d)">
<rect id="Rectangle 676_2" x="180.16" y="128.876" width="161.843" height="37.4202" rx="18.7101" transform="rotate(-3.1438 180.16 128.876)" fill="#4E58A7"/>
<!--<g id="coding is fun">-->
<g id="编程有趣">
<path d="M199.615 154.356C198.539 154.415 197.548 154.244 196.641 153.844C195.75 153.444 195.027 152.831 194.472 152.007C193.917 151.183 193.606 150.166 193.539 148.955L193.522 148.642C193.456 147.431 193.653 146.386 194.115 145.506C194.576 144.626 195.228 143.938 196.07 143.442C196.927 142.946 197.894 142.668 198.97 142.608C200.031 142.55 200.953 142.687 201.736 143.019C202.518 143.35 203.159 143.832 203.659 144.465C204.172 145.081 204.526 145.796 204.721 146.61L202.018 147.343C201.934 146.898 201.777 146.502 201.548 146.155C201.319 145.807 201.005 145.54 200.604 145.352C200.219 145.163 199.743 145.084 199.175 145.116C198.607 145.147 198.098 145.302 197.649 145.582C197.214 145.845 196.875 146.231 196.633 146.739C196.405 147.232 196.311 147.829 196.349 148.531L196.362 148.755C196.4 149.458 196.56 150.049 196.841 150.528C197.137 150.991 197.515 151.338 197.978 151.567C198.454 151.781 198.976 151.872 199.544 151.841C200.396 151.794 201.027 151.542 201.437 151.085C201.86 150.612 202.112 150.014 202.192 149.29L204.963 149.79C204.812 150.592 204.516 151.336 204.074 152.02C203.646 152.688 203.061 153.229 202.319 153.645C201.578 154.061 200.676 154.297 199.615 154.356Z" fill="white"/>
<path d="M212.37 153.655C211.264 153.716 210.257 153.546 209.351 153.146C208.445 152.746 207.714 152.134 207.159 151.31C206.604 150.486 206.294 149.477 206.228 148.281L206.208 147.922C206.143 146.727 206.341 145.689 206.802 144.809C207.263 143.929 207.923 143.241 208.78 142.744C209.637 142.247 210.618 141.969 211.724 141.908C212.83 141.847 213.837 142.017 214.743 142.417C215.649 142.817 216.38 143.429 216.935 144.253C217.49 145.077 217.8 146.086 217.866 147.282L217.886 147.641C217.951 148.836 217.753 149.874 217.292 150.754C216.831 151.634 216.171 152.322 215.314 152.819C214.457 153.316 213.476 153.594 212.37 153.655ZM212.232 151.144C213.099 151.097 213.801 150.781 214.338 150.197C214.875 149.597 215.115 148.775 215.057 147.729L215.045 147.504C214.987 146.458 214.66 145.674 214.061 145.152C213.477 144.615 212.744 144.37 211.862 144.419C210.995 144.466 210.294 144.79 209.757 145.389C209.219 145.973 208.979 146.788 209.037 147.834L209.049 148.059C209.107 149.105 209.435 149.896 210.034 150.433C210.632 150.955 211.365 151.192 212.232 151.144Z" fill="white"/>
<path d="M224.841 152.97C223.959 153.019 223.118 152.847 222.317 152.457C221.53 152.05 220.882 151.434 220.371 150.607C219.861 149.781 219.573 148.762 219.507 147.552L219.487 147.193C219.42 145.982 219.595 144.938 220.012 144.061C220.428 143.184 221.006 142.507 221.744 142.032C222.482 141.542 223.299 141.272 224.196 141.223C224.868 141.186 225.433 141.237 225.891 141.377C226.362 141.501 226.747 141.675 227.044 141.898C227.341 142.122 227.571 142.364 227.736 142.625L228.139 142.603L227.818 136.752L230.643 136.596L231.504 152.289L228.725 152.442L228.651 151.097L228.247 151.119C228.016 151.552 227.641 151.954 227.122 152.328C226.618 152.7 225.857 152.914 224.841 152.97ZM225.557 150.457C226.424 150.41 227.134 150.093 227.687 149.508C228.238 148.908 228.484 148.07 228.425 146.994L228.413 146.77C228.354 145.694 228.018 144.896 227.405 144.375C226.805 143.838 226.065 143.594 225.183 143.642C224.316 143.69 223.607 144.014 223.055 144.613C222.503 145.198 222.256 146.029 222.315 147.105L222.328 147.329C222.387 148.405 222.723 149.211 223.337 149.747C223.951 150.268 224.691 150.505 225.557 150.457Z" fill="white"/>
<path d="M234.188 152.142L233.577 141.022L236.402 140.867L237.013 151.987L234.188 152.142ZM234.918 139.645C234.41 139.673 233.967 139.532 233.591 139.223C233.229 138.913 233.033 138.489 233.004 137.951C232.974 137.413 233.122 136.97 233.448 136.622C233.788 136.274 234.213 136.086 234.721 136.058C235.244 136.029 235.687 136.17 236.048 136.479C236.41 136.789 236.606 137.213 236.635 137.751C236.665 138.289 236.517 138.732 236.191 139.08C235.866 139.428 235.441 139.616 234.918 139.645Z" fill="white"/>
<path d="M239.694 151.84L239.084 140.72L241.863 140.567L241.944 142.025L242.347 142.002C242.505 141.604 242.821 141.219 243.296 140.848C243.769 140.463 244.506 140.242 245.508 140.187C246.375 140.14 247.141 140.3 247.805 140.668C248.484 141.021 249.022 141.538 249.42 142.221C249.816 142.889 250.04 143.686 250.091 144.613L250.455 151.248L247.63 151.404L247.278 144.992C247.232 144.155 246.989 143.539 246.547 143.143C246.121 142.747 245.526 142.57 244.764 142.612C243.897 142.659 243.241 142.988 242.794 143.597C242.347 144.191 242.152 145.004 242.209 146.035L242.519 151.684L239.694 151.84Z" fill="white"/>
<path d="M252.219 145.62L252.2 145.261C252.136 144.096 252.313 143.089 252.731 142.242C253.148 141.379 253.726 140.71 254.465 140.235C255.217 139.744 256.049 139.473 256.961 139.423C257.977 139.367 258.757 139.505 259.3 139.835C259.842 140.164 260.244 140.517 260.505 140.893L260.908 140.87L260.834 139.525L263.614 139.373L264.333 152.465C264.375 153.227 264.184 153.845 263.76 154.318C263.337 154.806 262.752 155.07 262.005 155.111L254.562 155.52L254.427 153.054L260.883 152.699C261.302 152.676 261.499 152.441 261.474 151.992L261.315 149.1L260.912 149.123C260.775 149.37 260.58 149.628 260.324 149.897C260.069 150.151 259.721 150.372 259.282 150.561C258.842 150.75 258.279 150.864 257.591 150.901C256.68 150.952 255.823 150.781 255.022 150.391C254.236 149.984 253.588 149.382 253.079 148.586C252.57 147.774 252.284 146.786 252.219 145.62ZM258.263 148.391C259.13 148.344 259.84 148.027 260.392 147.442C260.945 146.857 261.193 146.064 261.138 145.063L261.126 144.839C261.07 143.822 260.736 143.061 260.124 142.555C259.525 142.033 258.785 141.797 257.903 141.845C257.037 141.893 256.327 142.209 255.774 142.794C255.221 143.364 254.972 144.157 255.028 145.173L255.04 145.398C255.095 146.399 255.43 147.16 256.043 147.681C256.656 148.202 257.396 148.439 258.263 148.391Z" fill="white"/>
<path d="M272.152 150.057L271.541 138.937L274.366 138.782L274.977 149.902L272.152 150.057ZM272.882 137.559C272.374 137.587 271.932 137.447 271.555 137.138C271.193 136.828 270.997 136.404 270.968 135.866C270.938 135.328 271.086 134.885 271.412 134.537C271.753 134.189 272.177 134 272.685 133.973C273.208 133.944 273.651 134.084 274.012 134.394C274.374 134.704 274.57 135.128 274.6 135.666C274.629 136.204 274.481 136.647 274.155 136.995C273.83 137.343 273.405 137.531 272.882 137.559Z" fill="white"/>
<path d="M282.294 149.815C280.844 149.894 279.639 149.646 278.678 149.069C277.717 148.492 277.107 147.626 276.849 146.471L279.412 145.656C279.545 146.173 279.74 146.574 279.995 146.86C280.266 147.145 280.584 147.345 280.95 147.46C281.33 147.559 281.737 147.597 282.171 147.573C282.828 147.537 283.308 147.398 283.609 147.156C283.91 146.9 284.051 146.6 284.032 146.256C284.013 145.912 283.85 145.659 283.541 145.496C283.231 145.318 282.744 145.188 282.08 145.104L281.446 145.027C280.661 144.92 279.94 144.757 279.283 144.538C278.626 144.305 278.09 143.967 277.676 143.525C277.262 143.083 277.035 142.496 276.995 141.763C276.934 140.657 277.291 139.791 278.066 139.164C278.84 138.521 279.885 138.164 281.2 138.092C282.441 138.024 283.487 138.244 284.34 138.752C285.192 139.259 285.77 139.955 286.073 140.837L283.495 141.789C283.344 141.227 283.075 140.837 282.688 140.619C282.316 140.399 281.861 140.304 281.323 140.334C280.785 140.363 280.38 140.483 280.106 140.693C279.832 140.888 279.704 141.15 279.722 141.479C279.742 141.837 279.906 142.098 280.215 142.261C280.523 142.409 280.933 142.514 281.447 142.576L282.08 142.653C282.926 142.757 283.691 142.917 284.378 143.134C285.079 143.336 285.636 143.657 286.05 144.099C286.478 144.525 286.713 145.127 286.756 145.904C286.82 147.07 286.444 147.998 285.627 148.687C284.825 149.361 283.714 149.737 282.294 149.815Z" fill="white"/>
<path d="M296.049 148.744L295.566 139.956L292.741 140.111L292.613 137.78L295.438 137.625L295.325 135.562C295.283 134.8 295.474 134.182 295.897 133.709C296.335 133.221 296.92 132.956 297.653 132.916L300.567 132.756L300.695 135.087L298.767 135.193C298.349 135.216 298.152 135.452 298.176 135.9L298.263 137.47L301.177 137.31L301.305 139.641L298.391 139.801L298.873 148.589L296.049 148.744Z" fill="white"/>
<path d="M307.773 148.28C306.906 148.328 306.133 148.175 305.454 147.823C304.79 147.455 304.259 146.929 303.861 146.246C303.464 145.564 303.24 144.766 303.19 143.855L302.826 137.219L305.651 137.064L306.003 143.475C306.049 144.312 306.285 144.929 306.711 145.325C307.153 145.721 307.755 145.898 308.517 145.856C309.384 145.808 310.041 145.487 310.488 144.893C310.934 144.284 311.129 143.464 311.072 142.433L310.762 136.783L313.587 136.628L314.197 147.747L311.418 147.9L311.337 146.443L310.934 146.465C310.775 146.849 310.459 147.233 309.985 147.619C309.512 148.005 308.775 148.225 307.773 148.28Z" fill="white"/>
<path d="M316.892 147.599L316.282 136.48L319.061 136.327L319.142 137.784L319.545 137.762C319.703 137.364 320.019 136.979 320.494 136.608C320.967 136.223 321.704 136.002 322.706 135.947C323.573 135.9 324.338 136.06 325.003 136.428C325.682 136.781 326.22 137.298 326.618 137.981C327.014 138.649 327.238 139.446 327.289 140.373L327.653 147.008L324.828 147.164L324.476 140.752C324.43 139.915 324.187 139.299 323.745 138.903C323.319 138.507 322.724 138.33 321.962 138.372C321.095 138.419 320.439 138.748 319.992 139.357C319.545 139.951 319.35 140.764 319.407 141.795L319.717 147.444L316.892 147.599Z" fill="white"/>
</g>
</g>
<g id="block-action" filter="url(#filter2_d)">
<rect id="Rectangle 680" x="172.082" y="178.281" width="225.457" height="37.4202" rx="2" transform="rotate(-1.52 172.082 178.281)" fill="#009ECE"/>
<!--<g id="make boardie smile :)">-->
<g id="让小主板露出笑脸 :)">
<path d="M185.592 202.506L188.237 202.436L188.073 196.285C188.035 194.858 188.686 194.042 189.903 194.01C190.953 193.982 191.598 194.553 191.629 195.686L191.805 202.341L194.451 202.271L194.287 196.12C194.249 194.692 194.9 193.877 196.117 193.844C197.167 193.817 197.812 194.388 197.842 195.521L198.019 202.176L200.664 202.106L200.482 195.262C200.416 192.743 198.83 191.567 196.898 191.618C195.303 191.66 194.523 192.353 194.085 193.247L193.707 193.257C193.199 192.346 192.343 191.739 190.853 191.779C189.467 191.815 188.664 192.446 188.326 193.148L187.948 193.158L187.918 192.025L185.315 192.094L185.592 202.506Z" fill="white"/>
<path d="M206.33 202.249C208.513 202.191 209.133 200.998 209.308 200.468L209.707 200.458L209.707 200.479C209.729 201.319 210.5 201.844 211.528 201.817L213.292 201.77L213.234 199.587L212.394 199.609C212.016 199.619 211.801 199.415 211.789 198.995L211.686 195.111C211.617 192.508 209.858 191.148 207.129 191.22C204.421 191.292 203.093 192.693 202.631 194.281L205.088 195.035C205.252 194.085 205.822 193.398 207.144 193.362C208.488 193.327 209.094 194.025 209.12 194.99L209.136 195.578L206.281 195.654C203.93 195.717 202.28 196.874 202.337 199.015C202.394 201.156 204.105 202.308 206.33 202.249ZM206.735 200.096C205.601 200.126 205 199.617 204.979 198.861C204.959 198.105 205.535 197.649 206.522 197.622L209.188 197.552L209.194 197.762C209.231 199.147 208.204 200.057 206.735 200.096Z" fill="white"/>
<path d="M214.806 201.73L217.451 201.66L217.341 197.524L217.719 197.514L221.481 201.552L224.882 201.462L219.764 196.22L224.438 191.054L220.995 191.146L217.654 195.079L217.276 195.089L217.06 186.965L214.415 187.035L214.806 201.73Z" fill="white"/>
<path d="M230.352 201.611C233.207 201.535 234.402 199.886 234.961 198.757L232.768 197.681C232.433 198.488 231.844 199.26 230.374 199.299C228.905 199.338 227.766 198.381 227.665 196.956L235.244 196.754L235.22 195.851C235.135 192.661 233.083 190.53 230.018 190.612C226.911 190.694 224.867 192.849 224.954 196.124L224.961 196.376C225.048 199.651 227.224 201.694 230.352 201.611ZM227.634 194.982C227.791 193.78 228.63 192.959 230.058 192.922C231.422 192.885 232.346 193.659 232.504 194.852L227.634 194.982Z" fill="white"/>
<path d="M248.47 201.129C250.968 201.063 253.121 199.073 253.03 195.672L253.021 195.336C252.931 191.936 250.696 190.062 248.177 190.129C246.288 190.179 245.405 190.959 244.984 191.706L244.606 191.716L244.461 186.237L241.816 186.307L242.206 201.002L244.809 200.933L244.776 199.673L245.154 199.663C245.658 200.448 246.58 201.18 248.47 201.129ZM247.611 198.841C245.994 198.884 244.727 197.847 244.674 195.831L244.668 195.621C244.614 193.606 245.804 192.503 247.441 192.46C249.078 192.416 250.324 193.454 250.378 195.47L250.384 195.68C250.437 197.695 249.227 198.798 247.611 198.841Z" fill="white"/>
<path d="M260.135 200.819C263.242 200.737 265.541 198.701 265.452 195.342L265.443 195.006C265.353 191.648 262.95 189.737 259.843 189.819C256.736 189.902 254.437 191.938 254.526 195.296L254.535 195.632C254.625 198.991 257.028 200.902 260.135 200.819ZM260.073 198.468C258.456 198.511 257.231 197.451 257.179 195.499L257.173 195.289C257.121 193.337 258.268 192.214 259.905 192.17C261.543 192.127 262.747 193.187 262.799 195.14L262.805 195.35C262.857 197.302 261.689 198.425 260.073 198.468Z" fill="white"/>
<path d="M270.848 200.535C273.031 200.477 273.65 199.284 273.825 198.754L274.224 198.743L274.225 198.764C274.247 199.604 275.017 200.13 276.046 200.102L277.809 200.056L277.751 197.872L276.912 197.895C276.534 197.905 276.318 197.7 276.307 197.281L276.204 193.397C276.135 190.794 274.376 189.433 271.647 189.506C268.939 189.578 267.611 190.978 267.149 192.566L269.606 193.32C269.769 192.37 270.339 191.683 271.662 191.648C273.005 191.612 273.612 192.31 273.638 193.276L273.654 193.864L270.799 193.94C268.447 194.002 266.798 195.159 266.854 197.301C266.911 199.442 268.623 200.594 270.848 200.535ZM271.253 198.381C270.119 198.411 269.517 197.902 269.497 197.146C269.477 196.391 270.053 195.934 271.04 195.908L273.706 195.837L273.712 196.047C273.748 197.433 272.722 198.342 271.253 198.381Z" fill="white"/>
<path d="M279.324 200.015L281.969 199.945L281.811 194.025C281.772 192.556 282.719 191.816 284.062 191.781L285.364 191.746L285.302 189.395L284.042 189.428C283.076 189.454 282.331 189.852 282.059 190.699L281.681 190.709L281.65 189.534L279.047 189.603L279.324 200.015Z" fill="white"/>
<path d="M291.064 199.998C292.954 199.947 293.836 199.168 294.298 198.357L294.676 198.347L294.709 199.607L297.312 199.537L296.922 184.843L294.277 184.913L294.422 190.392L294.044 190.402C293.584 189.679 292.661 188.947 290.772 188.997C288.253 189.064 286.121 191.054 286.211 194.454L286.22 194.79C286.311 198.191 288.566 200.064 291.064 199.998ZM291.801 197.667C290.184 197.71 288.917 196.672 288.864 194.657L288.858 194.447C288.804 192.432 289.994 191.329 291.631 191.285C293.268 191.242 294.514 192.28 294.568 194.295L294.574 194.505C294.627 196.521 293.417 197.624 291.801 197.667Z" fill="white"/>
<path d="M300.838 187.806C301.804 187.78 302.521 187.089 302.494 186.081C302.467 185.073 301.715 184.421 300.749 184.447C299.784 184.472 299.067 185.164 299.093 186.171C299.12 187.179 299.873 187.831 300.838 187.806ZM299.825 199.471L302.47 199.4L302.193 188.988L299.548 189.058L299.825 199.471Z" fill="white"/>
<path d="M309.733 199.501C312.588 199.426 313.784 197.776 314.342 196.648L312.15 195.572C311.814 196.379 311.225 197.151 309.756 197.19C308.287 197.229 307.148 196.272 307.047 194.846L314.625 194.645L314.601 193.742C314.516 190.551 312.464 188.421 309.399 188.502C306.292 188.585 304.249 190.74 304.336 194.015L304.342 194.267C304.429 197.542 306.605 199.585 309.733 199.501ZM307.015 192.872C307.172 191.671 308.012 190.85 309.439 190.812C310.804 190.776 311.728 191.55 311.886 192.743L307.015 192.872Z" fill="white"/>
<path d="M325.92 199.071C328.565 199.001 330.253 197.717 330.195 195.533C330.137 193.35 328.272 192.728 325.91 192.37L325.319 192.281C324.349 192.139 323.754 191.881 323.736 191.21C323.72 190.601 324.256 190.208 325.263 190.182C326.271 190.155 326.995 190.535 327.255 191.599L329.691 190.778C329.163 189.112 327.538 188.02 325.208 188.082C322.731 188.148 321.124 189.346 321.178 191.404C321.233 193.461 323.06 194.232 325.254 194.572L325.845 194.662C327.089 194.86 327.622 195.14 327.639 195.79C327.657 196.441 327.082 196.94 325.864 196.972C324.646 197.004 323.648 196.569 323.336 195.107L320.917 195.801C321.332 197.975 323.191 199.144 325.92 199.071Z" fill="white"/>
<path d="M332.176 198.611L334.822 198.541L334.658 192.39C334.62 190.962 335.271 190.147 336.488 190.114C337.538 190.086 338.183 190.658 338.213 191.791L338.39 198.446L341.035 198.376L340.872 192.225C340.834 190.797 341.485 189.982 342.702 189.949C343.752 189.921 344.397 190.492 344.427 191.626L344.604 198.281L347.249 198.21L347.067 191.367C347 188.848 345.415 187.671 343.483 187.723C341.888 187.765 341.108 188.458 340.67 189.352L340.292 189.362C339.784 188.451 338.928 187.844 337.437 187.883C336.052 187.92 335.249 188.551 334.911 189.253L334.533 189.263L334.503 188.129L331.9 188.199L332.176 198.611Z" fill="white"/>
<path d="M350.688 186.481C351.653 186.455 352.37 185.764 352.343 184.756C352.317 183.749 351.564 183.096 350.598 183.122C349.633 183.148 348.916 183.839 348.943 184.847C348.969 185.854 349.722 186.507 350.688 186.481ZM349.674 198.146L352.319 198.076L352.043 187.663L349.397 187.734L349.674 198.146Z" fill="white"/>
<path d="M354.83 198.009L357.476 197.939L357.085 183.244L354.44 183.314L354.83 198.009Z" fill="white"/>
<path d="M364.739 198.04C367.594 197.964 368.789 196.315 369.348 195.186L367.155 194.11C366.82 194.917 366.231 195.689 364.762 195.728C363.292 195.767 362.153 194.81 362.052 193.384L369.631 193.183L369.607 192.28C369.522 189.09 367.47 186.959 364.405 187.041C361.298 187.123 359.254 189.278 359.341 192.553L359.348 192.805C359.435 196.08 361.611 198.123 364.739 198.04ZM362.021 191.411C362.178 190.209 363.017 189.388 364.445 189.35C365.809 189.314 366.733 190.088 366.891 191.281L362.021 191.411Z" fill="white"/>
<path d="M378.073 190.669C379.207 190.639 380.045 189.797 380.014 188.622C379.983 187.446 379.101 186.65 377.967 186.68C376.833 186.71 375.994 187.552 376.026 188.728C376.057 189.903 376.939 190.699 378.073 190.669ZM378.259 197.68C379.393 197.65 380.232 196.809 380.201 195.633C380.169 194.458 379.287 193.662 378.153 193.692C377.02 193.722 376.181 194.564 376.212 195.739C376.243 196.915 377.126 197.711 378.259 197.68Z" fill="white"/>
<path d="M381.094 202.479C385.775 202.354 388.168 199.896 388.029 194.69L387.874 188.854C387.736 183.648 385.216 181.32 380.535 181.444L380.595 183.711C383.66 183.63 385.216 185.29 385.315 189.006L385.466 194.674C385.565 198.39 384.098 200.13 381.033 200.212L381.094 202.479Z" fill="white"/>
</g>
</g>
<g id="boardie">
<g id="wire-group">
<g id="plug">
<path id="Rectangle 725" d="M79.5355 157.959C79.6917 154.096 82.9498 151.091 86.8126 151.248V151.248C90.6755 151.404 93.6803 154.662 93.5241 158.525L92.7967 176.51L78.8082 175.944L79.5355 157.959Z" fill="#BDBDBD"/>
<g id="Rectangle 727" filter="url(#filter3_d)">
<path d="M77.5367 157.878C77.7376 152.912 81.9265 149.049 86.893 149.249V149.249C91.8595 149.45 95.7229 153.639 95.522 158.606L94.9159 173.593L76.9306 172.866L77.5367 157.878Z" fill="#3C3C3C"/>
<path d="M77.5367 157.878C77.7376 152.912 81.9265 149.049 86.893 149.249V149.249C91.8595 149.45 95.7229 153.639 95.522 158.606L94.9159 173.593L76.9306 172.866L77.5367 157.878Z" fill="url(#paint0_linear)"/>
</g>
</g>
<path id="wire" d="M136.506 -62.9188C143.618 -50.1209 159.107 -15.4668 138.547 22.7336C119.304 58.4853 101.39 53.2316 85.6583 93.154C79.576 114.384 87.7704 123.264 86.7017 149.688" stroke="#616161" stroke-width="6"/>
</g>
<g id="board" filter="url(#filter4_d)">
<rect x="25.8496" y="173.804" width="120" height="120" rx="2" transform="rotate(2.31582 25.8496 173.804)" fill="#111111"/>
</g>
<g id="leds-off">
<rect id="01x01" x="39.2734" y="188.357" width="12" height="12" transform="rotate(2.31583 39.2734 188.357)" fill="#303030"/>
<rect id="01x02" x="59.2578" y="189.166" width="12" height="12" transform="rotate(2.31582 59.2578 189.166)" fill="#303030"/>
<rect id="01x03" x="79.2402" y="189.974" width="12" height="12" transform="rotate(2.31583 79.2402 189.974)" fill="#303030"/>
<rect id="01x04" x="99.2246" y="190.782" width="12" height="12" transform="rotate(2.31583 99.2246 190.782)" fill="#303030"/>
<rect id="01x05" x="119.209" y="191.59" width="12" height="12" transform="rotate(2.31583 119.209 191.59)" fill="#303030"/>
<rect id="02x01" x="38.4648" y="208.341" width="12" height="12" transform="rotate(2.31583 38.4648 208.341)" fill="#303030"/>
<rect id="02x02" x="58.4492" y="209.149" width="12" height="12" transform="rotate(2.31582 58.4492 209.149)" fill="#303030"/>
<rect id="02x03" x="78.4336" y="209.957" width="12" height="12" transform="rotate(2.31582 78.4336 209.957)" fill="#303030"/>
<rect id="02x04" x="98.416" y="210.766" width="12" height="12" transform="rotate(2.31582 98.416 210.766)" fill="#303030"/>
<rect id="02x05" x="118.4" y="211.573" width="12" height="12" transform="rotate(2.31582 118.4 211.573)" fill="#303030"/>
<rect id="03x01" x="37.6562" y="228.325" width="12" height="12" transform="rotate(2.31582 37.6562 228.325)" fill="#303030"/>
<rect id="03x02" x="57.6406" y="229.133" width="12" height="12" transform="rotate(2.31583 57.6406 229.133)" fill="#303030"/>
<rect id="03x03" x="77.625" y="229.941" width="12" height="12" transform="rotate(2.31583 77.625 229.941)" fill="#303030"/>
<rect id="03x04" x="97.6074" y="230.749" width="12" height="12" transform="rotate(2.31582 97.6074 230.749)" fill="#303030"/>
<rect id="03x05" x="117.592" y="231.558" width="12" height="12" transform="rotate(2.31582 117.592 231.558)" fill="#303030"/>
<rect id="04x01" x="36.8496" y="248.309" width="12" height="12" transform="rotate(2.31582 36.8496 248.309)" fill="#303030"/>
<rect id="04x02" x="56.832" y="249.116" width="12" height="12" transform="rotate(2.31582 56.832 249.116)" fill="#303030"/>
<rect id="04x03" x="76.8164" y="249.925" width="12" height="12" transform="rotate(2.31582 76.8164 249.925)" fill="#303030"/>
<rect id="04x04" x="96.8008" y="250.732" width="12" height="12" transform="rotate(2.31582 96.8008 250.732)" fill="#303030"/>
<rect id="04x05" x="116.783" y="251.541" width="12" height="12" transform="rotate(2.31582 116.783 251.541)" fill="#303030"/>
<rect id="05x01" x="36.041" y="268.292" width="12" height="12" transform="rotate(2.31582 36.041 268.292)" fill="#303030"/>
<rect id="05x02" x="56.0254" y="269.101" width="12" height="12" transform="rotate(2.31583 56.0254 269.101)" fill="#303030"/>
<rect id="05x03" x="76.0078" y="269.908" width="12" height="12" transform="rotate(2.31583 76.0078 269.908)" fill="#303030"/>
<rect id="05x04" x="95.9922" y="270.717" width="12" height="12" transform="rotate(2.31582 95.9922 270.717)" fill="#303030"/>
<rect id="05x05" x="115.975" y="271.524" width="12" height="12" transform="rotate(2.31582 115.975 271.524)" fill="#303030"/>
</g>
<g id="leds-on" filter="url(#filter5_d)">
<rect id="02x02_2" x="58.4492" y="209.15" width="12" height="12" transform="rotate(2.31582 58.4492 209.15)" fill="#25D366"/>
<rect id="02x04_2" x="98.416" y="210.767" width="12" height="12" transform="rotate(2.31583 98.416 210.767)" fill="#25D366"/>
<rect id="04x01_2" x="36.8496" y="248.31" width="12" height="12" transform="rotate(2.31583 36.8496 248.31)" fill="#25D366"/>
<rect id="04x05_2" x="116.783" y="251.542" width="12" height="12" transform="rotate(2.31583 116.783 251.542)" fill="#25D366"/>
<rect id="05x02_2" x="56.0254" y="269.102" width="12" height="12" transform="rotate(2.31582 56.0254 269.102)" fill="#25D366"/>
<rect id="05x03_2" x="76.0078" y="269.909" width="12" height="12" transform="rotate(2.31583 76.0078 269.909)" fill="#25D366"/>
<rect id="05x04_2" x="95.9922" y="270.718" width="12" height="12" transform="rotate(2.31583 95.9922 270.718)" fill="#25D366"/>
</g>
</g>
</g>
<defs>
<filter id="filter0_d" x="126" y="109" width="230.131" height="133.672" filterUnits="userSpaceOnUse" color-interpolation-filters="sRGB">
<feFlood flood-opacity="0" result="BackgroundImageFix"/>
<feColorMatrix in="SourceAlpha" type="matrix" values="0 0 0 0 0 0 0 0 0 0 0 0 0 0 0 0 0 0 127 0"/>
<feOffset/>
<feGaussianBlur stdDeviation="2.5"/>
<feColorMatrix type="matrix" values="0 0 0 0 0 0 0 0 0 0 0 0 0 0 0 0 0 0 0.25 0"/>
<feBlend mode="normal" in2="BackgroundImageFix" result="effect1_dropShadow"/>
<feBlend mode="normal" in="SourceGraphic" in2="effect1_dropShadow" result="shape"/>
</filter>
<filter id="filter1_d" x="175.16" y="115" width="173.651" height="56.2397" filterUnits="userSpaceOnUse" color-interpolation-filters="sRGB">
<feFlood flood-opacity="0" result="BackgroundImageFix"/>
<feColorMatrix in="SourceAlpha" type="matrix" values="0 0 0 0 0 0 0 0 0 0 0 0 0 0 0 0 0 0 127 0"/>
<feOffset/>
<feGaussianBlur stdDeviation="2.5"/>
<feColorMatrix type="matrix" values="0 0 0 0 0 0 0 0 0 0 0 0 0 0 0 0 0 0 0.25 0"/>
<feBlend mode="normal" in2="BackgroundImageFix" result="effect1_dropShadow"/>
<feBlend mode="normal" in="SourceGraphic" in2="effect1_dropShadow" result="shape"/>
</filter>
<filter id="filter2_d" x="167.082" y="167.301" width="236.37" height="53.3875" filterUnits="userSpaceOnUse" color-interpolation-filters="sRGB">
<feFlood flood-opacity="0" result="BackgroundImageFix"/>
<feColorMatrix in="SourceAlpha" type="matrix" values="0 0 0 0 0 0 0 0 0 0 0 0 0 0 0 0 0 0 127 0"/>
<feOffset/>
<feGaussianBlur stdDeviation="2.5"/>
<feColorMatrix type="matrix" values="0 0 0 0 0 0 0 0 0 0 0 0 0 0 0 0 0 0 0.25 0"/>
<feBlend mode="normal" in2="BackgroundImageFix" result="effect1_dropShadow"/>
<feBlend mode="normal" in="SourceGraphic" in2="effect1_dropShadow" result="shape"/>
</filter>
<filter id="filter3_d" x="68.9297" y="140.886" width="34.9551" height="40.7077" filterUnits="userSpaceOnUse" color-interpolation-filters="sRGB">
<feFlood flood-opacity="0" result="BackgroundImageFix"/>
<feColorMatrix in="SourceAlpha" type="matrix" values="0 0 0 0 0 0 0 0 0 0 0 0 0 0 0 0 0 0 127 0"/>
<feOffset/>
<feGaussianBlur stdDeviation="4"/>
<feColorMatrix type="matrix" values="0 0 0 0 0.172549 0 0 0 0 0.172549 0 0 0 0 0.172549 0 0 0 0.5 0"/>
<feBlend mode="normal" in2="BackgroundImageFix" result="effect1_dropShadow"/>
<feBlend mode="normal" in="SourceGraphic" in2="effect1_dropShadow" result="shape"/>
</filter>
<filter id="filter4_d" x="13" y="165.804" width="140.751" height="140.751" filterUnits="userSpaceOnUse" color-interpolation-filters="sRGB">
<feFlood flood-opacity="0" result="BackgroundImageFix"/>
<feColorMatrix in="SourceAlpha" type="matrix" values="0 0 0 0 0 0 0 0 0 0 0 0 0 0 0 0 0 0 127 0"/>
<feOffset/>
<feGaussianBlur stdDeviation="4"/>
<feColorMatrix type="matrix" values="0 0 0 0 0.172549 0 0 0 0 0.172549 0 0 0 0 0.172549 0 0 0 0.5 0"/>
<feBlend mode="normal" in2="BackgroundImageFix" result="effect1_dropShadow"/>
<feBlend mode="normal" in="SourceGraphic" in2="effect1_dropShadow" result="shape"/>
</filter>
<filter id="filter5_d" x="32.3652" y="205.15" width="100.409" height="82.0425" filterUnits="userSpaceOnUse" color-interpolation-filters="sRGB">
<feFlood flood-opacity="0" result="BackgroundImageFix"/>
<feColorMatrix in="SourceAlpha" type="matrix" values="0 0 0 0 0 0 0 0 0 0 0 0 0 0 0 0 0 0 127 0"/>
<feOffset/>
<feGaussianBlur stdDeviation="2"/>
<feColorMatrix type="matrix" values="0 0 0 0 0.486889 0 0 0 0 0.8375 0 0 0 0 0.436198 0 0 0 1 0"/>
<feBlend mode="normal" in2="BackgroundImageFix" result="effect1_dropShadow"/>
<feBlend mode="normal" in="SourceGraphic" in2="effect1_dropShadow" result="shape"/>
</filter>
<linearGradient id="paint0_linear" x1="77.4155" y1="160.876" x2="95.4008" y2="161.603" gradientUnits="userSpaceOnUse">
<stop stop-color="#2C2C2C"/>
<stop offset="0.5035" stop-color="#343434"/>
<stop offset="1" stop-color="#2C2C2C"/>
</linearGradient>
<clipPath id="clip0">
<rect width="412" height="312" fill="white"/>
</clipPath>
</defs>
</svg>
